<?xml version="1.0" encoding="UTF-8" standalone="no"?>
<svg
   xmlns:dc="http://purl.org/dc/elements/1.1/"
   xmlns:cc="http://creativecommons.org/ns#"
   xmlns:rdf="http://www.w3.org/1999/02/22-rdf-syntax-ns#"
   xmlns:svg="http://www.w3.org/2000/svg"
   xmlns="http://www.w3.org/2000/svg"
   xmlns:sodipodi="http://sodipodi.sourceforge.net/DTD/sodipodi-0.dtd"
   xmlns:inkscape="http://www.inkscape.org/namespaces/inkscape"
   inkscape:version="1.0 (4035a4fb49, 2020-05-01)"
   sodipodi:docname="linuxlogo.svg"
   viewBox="0 0 256.00001 255.99999"
   height="256"
   width="256"
   id="svg2"
   version="1.1">
  <metadata
     id="metadata8">
    <rdf:RDF>
      <cc:Work
         rdf:about="">
        <dc:format>image/svg+xml</dc:format>
        <dc:type
           rdf:resource="http://purl.org/dc/dcmitype/StillImage" />
        <dc:title></dc:title>
      </cc:Work>
    </rdf:RDF>
  </metadata>
  <defs
     id="defs6" />
  <sodipodi:namedview
     inkscape:current-layer="g10"
     inkscape:window-maximized="1"
     inkscape:window-y="0"
     inkscape:window-x="0"
     inkscape:cy="-2.084861"
     inkscape:cx="101.32441"
     inkscape:zoom="2.3315259"
     showgrid="false"
     id="namedview4"
     inkscape:window-height="1043"
     inkscape:window-width="1920"
     inkscape:pageshadow="2"
     inkscape:pageopacity="0"
     guidetolerance="10"
     gridtolerance="10"
     objecttolerance="10"
     borderopacity="1"
     bordercolor="#666666"
     pagecolor="#ffffff" />
  <g
     id="g10"
     inkscape:label="Image"
     inkscape:groupmode="layer">
    <rect
       y="78.922371"
       x="90.584457"
       height="83.256981"
       width="94.680977"
       id="rect1137"
       style="fill:#ffffff;fill-opacity:1" />
    <rect
       style="fill:#ffffff;fill-opacity:1"
       id="rect1137-6"
       width="40.360825"
       height="29.866377"
       x="105.61495"
       y="31.560677" />
    <rect
       y="93.890938"
       x="141.74171"
       height="10.753182"
       width="1.3888594"
       id="rect1156"
       style="fill:#ffffff;fill-opacity:1" />
    <rect
       ry="7.1665173"
       y="17.850491"
       x="162.84747"
       height="14.333035"
       width="20.033134"
       id="rect1137-6-2"
       style="fill:#ffffff;fill-opacity:1" />
    <rect
       y="58.571049"
       x="149.07275"
       height="21.81214"
       width="37.047745"
       id="rect1173"
       style="fill:#ffffff;fill-opacity:1" />
    <rect
       y="39.062725"
       x="170.11497"
       height="9.6988859"
       width="0.0036102852"
       id="rect1175"
       style="fill:#ffffff;fill-opacity:1" />
    <rect
       style="fill:#ffffff;fill-opacity:1"
       id="rect1137-6-2-9"
       width="21.161833"
       height="19.411861"
       x="160.25819"
       y="18.353251"
       ry="7.1665173" />
    <rect
       ry="2.7200444"
       y="27.246199"
       x="172.43436"
       height="5.4400887"
       width="7.8569713"
       id="rect1194"
       style="fill:#ffffff;fill-opacity:1" />
    <rect
       rx="4.1313195"
       ry="2.7200401"
       y="28.012817"
       x="175.54251"
       height="7.8687062"
       width="19.835936"
       id="rect1196"
       style="fill:#ffffff;fill-opacity:1" />
    <rect
       ry="0.6649648"
       y="33.160553"
       x="185.32748"
       height="1.3299296"
       width="2.8620138"
       id="rect1198"
       style="fill:#ffffff;fill-opacity:1" />
    <rect
       ry="0.023910515"
       y="35.468334"
       x="184.35608"
       height="0.49309424"
       width="0.04782103"
       id="rect1200"
       style="fill:#ffffff;fill-opacity:1" />
    <rect
       ry="0.12363392"
       y="28.507881"
       x="183.21082"
       height="0.24726784"
       width="0.29426917"
       id="rect1202"
       style="fill:#ffffff;fill-opacity:1" />
    <rect
       ry="0.080419436"
       y="29.163847"
       x="176.94431"
       height="3.7206211"
       width="0.16083887"
       id="rect1204"
       style="fill:#ffffff;fill-opacity:1" />
    <rect
       ry="0.034840845"
       y="32.686287"
       x="180.29132"
       height="1.8472904"
       width="0.069681689"
       id="rect1206"
       style="fill:#ffffff;fill-opacity:1" />
    <rect
       style="fill:#ffffff;fill-opacity:1"
       id="rect1196-1"
       width="16.036329"
       height="6.1113272"
       x="175.3148"
       y="27.053936"
       ry="2.7200394"
       rx="4.1313195" />
    <rect
       ry="0.86046439"
       rx="4.13132"
       y="29.282475"
       x="179.6674"
       height="0.86046439"
       width="6.6587267"
       id="rect1223"
       style="fill:#ffffff;fill-opacity:1" />
    <g
       transform="matrix(2.0996102,0,0,3.0983154,6.0060785,-69.180314)"
       id="g977">
      <path
         id="path991"
         d="m 72.003574,104.76059 -1.038026,-0.24643 -0.533833,-0.44082 -0.533831,-0.44082 -0.561446,-0.92076 -0.561447,-0.92077 -5.066694,-0.1733 -5.066694,-0.1733 -4.48,-0.004 -4.48,-0.004 -1.885389,0.56733 -1.885386,0.56732 -2.914614,-0.57697 -2.914611,-0.57699 -21.363508,-0.0966 -21.3635071,-0.0966 0.083508,-13.355538 0.083507,-13.355539 5.7709146,-0.08695 5.7709145,-0.08695 0.5852045,-2.313046 0.5852035,-2.31305 1.113574,-3.04 1.113573,-3.04 1.45161,-2.72 1.451611,-2.72 1.952369,-2.88 1.95237,-2.88 3.846328,-3.840262 3.846328,-3.840259 2.808726,-1.976829 2.808726,-1.976826 3.431274,-1.752102 3.431274,-1.752103 2.891545,-1.00702 2.891549,-1.007021 0.0608,-0.863789 0.06081,-0.863789 1.37928,-1.28 1.37928,-1.28 0.59822,-1.581232 0.598218,-1.581232 1.295766,-1.405739 1.295764,-1.40574 1.158531,-0.591038 1.158531,-0.591039 2.659814,-0.66199 2.659815,-0.66199 h 2.322333 2.322329 l 2.180208,0.673398 2.180208,0.673398 2.206602,2.206602 2.206605,2.206602 h 0.09128 0.09128 l 0.199683,-1.064405 0.199683,-1.064405 0.402455,-0.55039 0.402454,-0.55039 3.353475,1.166841 3.353476,1.166841 0.56,0.299213 0.56,0.299213 v -0.331259 -0.331259 l 0.4,0.0065 0.4,0.0065 2.34943,1.721323 2.34943,1.721324 2.37057,0.864595 2.37057,0.864594 v 0.550154 0.550154 l -0.926528,1.737382 -0.926528,1.737379 -1.305591,2.56 -1.305587,2.56 0.87144,0.64 0.87144,0.64 2.80833,2.351914 2.808326,2.351914 2.312349,2.713417 2.312349,2.713421 1.583013,2.272976 1.58301,2.272976 1.79962,3.548106 1.79962,3.548105 1.00416,3.193588 1.00416,3.193584 0.34554,1.36 0.34554,1.36 h 4.94767 4.94766 v 13.44 13.439997 H 101.54617 83.810745 l -2.372726,1.27983 -2.372724,1.27984 -2.503033,0.64016 -2.503037,0.64017 -0.50881,-0.0327 -0.508812,-0.0328 -1.038029,-0.24642 z m -13.259786,-34.882985 1.629405,-4.474919 -0.504963,-1.205081 -0.50496,-1.205082 -0.163802,-2.605744 -0.163805,-2.605744 0.73016,-0.390771 0.730157,-0.390768 1.239395,0.371331 1.239392,0.371331 0.273994,-0.169337 0.273997,-0.169341 0.850099,-2.726566 0.850099,-2.726564 -0.301293,-0.558915 -0.301296,-0.558912 -0.873276,-0.8 -0.87328,-0.8 -0.146714,0.411824 -0.14671,0.411821 -0.778493,0.925187 -0.778493,0.925187 -1.429846,0.546064 -1.42985,0.546064 -2.16105,-0.166348 -2.161052,-0.166346 -1.565293,-0.684768 -1.56529,-0.684768 -0.152006,0.152006 -0.152007,0.152007 -0.242953,3.296035 -0.242954,3.296035 -0.82815,2.452186 -0.828151,2.452185 -1.413187,3.147815 -1.41319,3.147814 -0.481245,1.44 -0.481248,1.44 -0.222589,1.04 -0.222589,1.04 h 6.541818 6.541814 z m 8.537815,3.362173 -1.28,-1.103226 -0.24792,-0.012 -0.24792,-0.01203 -0.314368,0.826854 -0.314372,0.826852 0.181175,0.293148 0.181174,0.293146 1.661117,-0.0048 1.661114,-0.0048 -1.28,-1.103226 z m 8.102512,-10.817988 0.34088,-0.410732 -0.296797,-0.469268 -0.296794,-0.469267 -0.0049,-0.861856 -0.0049,-0.861853 -0.711204,-0.498147 -0.7112,-0.498144 h -0.817596 -0.817597 l -0.740848,0.518912 -0.740851,0.518909 -0.566944,1.321091 -0.566948,1.321088 0.676592,0.388659 0.676596,0.388663 2.120819,0.01133 2.120816,0.01133 0.340877,-0.410733 z m 1.187984,-4.00544 -0.142893,-0.142892 -0.488407,0.18742 -0.488406,0.187418 0.20607,0.537008 0.206068,0.537011 0.425228,-0.581536 0.425232,-0.581536 z m 5.341843,-14.198121 1.832336,-1.239146 0.35359,-0.660688 0.353587,-0.660685 -0.118265,-0.118268 -0.118269,-0.118266 -4.11985,2.509664 -4.119849,2.509664 -0.463427,0.88448 -0.463424,0.884483 2.515616,-1.376048 2.515616,-1.376045 z m -17.839002,-4.549952 0.764247,-0.764247 0.222611,-1.18662 0.222611,-1.186621 -0.352118,-1.175277 -0.352122,-1.175277 -0.41785,-0.57144 -0.417846,-0.571443 -4.556058,0.01456 -4.556054,0.01453 -1.355379,0.197597 -1.355379,0.197597 -1.68,0.468153 -1.68,0.468154 v 2.057293 2.057292 h 0.258838 0.258838 l 0.621162,-0.469824 0.621162,-0.46982 0.24,-0.01018 0.24,-0.01018 v 0.48 0.48 h 0.472 0.472 l -0.189645,-0.948227 -0.189645,-0.948227 0.203741,-0.811773 0.203741,-0.811773 h 0.942646 0.942643 l 0.331261,0.618963 0.331258,0.618964 v 0.844499 0.844502 l 0.56,-0.106224 0.56,-0.106224 0.09565,-1.301081 0.09566,-1.301082 1.357164,-0.65936 1.357168,-0.659363 -0.130099,2.043203 -0.130102,2.043203 h 0.331107 0.331107 l 0.50617,0.194237 0.506173,0.194237 V 37.10676 35.952523 l 0.64,-0.64 0.64,-0.64 h 0.408796 0.4088 l 0.685863,0.480397 0.685865,0.480397 0.21362,0.972608 0.213619,0.972608 -0.515658,0.786995 -0.515661,0.786995 h -0.579289 -0.57929 l -0.191283,0.191287 -0.191286,0.191283 0.172188,0.448717 0.172189,0.448713 h 0.940307 0.940311 z m -10.680912,-3.811328 -0.34176,-0.34176 -0.177312,0.177315 -0.177315,0.177315 0.411981,0.911127 0.411981,0.911129 0.107091,-0.746685 0.107094,-0.746681 z m 8.968909,-0.311091 -0.350669,-0.350669 -0.210931,0.210934 -0.210934,0.210935 0.433904,0.522822 0.433904,0.522822 0.127696,-0.383091 0.127696,-0.383088 z m 19.111965,-3.593335 -0.316384,-0.32 -0.458458,0.621162 -0.458457,0.621161 v 0.273776 0.27378 l 0.774841,-0.574941 0.774842,-0.574938 z m 6.722537,-0.158028 -1.484166,-0.603127 -1.875834,0.20654 -1.875836,0.206541 2.08,0.37497 2.08,0.37497 1.28,0.02162 1.28,0.02162 -1.484164,-0.603128 z m -6.675836,-2.401972 v -0.16 h -0.16 -0.16 v 0.16 0.16 h 0.16 0.16 z"
         style="fill:#fddd0a;stroke-width:0.32" />
      <path
         id="path989"
         d="m 72.003574,104.76059 -1.038026,-0.24643 -0.533833,-0.44082 -0.533831,-0.44082 -0.561446,-0.92076 -0.561447,-0.92077 -5.066694,-0.1733 -5.066694,-0.1733 -4.48,-0.004 -4.48,-0.004 -1.885389,0.56733 -1.885386,0.56732 -2.914614,-0.57697 -2.914611,-0.57699 -21.363508,-0.0966 -21.3635071,-0.0966 0.083508,-13.355538 0.083507,-13.355539 5.7709146,-0.08695 5.7709145,-0.08695 0.5852045,-2.313046 0.5852035,-2.31305 1.113574,-3.04 1.113573,-3.04 1.45161,-2.72 1.451611,-2.72 1.952369,-2.88 1.95237,-2.88 3.846328,-3.840262 3.846328,-3.840259 2.808726,-1.976829 2.808726,-1.976826 3.431274,-1.752102 3.431274,-1.752103 2.891545,-1.00702 2.891549,-1.007021 0.0608,-0.863789 0.06081,-0.863789 1.37928,-1.28 1.37928,-1.28 0.59822,-1.581232 0.598218,-1.581232 1.295766,-1.405739 1.295764,-1.40574 1.158531,-0.591038 1.158531,-0.591039 2.659814,-0.66199 2.659815,-0.66199 h 2.322333 2.322329 l 2.180208,0.673398 2.180208,0.673398 2.206602,2.206602 2.206605,2.206602 h 0.09128 0.09128 l 0.199683,-1.064405 0.199683,-1.064405 0.402455,-0.55039 0.402454,-0.55039 3.353475,1.166841 3.353476,1.166841 0.56,0.299213 0.56,0.299213 v -0.331259 -0.331259 l 0.4,0.0065 0.4,0.0065 2.34943,1.721323 2.34943,1.721324 2.37057,0.864595 2.37057,0.864594 v 0.550154 0.550154 l -0.926528,1.737382 -0.926528,1.737379 -1.305591,2.56 -1.305587,2.56 0.87144,0.64 0.87144,0.64 2.80833,2.351914 2.808326,2.351914 2.312349,2.713417 2.312349,2.713421 1.583013,2.272976 1.58301,2.272976 1.79962,3.548106 1.79962,3.548105 1.00416,3.193588 1.00416,3.193584 0.34554,1.36 0.34554,1.36 h 4.94767 4.94766 v 13.44 13.439997 H 101.54617 83.810745 l -2.372726,1.27983 -2.372724,1.27984 -2.503033,0.64016 -2.503037,0.64017 -0.50881,-0.0327 -0.508812,-0.0328 -1.038029,-0.24642 z m -13.259786,-34.882985 1.629405,-4.474919 -0.504963,-1.205081 -0.50496,-1.205082 -0.163802,-2.605744 -0.163805,-2.605744 0.73016,-0.390771 0.730157,-0.390768 1.239395,0.371331 1.239392,0.371331 0.273994,-0.169337 0.273997,-0.169341 0.850099,-2.726566 0.850099,-2.726564 -0.301293,-0.558915 -0.301296,-0.558912 -0.873276,-0.8 -0.87328,-0.8 -0.146714,0.411824 -0.14671,0.411821 -0.778493,0.925187 -0.778493,0.925187 -1.429846,0.546064 -1.42985,0.546064 -2.16105,-0.166348 -2.161052,-0.166346 -1.565293,-0.684768 -1.56529,-0.684768 -0.152006,0.152006 -0.152007,0.152007 -0.242953,3.296035 -0.242954,3.296035 -0.82815,2.452186 -0.828151,2.452185 -1.413187,3.147815 -1.41319,3.147814 -0.481245,1.44 -0.481248,1.44 -0.222589,1.04 -0.222589,1.04 h 6.541818 6.541814 z m 8.537815,3.362173 -1.28,-1.103226 -0.24792,-0.012 -0.24792,-0.01203 -0.314368,0.826854 -0.314372,0.826852 0.181175,0.293148 0.181174,0.293146 1.661117,-0.0048 1.661114,-0.0048 -1.28,-1.103226 z m 37.410367,0.232745 -0.20183,-0.88 -0.94103,-2.88 -0.94104,-2.88 -1.59198,-3.2 -1.591988,-3.2 -2.013421,-2.80927 -2.013418,-2.809271 -2.21783,-2.32712 -2.21783,-2.32712 -2.016615,-1.663609 -2.016611,-1.66361 h -0.25217 -0.252166 l -0.353693,1.2 -0.353693,1.2 -0.360236,1.6 -0.360237,1.6 -0.571098,1.296259 -0.571101,1.296256 -1.064803,1.212743 -1.064803,1.212745 0.391974,1.490999 0.391975,1.490998 1.247821,2.570224 1.247817,2.570227 0.818819,2.825572 0.81882,2.825571 v 1.564205 1.564201 h 9.126096 9.126091 z M 75.384115,62.42179 l 0.34088,-0.410732 -0.296797,-0.469268 -0.296794,-0.469267 -0.0049,-0.861856 -0.0049,-0.861853 -0.711204,-0.498147 -0.7112,-0.498144 h -0.817596 -0.817597 l -0.740848,0.518912 -0.740851,0.518909 -0.566944,1.321091 -0.566948,1.321088 0.676592,0.388659 0.676596,0.388663 2.120819,0.01133 2.120816,0.01133 0.340877,-0.410733 z m 1.187984,-4.00544 -0.142893,-0.142892 -0.488407,0.18742 -0.488406,0.187418 0.20607,0.537008 0.206068,0.537011 0.425228,-0.581536 0.425232,-0.581536 z m 5.341843,-14.198121 1.832336,-1.239146 0.35359,-0.660688 0.353587,-0.660685 -0.118265,-0.118268 -0.118269,-0.118266 -4.11985,2.509664 -4.119849,2.509664 -0.463427,0.88448 -0.463424,0.884483 2.515616,-1.376048 2.515616,-1.376045 z m -34.335085,2.644793 1.737254,-0.899305 -1.614697,-0.811015 -1.614695,-0.811017 -1.678467,-1.154579 -1.678464,-1.154583 h -0.57792 -0.577923 l -0.50617,0.194237 -0.506172,0.194237 0.0022,0.685763 0.0022,0.685763 0.598969,0.908477 0.598967,0.908477 1.535251,1.091523 1.535248,1.091523 0.503673,-0.0151 0.503674,-0.0151 1.737254,-0.899305 z m 8.017677,-4.027958 4.786931,-2.397462 -0.160966,-0.419472 -0.160967,-0.419476 -0.919337,-0.543065 -0.919338,-0.543066 h -1.594832 -1.594829 l -2.76063,0.8 -2.760634,0.8 -1.355165,9.6e-4 -1.355164,9.6e-4 -2.298234,-0.681165 -2.298234,-0.681168 -0.812528,0.203933 -0.812531,0.20393 -0.346963,0.64831 -0.346966,0.648311 0.188716,0.594585 0.188714,0.594589 1.102704,-0.338429 1.102704,-0.338429 1.68631,1.078468 1.686308,1.078467 2.038524,1.053286 2.038528,1.053287 h 0.445472 0.445472 l 4.786935,-2.39746 z m 8.478406,-3.166787 0.764247,-0.764247 0.222611,-1.18662 0.222611,-1.186621 -0.352118,-1.175277 -0.352122,-1.175277 -0.41785,-0.57144 -0.417846,-0.571443 -4.556058,0.01456 -4.556054,0.01453 -1.355379,0.197597 -1.355379,0.197597 -1.68,0.468153 -1.68,0.468154 v 2.057293 2.057292 h 0.258838 0.258838 l 0.621162,-0.469824 0.621162,-0.46982 0.24,-0.01018 0.24,-0.01018 v 0.48 0.48 h 0.472 0.472 l -0.189645,-0.948227 -0.189645,-0.948227 0.203741,-0.811773 0.203741,-0.811773 h 0.942646 0.942643 l 0.331261,0.618963 0.331258,0.618964 v 0.844499 0.844502 l 0.56,-0.106224 0.56,-0.106224 0.09565,-1.301081 0.09566,-1.301082 1.357164,-0.65936 1.357168,-0.659363 -0.130099,2.043203 -0.130102,2.043203 h 0.331107 0.331107 l 0.50617,0.194237 0.506173,0.194237 V 37.10676 35.952523 l 0.64,-0.64 0.64,-0.64 h 0.408796 0.4088 l 0.685863,0.480397 0.685865,0.480397 0.21362,0.972608 0.213619,0.972608 -0.515658,0.786995 -0.515661,0.786995 h -0.579289 -0.57929 l -0.191283,0.191287 -0.191286,0.191283 0.172188,0.448717 0.172189,0.448713 h 0.940307 0.940311 z m -10.680912,-3.811328 -0.34176,-0.34176 -0.177312,0.177315 -0.177315,0.177315 0.411981,0.911127 0.411981,0.911129 0.107091,-0.746685 0.107094,-0.746681 z m 8.968909,-0.311091 -0.350669,-0.350669 -0.210931,0.210934 -0.210934,0.210935 0.433904,0.522822 0.433904,0.522822 0.127696,-0.383091 0.127696,-0.383088 z m 19.111965,-3.593335 -0.316384,-0.32 -0.458458,0.621162 -0.458457,0.621161 v 0.273776 0.27378 l 0.774841,-0.574941 0.774842,-0.574938 z m 6.722537,-0.158028 -1.484166,-0.603127 -1.875834,0.20654 -1.875836,0.206541 2.08,0.37497 2.08,0.37497 1.28,0.02162 1.28,0.02162 -1.484164,-0.603128 z m -6.675836,-2.401972 v -0.16 h -0.16 -0.16 v 0.16 0.16 h 0.16 0.16 z"
         style="fill:#939393;stroke-width:0.32" />
      <path
         id="path987"
         d="m 70.776102,104.14917 -0.985501,-0.60095 -0.392477,-0.94752 -0.392473,-0.94752 -6.75362,-0.21033 -6.753619,-0.21033 h -2.789325 -2.789324 l -1.148804,0.48 -1.1488,0.48 -2.010278,-0.005 -2.010278,-0.005 -1.92,-0.4636 -1.92,-0.46361 -21.04,-0.0114 -21.0400004,-0.0114 v -13.279997 -13.28 H 3.416177 9.1507511 l 0.2074105,-1.04 0.2074106,-1.04 0.9704808,-3.2 0.97048,-3.2 1.53977,-3.268339 1.539771,-3.268339 1.827251,-2.811661 1.827251,-2.811661 2.223913,-2.648745 2.223914,-2.648746 2.776598,-2.428653 2.776602,-2.428653 2.820272,-1.858931 2.820268,-1.858931 2.666752,-1.321046 2.666752,-1.321047 2.988976,-1.067203 2.98898,-1.067206 0.207859,-1.016327 0.207862,-1.016323 0.726752,-0.773595 0.726752,-0.773594 0.589389,-0.187064 0.589386,-0.187064 0.0032,-0.378436 0.0032,-0.378436 0.817056,-1.76 0.817059,-1.76 0.859817,-0.909839 0.859815,-0.909839 1.44,-0.729416 1.44,-0.729416 3.04,-0.713419 3.04,-0.71342 2.351222,0.208848 2.351226,0.208848 1.713299,0.641028 1.713296,0.641026 1.541846,1.386251 1.541844,1.38625 0.447705,0.836549 0.447709,0.836549 h 0.265926 0.265927 l 0.0019,-0.4 0.0019,-0.4 0.333257,-1.2 0.333258,-1.2 h 0.564931 0.564928 l 2.700029,0.921182 2.700029,0.921182 0.902915,0.420624 0.902918,0.420624 0.244413,-0.395467 0.24441,-0.395468 2.532672,1.81731 2.532672,1.817309 2.32,0.83456 2.32,0.83456 -2.53e-4,0.321792 -2.53e-4,0.321792 -0.972134,1.92 -0.972135,1.92 -1.10704,2.08 -1.10704,2.08 -0.166595,0.511031 -0.166592,0.51103 2.371085,1.816106 2.371088,1.816105 3.330944,3.447735 3.330941,3.447737 2.012072,3.008074 2.01207,3.008077 1.25424,2.494566 1.25425,2.494566 0.96905,2.439447 0.96905,2.439446 0.75685,2.92304 0.75685,2.92304 4.99178,0.08813 4.99177,0.08813 v 13.271875 13.271872 h -17.8285 -17.82854 l -2.411459,1.2488 -2.411459,1.2488 -1.73808,0.5112 -1.73808,0.5112 -1.78192,-0.001 -1.78192,-0.001 -0.985501,-0.60095 z m -12.041235,-34.054138 1.682457,-4.577488 -0.497702,-1.41063 -0.497699,-1.410631 -0.190941,-2.258851 -0.190944,-2.258851 0.514761,-0.427216 0.514762,-0.427213 1.206022,0.140003 1.20602,0.140003 0.427852,0.134183 0.427853,0.134182 1.0568,-3.005497 1.056797,-3.005498 -1.306154,-1.417011 -1.306153,-1.417011 -0.570087,1.111209 -0.570083,1.111213 -1.148403,0.70975 -1.148403,0.709751 -1.983498,0.159219 -1.983501,0.159216 -2.383126,-0.828771 -2.383123,-0.828768 -0.248487,0.391097 -0.248483,0.391101 -0.0049,2.108813 -0.0049,2.10881 -0.644221,2.518883 -0.644224,2.518883 -1.629427,3.692307 -1.62943,3.692304 -0.766349,2.332192 -0.766349,2.332189 v 0.627811 0.627808 h 6.485402 6.485405 l 1.682457,-4.577491 z m 3.11416,3.815782 0.469769,-0.469769 2.243616,0.634925 2.243613,0.634924 1.111139,-0.09919 1.111139,-0.09918 -2.216144,-1.76 -2.216147,-1.76 -1.831267,-2.31927 -1.831267,-2.319274 -0.08877,0.08877 -0.08877,0.08877 -1.414704,3.830503 -1.414704,3.830502 0.1608,0.27945 0.1608,0.279449 1.565561,-0.185417 1.565559,-0.185418 z m -18.474167,-0.358291 0.09948,-0.64 0.836028,-2.56 0.836026,-2.56 1.664256,-8.64 1.664256,-8.64 -1.156653,-0.551126 -1.156649,-0.551123 -0.254698,0.07602 -0.254698,0.07603 -1.120134,2.7151 -1.120138,2.715101 -1.105772,3.152717 -1.105776,3.152714 -0.626589,3.087286 -0.626589,3.087283 -0.221059,3.457408 -0.221059,3.457411 1.885145,-0.09741 1.885146,-0.09741 z m 61.31711,-0.08 -0.20183,-0.88 -0.94103,-2.88 -0.94104,-2.88 -1.59198,-3.2 -1.591988,-3.2 -2.013421,-2.80927 -2.013418,-2.809271 -2.21783,-2.32712 -2.21783,-2.32712 -2.016615,-1.663609 -2.016611,-1.66361 h -0.25217 -0.252166 l -0.353693,1.2 -0.353693,1.2 -0.360236,1.6 -0.360237,1.6 -0.571098,1.296259 -0.571101,1.296256 -1.064803,1.212743 -1.064803,1.212745 0.391974,1.490999 0.391975,1.490998 1.247821,2.570224 1.247817,2.570227 0.818819,2.825572 0.81882,2.825571 v 1.564205 1.564201 h 9.126096 9.126091 z M 65.201603,65.150194 v -5.04233 l -1.52,-0.923955 -1.52,-0.923952 -1.12,-0.03372 -1.12,-0.03372 -0.09588,0.824307 -0.09588,0.824308 0.493818,2.368355 0.493814,2.368352 1.026957,1.447337 1.026957,1.447341 1.122874,1.36 1.12287,1.36 h 0.09224 0.09224 z m -35.52,-2.469453 v -5.591783 l -0.944109,-0.488217 -0.944109,-0.488218 h -0.75473 -0.754729 l -0.5692,0.416211 -0.569203,0.416208 0.51102,2.9612 0.511018,2.9612 0.475126,1.13714 0.47513,1.137136 1.149146,1.565452 1.149148,1.565453 h 0.132746 0.132746 z m 46.027049,-0.05698 0.747053,-0.200028 -0.367904,-0.227376 -0.367904,-0.227376 -0.398547,-1.562311 -0.398551,-1.56231 -1.197504,-0.455776 -1.197507,-0.455773 -0.863091,0.698675 -0.863094,0.698672 -1.064634,0.48577 -1.06463,0.485773 -1.17537,-0.574589 -1.175366,-0.574586 -0.506048,-1.524813 -0.506052,-1.524812 -0.485308,0.564812 -0.485312,0.564813 -0.194224,0.548608 -0.194228,0.548608 2.625588,1.882173 2.625584,1.882173 0.64,0.359488 0.64,0.359488 2.24,0.0054 2.24,0.0054 0.747049,-0.200026 z m 3.29377,-1.311235 0.439181,-0.56 -0.56,0.439181 -0.56,0.439184 v 0.120816 0.120819 h 0.120819 0.120816 z m -0.212311,-1.250166 1.137828,-1.490163 -0.128218,-0.128218 -0.128218,-0.128218 -1.79495,1.148215 -1.79495,1.148217 v 0.256832 0.256836 l 0.213334,0.213331 0.213331,0.213334 h 0.57201 0.572009 z m 0.145856,-2.173658 2.763684,-1.743827 0.673545,-0.736173 0.673543,-0.736176 0.567004,-1.12 0.567002,-1.12 -1.692166,1.851472 -1.692167,1.851475 -1.317405,0.760823 -1.317404,0.760819 -1.36,0.398358 -1.36,0.398359 v 0.08317 0.08318 l 0.194236,0.506169 0.194237,0.506173 h 0.171104 0.171104 z m 2.270311,-3.351856 1.764675,-1.78432 1.026438,-2.08 1.026439,-2.08 1.264368,-3.585021 1.264368,-3.58502 -4.10641,2.735478 -4.106409,2.735478 -1.761466,4.849543 -1.761466,4.849542 -0.217689,0.549175 -0.21769,0.549177 2.030083,-0.684857 2.030084,-0.684855 z m -8.612647,-5.183443 2.367972,-1.076816 2.08,-1.067507 2.08,-1.067507 4.575366,-3.064272 4.575366,-3.064272 0.34186,-0.638772 0.341862,-0.638774 -0.437229,0.169523 -0.437225,0.16952 -7.320295,4.347923 -7.320294,4.34792 -1.319706,0.473748 -1.319705,0.47375 -1.795351,0.493286 -1.795347,0.49329 -0.962445,2.164042 -0.962445,2.164041 -0.245856,0.8 -0.245859,0.8 2.71568,-2.601155 2.715683,-2.601152 z M 47.578857,46.863025 49.316111,45.96372 47.701414,45.152705 46.086719,44.341688 44.408252,43.187109 42.729788,42.032526 h -0.57792 -0.577923 l -0.50617,0.194237 -0.506172,0.194237 0.0022,0.685763 0.0022,0.685763 0.598969,0.908477 0.598967,0.908477 1.535251,1.091523 1.535248,1.091523 0.503673,-0.0151 0.503674,-0.0151 1.737254,-0.899305 z m 8.017677,-4.027958 4.786931,-2.397462 -0.160966,-0.419472 -0.160967,-0.419476 -0.919337,-0.543065 -0.919338,-0.543066 h -1.594832 -1.594829 l -2.76063,0.8 -2.760634,0.8 -1.355165,9.6e-4 -1.355164,9.6e-4 -2.298234,-0.681165 -2.298234,-0.681168 -0.812528,0.203933 -0.812531,0.20393 -0.346963,0.64831 -0.346966,0.648311 0.188716,0.594585 0.188714,0.594589 1.102704,-0.338429 1.102704,-0.338429 1.68631,1.078468 1.686308,1.078467 2.038524,1.053286 2.038528,1.053287 h 0.445472 0.445472 l 4.786935,-2.39746 z m 12.698403,0.904125 -0.213334,-0.213331 v 0.426665 0.426666 l 0.213334,-0.213331 0.213331,-0.213335 z m 10.346666,0.05333 v -0.16 h -0.16 -0.16 v 0.16 0.16 h 0.16 0.16 z m -7.023165,-2.742115 1.9656,-2.582118 -0.111219,-0.11066 -0.111216,-0.110662 -0.803559,0.692778 -0.803558,0.692777 -0.854483,1.121418 -0.854487,1.121421 -0.334038,0.878579 -0.334035,0.878582 h 0.137699 0.137699 z m 17.831472,-3.891174 0.441619,-0.366509 0.775037,-1.529463 0.775037,-1.529462 v -0.17064 -0.170637 l -0.4,0.0038 -0.4,0.0038 -5.28,4.495709 -5.28,4.495706 -0.64,0.647062 -0.64,0.647062 5.103344,-3.07992 5.103344,-3.079923 0.441619,-0.366512 z m -17.466333,1.269472 1.668435,-1.523818 3.214797,-1.642218 3.214794,-1.64222 0.88,-0.615754 0.88,-0.615753 v -0.2321 -0.232101 l -1.315092,-0.351018 -1.315091,-0.351018 -0.625171,0.625169 -0.625168,0.625169 -2.633171,1.698682 -2.633168,1.698682 -1.48937,1.656534 -1.489369,1.656538 -0.6572,1.756525 -0.6572,1.756528 0.0058,0.387993 0.0058,0.387997 0.950972,-1.76 0.95097,-1.76 1.668438,-1.523817 z m -5.949878,2.078918 0.352092,-0.235101 0.367908,-0.698963 0.367904,-0.698963 -0.02435,-1.701037 -0.02435,-1.701037 -0.403904,-1.12 -0.403908,-1.12 -1.89175,-0.261776 -1.891747,-0.261774 -4.48,0.190869 -4.48,0.19087 -2.126074,0.447094 -2.126073,0.447095 -1.340471,0.683856 -1.34047,0.683856 0.186544,0.486128 0.186544,0.486125 v 1.57383 1.573827 l 1.04,-0.0079 1.04,-0.0079 1.92,-0.644131 1.92,-0.644134 2.258921,-0.337815 2.258919,-0.337811 1.22016,0.509814 1.22016,0.509815 h 0.120918 0.120922 V 37.909838 37.30716 l 0.72,-0.19295 0.72,-0.192954 0.693334,-0.0044 0.693331,-0.0044 0.161405,-0.4 0.161405,-0.4 0.02525,0.990403 0.02525,0.990403 -0.56,0.500423 -0.56,0.500419 -0.729456,0.109174 -0.729456,0.109178 0.507603,0.72 0.5076,0.72 1.981853,-0.0049 1.981856,-0.0049 0.352096,-0.235098 z M 48.881603,31.914375 v -0.14437 l -0.72,0.372379 -0.72,0.372379 -0.56,0.488477 -0.56,0.488477 v 0.297293 0.297292 l 1.28,-1.013779 1.28,-1.013779 z m 41.6,0.721025 v -0.117123 l -1.91728,-0.699075 -1.917277,-0.699075 -2.002723,0.227989 -2.00272,0.227988 0.32847,0.111033 0.32847,0.111033 2.87153,0.446183 2.87153,0.446183 0.72,0.03099 0.72,0.03099 z m -38.351159,-2.403307 0.208842,-0.19957 0.469449,-2.32 0.46945,-2.32 h -0.235136 -0.235136 l -0.855488,0.672926 -0.855485,0.672926 -0.944665,1.647074 -0.944666,1.647074 -0.0029,0.36955 -0.0029,0.36955 1.36,-0.16998 1.36,-0.169979 0.208842,-0.199571 z m 30.796922,-0.225742 0.194237,-0.506172 -0.01134,-0.533828 -0.01134,-0.533828 -0.457321,0.8 -0.457322,0.8 -0.01133,0.24 -0.01135,0.24 h 0.285763 0.285763 z m -1.504151,-1.20866 -0.158758,-0.413719 -1.711427,-0.685894 -1.711427,-0.685893 0.79519,0.550169 0.79519,0.550169 0.96481,0.857752 0.96481,0.857752 0.110185,-0.308309 0.110186,-0.308308 z m -6.25336,-2.331562 -0.528252,-0.390521 -0.265255,0.259711 -0.265251,0.25971 -0.173485,1.398747 -0.173485,1.398747 0.966989,-1.267937 0.966989,-1.267937 z"
         style="fill:#fdb301;stroke-width:0.32" />
      <path
         id="path985"
         d="m 70.776102,104.14917 -0.985501,-0.60095 -0.392477,-0.94752 -0.392473,-0.94752 -6.75362,-0.21033 -6.753619,-0.21033 h -2.789325 -2.789324 l -1.148804,0.48 -1.1488,0.48 -2.010278,-0.005 -2.010278,-0.005 -1.92,-0.4636 -1.92,-0.46361 -21.04,-0.0114 -21.0400004,-0.0114 v -13.279997 -13.28 H 3.416177 9.1507511 l 0.2074105,-1.04 0.2074106,-1.04 0.9704808,-3.2 0.97048,-3.2 1.53977,-3.268339 1.539771,-3.268339 1.827251,-2.811661 1.827251,-2.811661 2.223913,-2.648745 2.223914,-2.648746 2.776598,-2.428653 2.776602,-2.428653 2.820272,-1.858931 2.820268,-1.858931 2.666752,-1.321046 2.666752,-1.321047 2.988976,-1.067203 2.98898,-1.067206 0.207859,-1.016327 0.207862,-1.016323 0.726752,-0.773595 0.726752,-0.773594 0.589389,-0.187064 0.589386,-0.187064 0.0032,-0.378436 0.0032,-0.378436 0.817056,-1.76 0.817059,-1.76 0.859817,-0.909839 0.859815,-0.909839 1.44,-0.729416 1.44,-0.729416 3.04,-0.713419 3.04,-0.71342 2.351222,0.208848 2.351226,0.208848 1.713299,0.641028 1.713296,0.641026 1.541846,1.386251 1.541844,1.38625 0.447705,0.836549 0.447709,0.836549 h 0.265926 0.265927 l 0.0019,-0.4 0.0019,-0.4 0.333257,-1.2 0.333258,-1.2 h 0.564931 0.564928 l 2.700029,0.921182 2.700029,0.921182 0.902915,0.420624 0.902918,0.420624 0.244413,-0.395467 0.24441,-0.395468 2.532672,1.81731 2.532672,1.817309 2.32,0.83456 2.32,0.83456 -2.53e-4,0.321792 -2.53e-4,0.321792 -0.972134,1.92 -0.972135,1.92 -1.10704,2.08 -1.10704,2.08 -0.166595,0.511031 -0.166592,0.51103 2.371085,1.816106 2.371088,1.816105 3.330944,3.447735 3.330941,3.447737 2.012072,3.008074 2.01207,3.008077 1.25424,2.494566 1.25425,2.494566 0.96905,2.439447 0.96905,2.439446 0.75685,2.92304 0.75685,2.92304 4.99178,0.08813 4.99177,0.08813 v 13.271875 13.271872 h -17.8285 -17.82854 l -2.411459,1.2488 -2.411459,1.2488 -1.73808,0.5112 -1.73808,0.5112 -1.78192,-0.001 -1.78192,-0.001 -0.985501,-0.60095 z m 6.651238,-0.69879 1.965549,-0.66215 1.464358,-0.76295 1.464356,-0.76296 -6.488218,-0.0149 -6.488218,-0.0149 0.486391,0.94057 0.48639,0.94058 0.713027,0.49942 0.713031,0.49943 h 1.858893 1.858892 l 1.965549,-0.66215 z m -30.705737,-2.13216 -1.36,-0.1225 -1.36,0.1225 -1.36,0.12249 h 2.72 2.72 z m -15.360064,-30.301006 -3.791344,-3.655308 -0.837479,-1.544692 -0.837478,-1.544691 -0.488192,-1.92 -0.488195,-1.92 -0.215021,-1.956361 -0.21502,-1.956362 0.747599,-0.523638 0.747597,-0.523639 h 1.294515 1.294515 l 1.123034,0.76312 1.12303,0.76312 1.477568,0.501648 1.477568,0.501648 2.036458,0.354634 2.036457,0.354633 1.69914,-0.0994 1.699136,-0.0994 1.898089,-4.744077 1.898087,-4.744076 v -0.12609 -0.12609 l -1.68,-1.083049 -1.68,-1.083053 -0.608922,-0.686035 -0.608918,-0.686039 -0.542538,-1.602611 -0.542538,-1.602611 -1.888544,0.997328 -1.88854,0.997328 -2.704007,1.787446 -2.704006,1.787444 -3.411248,3.295692 -3.41125,3.295693 -2.116656,2.961399 -2.116657,2.961401 -1.755511,3.52 -1.755512,3.52 -0.927212,2.88 -0.927212,2.88 -0.211461,0.88 -0.211462,0.88 h 10.901737 10.901737 z m 27.373328,-0.922182 1.682457,-4.577488 -0.497702,-1.41063 -0.497699,-1.410631 -0.190941,-2.258851 -0.190944,-2.258851 0.514761,-0.427216 0.514762,-0.427213 1.206022,0.140003 1.20602,0.140003 0.427852,0.134183 0.427853,0.134182 1.0568,-3.005497 1.056797,-3.005498 -1.306154,-1.417011 -1.306153,-1.417011 -0.570087,1.111209 -0.570083,1.111213 -1.148403,0.70975 -1.148403,0.709751 -1.983498,0.159219 -1.983501,0.159216 -2.383126,-0.828771 -2.383123,-0.828768 -0.248487,0.391097 -0.248483,0.391101 -0.0049,2.108813 -0.0049,2.10881 -0.644221,2.518883 -0.644224,2.518883 -1.629427,3.692307 -1.62943,3.692304 -0.766349,2.332192 -0.766349,2.332189 v 0.627811 0.627808 h 6.485402 6.485405 l 1.682457,-4.577491 z m 3.11416,3.815782 0.469769,-0.469769 2.243616,0.634925 2.243613,0.634924 1.111139,-0.09919 1.111139,-0.09918 -2.216144,-1.76 -2.216147,-1.76 -1.831267,-2.31927 -1.831267,-2.319274 -0.08877,0.08877 -0.08877,0.08877 -1.414704,3.830503 -1.414704,3.830502 0.1608,0.27945 0.1608,0.279449 1.565561,-0.185417 1.565559,-0.185418 z m 42.892113,-0.366694 -0.21169,-1.128403 -0.79206,-2.471597 -0.79205,-2.471597 -1.90059,-3.84 -1.900603,-3.84 -2.277098,-3.04 -2.277101,-3.04 -1.654173,-1.718016 -1.654172,-1.718013 -2.3709,-1.905776 -2.370902,-1.905772 -0.377552,0.903788 -0.377555,0.903789 -0.214797,1.356688 -0.214797,1.356688 -0.664422,1.775824 -0.664419,1.775821 -1.25233,1.446954 -1.252326,1.44695 v 0.08449 0.08449 l 0.764793,2.216048 0.764797,2.216048 0.808394,1.44 0.808393,1.44 0.881981,2.88 0.881984,2.88 0.08229,1.92 0.08228,1.92 0.02253,0.08 0.02253,0.08 h 9.155613 9.155612 l -0.21169,-1.128403 z m -61.36628,0.0084 0.09948,-0.64 0.836028,-2.56 0.836026,-2.56 1.664256,-8.64 1.664256,-8.64 -1.156653,-0.551126 -1.156649,-0.551124 -0.254698,0.07602 -0.254698,0.07603 -1.120134,2.715101 -1.120138,2.715101 -1.105772,3.152717 -1.105776,3.152713 -0.626589,3.087287 -0.626589,3.087283 -0.221059,3.457408 -0.221059,3.457411 1.885145,-0.09741 1.885146,-0.09741 z m 21.826743,-8.402342 v -5.04233 l -1.52,-0.923955 -1.52,-0.923952 -1.12,-0.03372 -1.12,-0.03372 -0.09588,0.824307 -0.09588,0.824308 0.493818,2.368355 0.493814,2.368352 1.026957,1.447337 1.026957,1.447341 1.122874,1.36 1.12287,1.36 h 0.09224 0.09224 z m -35.52,-2.469453 v -5.591783 l -0.944109,-0.488217 -0.944109,-0.488218 h -0.75473 -0.754729 l -0.5692,0.416211 -0.569203,0.416208 0.51102,2.9612 0.511018,2.9612 0.475126,1.13714 0.47513,1.137136 1.149146,1.565452 1.149148,1.565453 h 0.132746 0.132746 z m 46.027049,-0.05698 0.747053,-0.200028 -0.367904,-0.227376 -0.367904,-0.227376 -0.398547,-1.562311 -0.398551,-1.56231 -1.197504,-0.455776 -1.197507,-0.455773 -0.863091,0.698675 -0.863094,0.698672 -1.064634,0.48577 -1.06463,0.485773 -1.17537,-0.574589 -1.175366,-0.574586 -0.506048,-1.524813 -0.506052,-1.524812 -0.485308,0.564812 -0.485312,0.564813 -0.194224,0.548608 -0.194228,0.548608 2.625588,1.882173 2.625584,1.882173 0.64,0.359488 0.64,0.359488 2.24,0.0054 2.24,0.0054 0.747049,-0.200026 z m 3.29377,-1.311235 0.439181,-0.56 -0.56,0.439181 -0.56,0.439184 v 0.120816 0.120819 h 0.120819 0.120816 z m -0.212311,-1.250166 1.137828,-1.490163 -0.128218,-0.128218 -0.128218,-0.128218 -1.79495,1.148215 -1.79495,1.148217 v 0.256832 0.256836 l 0.213334,0.213331 0.213331,0.213334 h 0.57201 0.572009 z m 0.145856,-2.173658 2.763684,-1.743827 0.673545,-0.736173 0.673543,-0.736176 0.567004,-1.12 0.567002,-1.12 -1.692166,1.851472 -1.692167,1.851475 -1.317405,0.760823 -1.317404,0.760819 -1.36,0.398358 -1.36,0.398359 v 0.08317 0.08318 l 0.194236,0.506169 0.194237,0.506173 h 0.171104 0.171104 z m 2.270311,-3.351856 1.764675,-1.78432 1.026438,-2.08 1.026439,-2.08 1.264368,-3.585021 1.264368,-3.58502 -4.10641,2.735478 -4.106409,2.735478 -1.761466,4.849543 -1.761466,4.849542 -0.217689,0.549175 -0.21769,0.549177 2.030083,-0.684857 2.030084,-0.684855 z m -8.612647,-5.183443 2.367972,-1.076816 2.08,-1.067507 2.08,-1.067507 4.575366,-3.064272 4.575366,-3.064272 0.34186,-0.638772 0.341862,-0.638774 -0.437229,0.169523 -0.437225,0.16952 -7.320295,4.347923 -7.320294,4.34792 -1.319706,0.473748 -1.319705,0.47375 -1.795351,0.493286 -1.795347,0.49329 -0.962445,2.164042 -0.962445,2.164041 -0.245856,0.8 -0.245859,0.8 2.71568,-2.601155 2.715683,-2.601152 z m -12.819833,2.199123 1.427805,-0.72 0.589241,-1.206045 0.589245,-1.206044 -0.351699,-2.633956 -0.351696,-2.633955 -0.329843,-1.190064 -0.329844,-1.190061 -0.811062,-0.963894 -0.811062,-0.963894 -1.260519,-0.339421 -1.260515,-0.339421 -1.896739,0.343942 -1.896736,0.343946 -1.829482,0.629434 -1.829481,0.629433 h -0.996336 -0.996336 l -2.309517,-0.64 -2.309517,-0.64 h -0.858854 -0.858855 l -0.585197,0.529597 -0.585196,0.529597 v 0.895325 0.895328 l 1.52,-0.168746 1.52,-0.168746 2.535232,1.616452 2.535232,1.616448 1.624768,0.552112 1.624768,0.552112 3.2,0.01526 3.2,0.01526 1.68,-0.251021 1.68,-0.251024 v 0.311414 0.311415 l -1.52,0.259609 -1.52,0.259607 h -3.36 -3.36 l -2.08,-0.760666 -2.08,-0.760662 -2.096538,-1.399338 -2.096541,-1.399334 h -0.984278 -0.984279 l -0.382988,0.461472 -0.382986,0.461472 0.539341,1.136579 0.539344,1.136582 1.099827,0.965661 1.09983,0.965664 2.144634,1.077584 2.144634,1.077587 3.04,1.285328 3.04,1.285331 0.64,0.15625 0.64,0.15625 1.612195,0.03712 1.612195,0.03712 1.427805,-0.72 z m 8.521139,-7.813334 -0.213334,-0.213331 v 0.426665 0.426666 l 0.213334,-0.213331 0.213331,-0.213335 z m 10.346666,0.05333 v -0.16 h -0.16 -0.16 v 0.16 0.16 h 0.16 0.16 z m -7.023165,-2.742115 1.9656,-2.582118 -0.111219,-0.11066 -0.111216,-0.110662 -0.803559,0.692778 -0.803558,0.692777 -0.854483,1.121418 -0.854487,1.121421 -0.334038,0.878579 -0.334035,0.878582 h 0.137699 0.137699 z m 17.831472,-3.891174 0.441619,-0.366509 0.775037,-1.529463 0.775037,-1.529462 v -0.17064 -0.170637 l -0.4,0.0038 -0.4,0.0038 -5.28,4.495709 -5.28,4.495706 -0.64,0.647062 -0.64,0.647062 5.103344,-3.07992 5.103344,-3.079923 0.441619,-0.366512 z m -17.466333,1.269472 1.668435,-1.523818 3.214797,-1.642218 3.214794,-1.64222 0.88,-0.615754 0.88,-0.615753 v -0.2321 -0.232101 l -1.315092,-0.351018 -1.315091,-0.351018 -0.625171,0.625169 -0.625168,0.625169 -2.633171,1.698682 -2.633168,1.698682 -1.48937,1.656534 -1.489369,1.656538 -0.6572,1.756525 -0.6572,1.756528 0.0058,0.387993 0.0058,0.387997 0.950972,-1.76 0.95097,-1.76 1.668438,-1.523817 z m -5.949878,2.078918 0.352092,-0.235101 0.367908,-0.698963 0.367904,-0.698963 -0.02435,-1.701037 -0.02435,-1.701037 -0.403904,-1.12 -0.403908,-1.12 -1.89175,-0.261776 -1.891747,-0.261774 -4.48,0.190869 -4.48,0.19087 -2.126074,0.447094 -2.126073,0.447095 -1.340471,0.683856 -1.34047,0.683856 0.186544,0.486128 0.186544,0.486125 v 1.57383 1.573827 l 1.04,-0.0079 1.04,-0.0079 1.92,-0.644131 1.92,-0.644134 2.258921,-0.337815 2.258919,-0.337811 1.22016,0.509814 1.22016,0.509815 h 0.120918 0.120922 V 37.909838 37.30716 l 0.72,-0.19295 0.72,-0.192954 0.693334,-0.0044 0.693331,-0.0044 0.161405,-0.4 0.161405,-0.4 0.02525,0.990403 0.02525,0.990403 -0.56,0.500423 -0.56,0.500419 -0.729456,0.109174 -0.729456,0.109178 0.507603,0.72 0.5076,0.72 1.981853,-0.0049 1.981856,-0.0049 0.352096,-0.235098 z M 48.881603,31.914375 v -0.14437 l -0.72,0.372379 -0.72,0.372379 -0.56,0.488477 -0.56,0.488477 v 0.297293 0.297292 l 1.28,-1.013779 1.28,-1.013779 z m 41.6,0.721025 v -0.117123 l -1.91728,-0.699075 -1.917277,-0.699075 -2.002723,0.227989 -2.00272,0.227988 0.32847,0.111033 0.32847,0.111033 2.87153,0.446183 2.87153,0.446183 0.72,0.03099 0.72,0.03099 z m -38.351159,-2.403307 0.208842,-0.19957 0.469449,-2.32 0.46945,-2.32 h -0.235136 -0.235136 l -0.855488,0.672926 -0.855485,0.672926 -0.944665,1.647074 -0.944666,1.647074 -0.0029,0.36955 -0.0029,0.36955 1.36,-0.16998 1.36,-0.169979 0.208842,-0.199571 z m 30.796922,-0.225742 0.194237,-0.506172 -0.01134,-0.533828 -0.01134,-0.533828 -0.457321,0.8 -0.457322,0.8 -0.01133,0.24 -0.01135,0.24 h 0.285763 0.285763 z m -1.504151,-1.20866 -0.158758,-0.413719 -1.711427,-0.685894 -1.711427,-0.685893 0.79519,0.550169 0.79519,0.550169 0.96481,0.857752 0.96481,0.857752 0.110185,-0.308309 0.110186,-0.308308 z m -6.25336,-2.331562 -0.528252,-0.390521 -0.265255,0.259711 -0.265251,0.25971 -0.173485,1.398747 -0.173485,1.398747 0.966989,-1.267937 0.966989,-1.267937 z"
         style="fill:#2895d4;stroke-width:0.32" />
      <path
         id="path983"
         d="m 70.776102,104.14917 -0.985501,-0.60095 -0.392477,-0.94752 -0.392473,-0.94752 -6.75362,-0.21033 -6.753619,-0.21033 h -2.789325 -2.789324 l -1.148804,0.48 -1.1488,0.48 -2.010278,-0.005 -2.010278,-0.005 -1.92,-0.4636 -1.92,-0.46361 -21.04,-0.0114 -21.0400004,-0.0114 v -13.279997 -13.28 H 3.416177 9.1507511 l 0.2074105,-1.04 0.2074106,-1.04 0.9704808,-3.2 0.97048,-3.2 1.53977,-3.268339 1.539771,-3.268339 1.827251,-2.811661 1.827251,-2.811661 2.223913,-2.648745 2.223914,-2.648746 2.776598,-2.428653 2.776602,-2.428653 2.820272,-1.858931 2.820268,-1.858931 2.666752,-1.321046 2.666752,-1.321047 2.988976,-1.067203 2.98898,-1.067206 0.207859,-1.016327 0.207862,-1.016323 0.726752,-0.773595 0.726752,-0.773594 0.589389,-0.187064 0.589386,-0.187064 0.0032,-0.378436 0.0032,-0.378436 0.817056,-1.76 0.817059,-1.76 0.859817,-0.909839 0.859815,-0.909839 1.44,-0.729416 1.44,-0.729416 3.04,-0.713419 3.04,-0.71342 2.351222,0.208848 2.351226,0.208848 1.713299,0.641028 1.713296,0.641026 1.541846,1.386251 1.541844,1.38625 0.447705,0.836549 0.447709,0.836549 h 0.265926 0.265927 l 0.0019,-0.4 0.0019,-0.4 0.333257,-1.2 0.333258,-1.2 h 0.564931 0.564928 l 2.700029,0.921182 2.700029,0.921182 0.902915,0.420624 0.902918,0.420624 0.244413,-0.395467 0.24441,-0.395468 2.532672,1.81731 2.532672,1.817309 2.32,0.83456 2.32,0.83456 -2.53e-4,0.321792 -2.53e-4,0.321792 -0.972134,1.92 -0.972135,1.92 -1.10704,2.08 -1.10704,2.08 -0.166595,0.511031 -0.166592,0.51103 2.371085,1.816106 2.371088,1.816105 3.330944,3.447735 3.330941,3.447737 2.012072,3.008074 2.01207,3.008077 1.25424,2.494566 1.25425,2.494566 0.96905,2.439447 0.96905,2.439446 0.75685,2.92304 0.75685,2.92304 4.99178,0.08813 4.99177,0.08813 v 13.271875 13.271872 h -17.8285 -17.82854 l -2.411459,1.2488 -2.411459,1.2488 -1.73808,0.5112 -1.73808,0.5112 -1.78192,-0.001 -1.78192,-0.001 -0.985501,-0.60095 z m 6.651238,-0.69879 1.965549,-0.66215 1.464358,-0.76295 1.464356,-0.76296 -6.488218,-0.0149 -6.488218,-0.0149 0.486391,0.94057 0.48639,0.94058 0.713027,0.49942 0.713031,0.49943 h 1.858893 1.858892 l 1.965549,-0.66215 z m -30.705737,-2.13216 -1.36,-0.1225 -1.36,0.1225 -1.36,0.12249 h 2.72 2.72 z m 29.040755,-6.657018 0.800755,-0.403156 0.54704,-0.604473 0.54704,-0.604474 0.474426,-1.135453 0.474422,-1.135456 -1.690346,-0.532832 -1.690342,-0.532835 h -0.211875 -0.211875 v 0.494544 0.494547 l -0.785456,0.785453 -0.785453,0.785456 H 72.241603 71.252511 L 70.467059,91.487067 69.681603,90.701614 V 88.58603 86.47045 l 0.345196,-0.645005 0.345194,-0.645005 1.000979,-0.42088 1.000976,-0.42088 0.813827,0.303354 0.813828,0.303353 0.492384,0.638163 0.492384,0.63816 1.303488,-0.208435 1.303488,-0.208435 0.394304,-0.243696 0.394304,-0.243693 -0.477415,-0.923219 -0.477414,-0.923219 -0.651578,-0.589671 -0.651581,-0.58967 -1.22118,-0.43553 -1.221184,-0.435526 -1.28,-0.01226 -1.28,-0.01226 -1.208746,0.335674 -1.208749,0.33567 -1.09048,0.957456 -1.090483,0.957456 -0.543843,1.424035 -0.543847,1.424039 0.160324,2.240707 0.160323,2.240707 0.842147,1.272573 0.842147,1.272569 0.797133,0.522304 0.797136,0.522301 1.683469,0.224634 1.683469,0.22463 1.28,-0.143245 1.28,-0.143244 0.800755,-0.403156 z m 30.441122,-0.02128 0.84189,-0.424426 0.83811,-0.996045 0.83812,-0.996045 V 91.95413 91.684853 l 0.18247,-0.475514 0.18248,-0.475513 -1.68166,-0.492964 -1.68166,-0.492963 -0.26081,0.161191 -0.26082,0.16119 v 0.400778 0.400774 l -0.65246,0.700339 -0.65247,0.700339 h -0.92136 -0.92136 l -0.51801,-0.198777 -0.51801,-0.198778 -0.46816,-0.905331 -0.46817,-0.905318 v -1.631783 -1.631782 l 0.48582,-0.939472 0.48582,-0.939475 0.87418,-0.229562 0.87418,-0.229562 0.64,0.0825 0.64,0.0825 0.70465,0.782423 0.70465,0.782422 0.41535,-0.0019 0.41535,-0.0019 1.2,-0.333257 1.2,-0.333258 V 85.015106 84.50804 l -1.36,-1.357923 -1.36,-1.35792 -1.6738,-0.229149 -1.67379,-0.229146 -1.36621,0.227015 -1.366197,0.227014 -0.841882,0.430666 -0.841885,0.430669 -0.814765,0.968291 -0.814764,0.968294 -0.370455,1.784471 -0.370454,1.784467 0.214032,1.556211 0.214035,1.556211 0.816448,1.259149 0.816448,1.259152 0.996621,0.593757 0.996621,0.593757 1.439997,0.185939 1.44,0.185942 1.28,-0.140413 1.28,-0.140409 0.84188,-0.424423 z M 19.761603,93.563717 v -1.588803 l -3.28,-0.0912 -3.28,-0.09119 -0.08813,-5.04 -0.08813,-5.04 H 11.113477 9.2016026 v 6.72 6.72 h 5.2800004 5.28 z m 5.44,-3.211194 v -4.8 h -1.76 -1.76 v 4.8 4.8 h 1.76 1.76 z m 6.4,1.664 v -3.136 l 0.384,-0.384 0.384,-0.384 h 0.724742 0.724739 l 0.331261,0.618963 0.331258,0.618964 v 2.901036 2.901037 h 1.76 1.76 v -4.024614 -4.024618 l -0.935386,-0.935382 -0.935382,-0.935386 h -1.440064 -1.440064 l -0.984551,0.828445 -0.984553,0.828448 v -0.668448 -0.668445 h -1.76 -1.76 v 4.8 4.8 h 1.92 1.92 z m 14.487318,2.496 0.813629,-0.64 h 0.189526 0.189527 v 0.64 0.64 h 1.76 1.76 v -4.8 -4.8 h -1.92 -1.92 v 2.934803 2.934804 l -0.529597,0.585196 -0.529597,0.585197 H 45.494863 45.087318 L 44.58446,92.089666 44.081603,91.586808 v -3.017142 -3.017143 h -1.76 -1.76 v 4.014544 4.014547 l 0.785456,0.785453 0.785452,0.785456 h 1.571392 1.571389 z m 11.062093,-1.00648 1.069414,-1.634982 0.937059,1.640729 0.937063,1.640733 h 2.092413 2.092409 l -0.234112,-0.4 -0.234112,-0.4 -1.384771,-1.960637 -1.384774,-1.960636 v -0.382023 -0.382019 l 1.468089,-2.057344 1.46809,-2.057341 -2.02809,0.0022 -2.028089,0.0022 -0.83938,1.313543 -0.839382,1.313539 -0.739542,-1.315843 -0.739546,-1.315844 h -2.18464 -2.18464 l 1.627395,2.237463 1.627392,2.237462 -1.805869,2.562538 -1.805868,2.562537 2.022038,-0.0058 2.022042,-0.0058 1.069411,-1.634982 z m 27.320432,-2.11352 0.09016,-3.76 2.56,3.746855 2.56,3.746851 2,0.01315 2,0.01315 v -6.72 -6.72 h -1.909844 -1.909846 l -0.09015,3.720582 -0.09016,3.720573 -2.540263,-3.720582 -2.540262,-3.720583 H 82.74134 80.881603 v 6.72 6.72 h 1.749843 1.749846 z m -59.269843,-8.56 v -1.12 h -1.76 -1.76 v 1.12 1.12 h 1.76 1.76 z m 6.159936,-11.815309 -3.791344,-3.655308 -0.837479,-1.544692 -0.837478,-1.544691 -0.488192,-1.92 -0.488195,-1.92 -0.215021,-1.956361 -0.21502,-1.956362 0.747599,-0.523638 0.747597,-0.523639 h 1.294515 1.294515 l 1.123034,0.76312 1.12303,0.76312 1.477568,0.501648 1.477568,0.501648 2.036458,0.354634 2.036457,0.354633 1.69914,-0.0994 1.699136,-0.0994 1.898089,-4.744077 1.898087,-4.744076 v -0.12609 -0.12609 l -1.68,-1.083049 -1.68,-1.083053 -0.608922,-0.686035 -0.608918,-0.686039 -0.542538,-1.602611 -0.542538,-1.602611 -1.888544,0.997328 -1.88854,0.997328 -2.704007,1.787446 -2.704006,1.787444 -3.411248,3.295692 -3.41125,3.295693 -2.116656,2.961399 -2.116657,2.961401 -1.755511,3.52 -1.755512,3.52 -0.927212,2.88 -0.927212,2.88 -0.211461,0.88 -0.211462,0.88 h 10.901737 10.901737 z m 27.373328,-0.922182 1.682457,-4.577488 -0.497702,-1.41063 -0.497699,-1.410631 -0.190941,-2.258851 -0.190944,-2.258851 0.514761,-0.427216 0.514762,-0.427213 1.206022,0.140003 1.20602,0.140003 0.427852,0.134183 0.427853,0.134182 1.0568,-3.005497 1.056797,-3.005498 -1.306154,-1.417011 -1.306153,-1.417011 -0.570087,1.111209 -0.570083,1.111213 -1.148403,0.70975 -1.148403,0.709751 -1.983498,0.159219 -1.983501,0.159216 -2.383126,-0.828771 -2.383123,-0.828768 -0.248487,0.391097 -0.248483,0.391101 -0.0049,2.108813 -0.0049,2.10881 -0.644221,2.518883 -0.644224,2.518883 -1.629427,3.692307 -1.62943,3.692304 -0.766349,2.332192 -0.766349,2.332189 v 0.627811 0.627808 h 6.485402 6.485405 l 1.682457,-4.577491 z m 3.11416,3.815782 0.469769,-0.469769 2.243616,0.634925 2.243613,0.634924 1.111139,-0.09919 1.111139,-0.09918 -2.216144,-1.76 -2.216147,-1.76 -1.831267,-2.31927 -1.831267,-2.319274 -0.08877,0.08877 -0.08877,0.08877 -1.414704,3.830503 -1.414704,3.830502 0.1608,0.27945 0.1608,0.279449 1.565561,-0.185417 1.565559,-0.185418 z m 42.892113,-0.366694 -0.21169,-1.128403 -0.79206,-2.471597 -0.79205,-2.471597 -1.90059,-3.84 -1.900603,-3.84 -2.277098,-3.04 -2.277101,-3.04 -1.654173,-1.718016 -1.654172,-1.718013 -2.3709,-1.905776 -2.370902,-1.905772 -0.377552,0.903788 -0.377555,0.903789 -0.214797,1.356688 -0.214797,1.356688 -0.664422,1.775824 -0.664419,1.775821 -1.25233,1.446954 -1.252326,1.44695 v 0.08449 0.08449 l 0.764793,2.216048 0.764797,2.216048 0.808394,1.44 0.808393,1.44 0.881981,2.88 0.881984,2.88 0.08229,1.92 0.08228,1.92 0.02253,0.08 0.02253,0.08 h 9.155613 9.155612 l -0.21169,-1.128403 z m -61.36628,0.0084 0.09948,-0.64 0.836028,-2.56 0.836026,-2.56 1.664256,-8.64 1.664256,-8.64 -1.156653,-0.551126 -1.156649,-0.551124 -0.254698,0.07602 -0.254698,0.07603 -1.120134,2.715101 -1.120138,2.715101 -1.105772,3.152717 -1.105776,3.152713 -0.626589,3.087287 -0.626589,3.087283 -0.221059,3.457408 -0.221059,3.457411 1.885145,-0.09741 1.885146,-0.09741 z m 21.826743,-8.402342 v -5.04233 l -1.52,-0.923955 -1.52,-0.923952 -1.12,-0.03372 -1.12,-0.03372 -0.09588,0.824307 -0.09588,0.824308 0.493818,2.368355 0.493814,2.368352 1.026957,1.447337 1.026957,1.447341 1.122874,1.36 1.12287,1.36 h 0.09224 0.09224 z m -35.52,-2.469453 v -5.591783 l -0.944109,-0.488217 -0.944109,-0.488218 h -0.75473 -0.754729 l -0.5692,0.416211 -0.569203,0.416208 0.51102,2.9612 0.511018,2.9612 0.475126,1.13714 0.47513,1.137136 1.149146,1.565452 1.149148,1.565453 h 0.132746 0.132746 z m 46.027049,-0.05698 0.747053,-0.200028 -0.367904,-0.227376 -0.367904,-0.227376 -0.398547,-1.562311 -0.398551,-1.56231 -1.197504,-0.455776 -1.197507,-0.455773 -0.863091,0.698675 -0.863094,0.698672 -1.064634,0.48577 -1.06463,0.485773 -1.17537,-0.574589 -1.175366,-0.574586 -0.506048,-1.524813 -0.506052,-1.524812 -0.485308,0.564812 -0.485312,0.564813 -0.194224,0.548608 -0.194228,0.548608 2.625588,1.882173 2.625584,1.882173 0.64,0.359488 0.64,0.359488 2.24,0.0054 2.24,0.0054 0.747049,-0.200026 z m 3.29377,-1.311235 0.439181,-0.56 -0.56,0.439181 -0.56,0.439184 v 0.120816 0.120819 h 0.120819 0.120816 z m -0.212311,-1.250166 1.137828,-1.490163 -0.128218,-0.128218 -0.128218,-0.128218 -1.79495,1.148215 -1.79495,1.148217 v 0.256832 0.256836 l 0.213334,0.213331 0.213331,0.213334 h 0.57201 0.572009 z m 0.145856,-2.173658 2.763684,-1.743827 0.673545,-0.736173 0.673543,-0.736176 0.567004,-1.12 0.567002,-1.12 -1.692166,1.851472 -1.692167,1.851475 -1.317405,0.760823 -1.317404,0.760819 -1.36,0.398358 -1.36,0.398359 v 0.08317 0.08318 l 0.194236,0.506169 0.194237,0.506173 h 0.171104 0.171104 z m 2.270311,-3.351856 1.764675,-1.78432 1.026438,-2.08 1.026439,-2.08 1.264368,-3.585021 1.264368,-3.58502 -4.10641,2.735478 -4.106409,2.735478 -1.761466,4.849543 -1.761466,4.849542 -0.217689,0.549175 -0.21769,0.549177 2.030083,-0.684857 2.030084,-0.684855 z m -8.612647,-5.183443 2.367972,-1.076816 2.08,-1.067507 2.08,-1.067507 4.575366,-3.064272 4.575366,-3.064272 0.34186,-0.638772 0.341862,-0.638774 -0.437229,0.169523 -0.437225,0.16952 -7.320295,4.347923 -7.320294,4.34792 -1.319706,0.473748 -1.319705,0.47375 -1.795351,0.493286 -1.795347,0.49329 -0.962445,2.164042 -0.962445,2.164041 -0.245856,0.8 -0.245859,0.8 2.71568,-2.601155 2.715683,-2.601152 z m -12.819833,2.199123 1.427805,-0.72 0.589241,-1.206045 0.589245,-1.206044 -0.351699,-2.633956 -0.351696,-2.633955 -0.329843,-1.190064 -0.329844,-1.190061 -0.811062,-0.963894 -0.811062,-0.963894 -1.260519,-0.339421 -1.260515,-0.339421 -1.896739,0.343942 -1.896736,0.343946 -1.829482,0.629434 -1.829481,0.629433 h -0.996336 -0.996336 l -2.309517,-0.64 -2.309517,-0.64 h -0.858854 -0.858855 l -0.585197,0.529597 -0.585196,0.529597 v 0.895325 0.895328 l 1.52,-0.168746 1.52,-0.168746 2.535232,1.616452 2.535232,1.616448 1.624768,0.552112 1.624768,0.552112 3.2,0.01526 3.2,0.01526 1.68,-0.251021 1.68,-0.251024 v 0.311414 0.311415 l -1.52,0.259609 -1.52,0.259607 h -3.36 -3.36 l -2.08,-0.760666 -2.08,-0.760662 -2.096538,-1.399338 -2.096541,-1.399334 h -0.984278 -0.984279 l -0.382988,0.461472 -0.382986,0.461472 0.539341,1.136579 0.539344,1.136582 1.099827,0.965661 1.09983,0.965664 2.144634,1.077584 2.144634,1.077587 3.04,1.285328 3.04,1.285331 0.64,0.15625 0.64,0.15625 1.612195,0.03712 1.612195,0.03712 1.427805,-0.72 z m 8.521139,-7.813334 -0.213334,-0.213331 v 0.426665 0.426666 l 0.213334,-0.213331 0.213331,-0.213335 z m 10.346666,0.05333 v -0.16 h -0.16 -0.16 v 0.16 0.16 h 0.16 0.16 z m -7.023165,-2.742115 1.9656,-2.582118 -0.111219,-0.11066 -0.111216,-0.110662 -0.803559,0.692778 -0.803558,0.692777 -0.854483,1.121418 -0.854487,1.121421 -0.334038,0.878579 -0.334035,0.878582 h 0.137699 0.137699 z m 17.831472,-3.891174 0.441619,-0.366509 0.775037,-1.529463 0.775037,-1.529462 v -0.17064 -0.170637 l -0.4,0.0038 -0.4,0.0038 -5.28,4.495709 -5.28,4.495706 -0.64,0.647062 -0.64,0.647062 5.103344,-3.07992 5.103344,-3.079923 0.441619,-0.366512 z m -17.466333,1.269472 1.668435,-1.523818 3.214797,-1.642218 3.214794,-1.64222 0.88,-0.615754 0.88,-0.615753 v -0.2321 -0.232101 l -1.315092,-0.351018 -1.315091,-0.351018 -0.625171,0.625169 -0.625168,0.625169 -2.633171,1.698682 -2.633168,1.698682 -1.48937,1.656534 -1.489369,1.656538 -0.6572,1.756525 -0.6572,1.756528 0.0058,0.387993 0.0058,0.387997 0.950972,-1.76 0.95097,-1.76 1.668438,-1.523817 z m -5.949878,2.078918 0.352092,-0.235101 0.367908,-0.698963 0.367904,-0.698963 -0.02435,-1.701037 -0.02435,-1.701037 -0.403904,-1.12 -0.403908,-1.12 -1.89175,-0.261776 -1.891747,-0.261774 -4.48,0.190869 -4.48,0.19087 -2.126074,0.447094 -2.126073,0.447095 -1.340471,0.683856 -1.34047,0.683856 0.186544,0.486128 0.186544,0.486125 v 1.57383 1.573827 l 1.04,-0.0079 1.04,-0.0079 1.92,-0.644131 1.92,-0.644134 2.258921,-0.337815 2.258919,-0.337811 1.22016,0.509814 1.22016,0.509815 h 0.120918 0.120922 V 37.909838 37.30716 l 0.72,-0.19295 0.72,-0.192954 0.693334,-0.0044 0.693331,-0.0044 0.161405,-0.4 0.161405,-0.4 0.02525,0.990403 0.02525,0.990403 -0.56,0.500423 -0.56,0.500419 -0.729456,0.109174 -0.729456,0.109178 0.507603,0.72 0.5076,0.72 1.981853,-0.0049 1.981856,-0.0049 0.352096,-0.235098 z M 48.881603,31.914375 v -0.14437 l -0.72,0.372379 -0.72,0.372379 -0.56,0.488477 -0.56,0.488477 v 0.297293 0.297292 l 1.28,-1.013779 1.28,-1.013779 z m 41.6,0.721025 v -0.117123 l -1.91728,-0.699075 -1.917277,-0.699075 -2.002723,0.227989 -2.00272,0.227988 0.32847,0.111033 0.32847,0.111033 2.87153,0.446183 2.87153,0.446183 0.72,0.03099 0.72,0.03099 z m -38.351159,-2.403307 0.208842,-0.19957 0.469449,-2.32 0.46945,-2.32 h -0.235136 -0.235136 l -0.855488,0.672926 -0.855485,0.672926 -0.944665,1.647074 -0.944666,1.647074 -0.0029,0.36955 -0.0029,0.36955 1.36,-0.16998 1.36,-0.169979 0.208842,-0.199571 z m 30.796922,-0.225742 0.194237,-0.506172 -0.01134,-0.533828 -0.01134,-0.533828 -0.457321,0.8 -0.457322,0.8 -0.01133,0.24 -0.01135,0.24 h 0.285763 0.285763 z m -1.504151,-1.20866 -0.158758,-0.413719 -1.711427,-0.685894 -1.711427,-0.685893 0.79519,0.550169 0.79519,0.550169 0.96481,0.857752 0.96481,0.857752 0.110185,-0.308309 0.110186,-0.308308 z m -6.25336,-2.331562 -0.528252,-0.390521 -0.265255,0.259711 -0.265251,0.25971 -0.173485,1.398747 -0.173485,1.398747 0.966989,-1.267937 0.966989,-1.267937 z"
         style="fill:#6a6a6a;stroke-width:0.32" />
      <path
         id="path981"
         d="m 71.601603,104.52653 -0.48,-0.17547 -0.750404,-0.67927 -0.750406,-0.67927 -0.447578,-0.8602 -0.447577,-0.86021 -1.172215,0.19022 -1.172211,0.19022 -7.88295,-0.4128 -7.882954,-0.4128 -1.078739,0.55784 -1.078742,0.55783 -1.794845,0.16275 -1.794845,0.16276 -3.542755,-0.67781 -3.542755,-0.6778 H 17.732115 -2.3183974 v -13.119997 -13.12 H 3.435506 9.1894093 l 0.1939091,-0.88 0.1939088,-0.88 0.9340308,-3.095949 0.93403,-3.095948 1.139507,-2.664052 1.139507,-2.664051 1.631069,-2.72 1.631069,-2.72 1.826178,-2.406717 1.826177,-2.40672 2.041404,-2.092092 2.041404,-2.092093 2.08,-1.717511 2.08,-1.717507 2.582336,-1.686256 2.582339,-1.686256 2.986003,-1.453318 2.986003,-1.453319 2.671658,-0.870064 2.671661,-0.870064 v -0.589932 -0.589933 l 0.485417,-0.938691 0.485415,-0.938694 0.926828,-0.479281 0.926829,-0.479282 0.525799,-1.58303 0.525798,-1.583032 0.928464,-1.281708 0.928464,-1.281708 1.373494,-0.798917 1.373492,-0.798916 2.72,-0.692514 2.72,-0.692513 3.36,0.114561 3.36,0.114562 2.08,1.138346 2.08,1.138348 1.44,1.797346 1.44,1.797347 0.377408,-1.461629 0.377408,-1.461629 0.314294,-0.314295 0.314294,-0.314295 2.668298,0.885111 2.668298,0.885111 1.36,0.57922 1.36,0.57922 v -0.480551 -0.480552 l 1.950339,1.371924 1.950336,1.371923 1.048915,0.64 1.048915,0.64 1.880749,0.62037 1.880746,0.620369 0.08342,0.04971 0.08342,0.04971 -0.478506,1.356233 -0.478509,1.356237 -0.964909,1.429725 -0.964908,1.429721 -0.01,0.383959 -0.01,0.383958 -0.788375,1.28 -0.788371,1.28 0.0066,0.48 0.0066,0.48 1.67175,1.116589 1.671748,1.116586 3.856656,3.843414 3.856659,3.843411 2.313142,3.471754 2.31313,3.471757 1.4282,2.975699 1.4282,2.975702 1.10688,3.312544 1.10688,3.312544 0.21602,1.36 0.21603,1.36 h 5.0791 5.0791 v 13.12 13.119995 h -17.5466 -17.546597 l -2.373402,1.24613 -2.373398,1.24613 -2.193709,0.67387 -2.193706,0.67387 -1.486294,-0.0253 -1.486291,-0.0252 -0.48,-0.17547 z m 4.402579,-0.57562 2.002576,-0.47216 2.157424,-1.10738 2.157421,-1.10737 -6.488218,-0.0157 -6.488218,-0.0157 0.467117,0.90331 0.46712,0.90331 0.48064,0.39889 0.48064,0.3989 0.900461,0.27029 0.900458,0.27029 0.48,0.0228 0.48,0.0228 2.002579,-0.47216 z m -28.562579,-2.39839 0.96,-0.24428 -3.04,0.008 -3.04,0.008 1.28,0.22918 1.28,0.22918 0.8,0.008 0.8,0.008 0.96,-0.24427 z m 28.320755,-6.891318 0.800755,-0.403156 0.54704,-0.604473 0.54704,-0.604474 0.474426,-1.135453 0.474422,-1.135456 -1.690346,-0.532832 -1.690342,-0.532835 h -0.211875 -0.211875 v 0.494544 0.494547 l -0.785456,0.785453 -0.785453,0.785456 H 72.241603 71.252511 L 70.467059,91.487067 69.681603,90.701614 V 88.58603 86.47045 l 0.345196,-0.645005 0.345194,-0.645005 1.000979,-0.42088 1.000976,-0.42088 0.813827,0.303354 0.813828,0.303353 0.492384,0.638163 0.492384,0.63816 1.303488,-0.208435 1.303488,-0.208435 0.394304,-0.243696 0.394304,-0.243693 -0.477415,-0.923219 -0.477414,-0.923219 -0.651578,-0.589671 -0.651581,-0.58967 -1.22118,-0.43553 -1.221184,-0.435526 -1.28,-0.01226 -1.28,-0.01226 -1.208746,0.335674 -1.208749,0.33567 -1.09048,0.957456 -1.090483,0.957456 -0.543843,1.424035 -0.543847,1.424039 0.160324,2.240707 0.160323,2.240707 0.842147,1.272573 0.842147,1.272569 0.797133,0.522304 0.797136,0.522301 1.683469,0.224634 1.683469,0.22463 1.28,-0.143245 1.28,-0.143244 0.800755,-0.403156 z m 30.441122,-0.02128 0.84189,-0.424426 0.83811,-0.996045 0.83812,-0.996045 V 91.95413 91.684853 l 0.18247,-0.475514 0.18248,-0.475513 -1.68166,-0.492964 -1.68166,-0.492963 -0.26081,0.161191 -0.26082,0.16119 v 0.400778 0.400774 l -0.65246,0.700339 -0.65247,0.700339 h -0.92136 -0.92136 l -0.51801,-0.198777 -0.51801,-0.198778 -0.46816,-0.905331 -0.46817,-0.905318 v -1.631783 -1.631782 l 0.48582,-0.939472 0.48582,-0.939475 0.87418,-0.229562 0.87418,-0.229562 0.64,0.0825 0.64,0.0825 0.70465,0.782423 0.70465,0.782422 0.41535,-0.0019 0.41535,-0.0019 1.2,-0.333257 1.2,-0.333258 V 85.015106 84.50804 l -1.36,-1.357923 -1.36,-1.35792 -1.6738,-0.229149 -1.67379,-0.229146 -1.36621,0.227015 -1.366197,0.227014 -0.841882,0.430666 -0.841885,0.430669 -0.814765,0.968291 -0.814764,0.968294 -0.370455,1.784471 -0.370454,1.784467 0.214032,1.556211 0.214035,1.556211 0.816448,1.259149 0.816448,1.259152 0.996621,0.593757 0.996621,0.593757 1.439997,0.185939 1.44,0.185942 1.28,-0.140413 1.28,-0.140409 0.84188,-0.424423 z M 19.761603,93.563717 v -1.588803 l -3.28,-0.0912 -3.28,-0.09119 -0.08813,-5.04 -0.08813,-5.04 H 11.113477 9.2016026 v 6.72 6.72 h 5.2800004 5.28 z m 5.44,-3.211194 v -4.8 h -1.76 -1.76 v 4.8 4.8 h 1.76 1.76 z m 6.4,1.664 v -3.136 l 0.384,-0.384 0.384,-0.384 h 0.724742 0.724739 l 0.331261,0.618963 0.331258,0.618964 v 2.901036 2.901037 h 1.76 1.76 v -4.024614 -4.024618 l -0.935386,-0.935382 -0.935382,-0.935386 h -1.440064 -1.440064 l -0.984551,0.828445 -0.984553,0.828448 v -0.668448 -0.668445 h -1.76 -1.76 v 4.8 4.8 h 1.92 1.92 z m 14.487318,2.496 0.813629,-0.64 h 0.189526 0.189527 v 0.64 0.64 h 1.76 1.76 v -4.8 -4.8 h -1.92 -1.92 v 2.934803 2.934804 l -0.529597,0.585196 -0.529597,0.585197 H 45.494863 45.087318 L 44.58446,92.089666 44.081603,91.586808 v -3.017142 -3.017143 h -1.76 -1.76 v 4.014544 4.014547 l 0.785456,0.785453 0.785452,0.785456 h 1.571392 1.571389 z m 11.062093,-1.00648 1.069414,-1.634982 0.937059,1.640729 0.937063,1.640733 h 2.092413 2.092409 l -0.234112,-0.4 -0.234112,-0.4 -1.384771,-1.960637 -1.384774,-1.960636 v -0.382023 -0.382019 l 1.468089,-2.057344 1.46809,-2.057341 -2.02809,0.0022 -2.028089,0.0022 -0.83938,1.313543 -0.839382,1.313539 -0.739542,-1.315843 -0.739546,-1.315844 h -2.18464 -2.18464 l 1.627395,2.237463 1.627392,2.237462 -1.805869,2.562538 -1.805868,2.562537 2.022038,-0.0058 2.022042,-0.0058 1.069411,-1.634982 z m 27.320432,-2.11352 0.09016,-3.76 2.56,3.746855 2.56,3.746851 2,0.01315 2,0.01315 v -6.72 -6.72 h -1.909844 -1.909846 l -0.09015,3.720582 -0.09016,3.720573 -2.540263,-3.720582 -2.540262,-3.720583 H 82.74134 80.881603 v 6.72 6.72 h 1.749843 1.749846 z m -59.269843,-8.56 v -1.12 h -1.76 -1.76 v 1.12 1.12 h 1.76 1.76 z m 5.966406,-12.08 -3.963008,-3.92 -0.832403,-1.76 -0.832403,-1.76 -0.546148,-3.327017 -0.54615,-3.327015 0.732304,-0.592985 0.732304,-0.592983 h 1.125597 1.125597 l 1.686102,0.964691 1.686102,0.964688 2.352848,0.601018 2.352852,0.601021 2.487814,0.114291 2.487811,0.114291 1.911101,-4.8 1.911101,-4.8 -0.0052,-0.32 -0.0053,-0.32 -1.641971,-0.96 -1.641972,-0.96 -0.893833,-1.394509 -0.893831,-1.394508 -0.203273,-0.925492 -0.203271,-0.925491 h -0.145212 -0.145213 l -1.50936,0.767475 -1.509363,0.767479 -3.00296,1.974835 -3.00296,1.974838 -3.352538,3.257687 -3.352537,3.257686 -2.020978,2.688547 -2.020977,2.688548 -1.756235,3.391452 -1.756234,3.391453 -1.106406,3.2 -1.106406,3.2 -0.22631,1.04 -0.226311,1.04 h 10.910134 10.910132 z m 7.902963,0 0.208135,-3.92 0.607401,-2.88 0.607402,-2.88 0.228537,-0.88 0.228538,-0.88 H 39.142803 37.33462 l -2.3936,-0.494413 -2.3936,-0.494409 -1.352909,-0.621923 -1.352908,-0.62192 -1.115008,-0.643668 -1.115008,-0.643667 h -0.493789 -0.493792 l -0.7112,0.498144 -0.711203,0.498147 v 0.955344 0.955348 l 0.507024,2.454656 0.507024,2.454659 0.490704,0.971853 0.490707,0.971849 1.312083,1.720051 1.312086,1.720052 3.192541,2.839948 3.192538,2.839949 h 1.328262 1.328266 z m 4.776352,1.713943 0.529453,-2.206058 1.321024,-2.993942 1.321021,-2.993943 1.117085,-3.04 1.117081,-3.04 0.278304,-3.669337 0.278304,-3.669338 -0.064,-0.04317 -0.064,-0.04317 -1.896045,-0.855443 -1.896045,-0.855446 -0.229565,0.247955 -0.229565,0.247955 -1.353043,3.36 -1.353043,3.36 -0.9192,2.693677 -0.9192,2.693674 -0.494141,2.586326 -0.494144,2.586323 -0.278009,3.679091 -0.27801,3.679092 0.14889,0.240908 0.148889,0.240909 h 1.839248 1.839248 z m 14.95361,-2.302506 1.668976,-4.508563 -0.490314,-1.811437 -0.490313,-1.811437 -0.208352,-1.940473 -0.208352,-1.940477 0.500105,-0.41505 0.500103,-0.415049 1.044409,0.16216 1.044407,0.162156 0.64,0.208301 0.64,0.208301 1.012041,-3.1248 1.012042,-3.124797 -0.603763,-0.84791 -0.603764,-0.847907 -0.812374,-0.532288 -0.812374,-0.532288 -0.281952,0.73006 -0.281952,0.730061 -0.753952,0.680013 -0.753952,0.68001 -0.79544,0.411622 -0.795444,0.411622 -2.244556,-0.01542 -2.24456,-0.01542 -1.977824,-0.80478 -1.977824,-0.804781 -0.207175,0.528569 -0.207174,0.528573 -0.268759,3.36 -0.268758,3.36 -0.79401,2.24 -0.794012,2.24 -1.42664,3.2 -1.426644,3.2 -0.49719,1.6 -0.497194,1.6 -0.194496,0.88 -0.194492,0.88 h 6.691273 6.691274 z m 3.035283,3.981814 0.385168,-0.526752 2.240374,0.549034 2.240372,0.54903 1.19398,-0.102281 1.193978,-0.102282 -2.296624,-1.885597 -2.296627,-1.885593 -1.858941,-2.33928 -1.858938,-2.33928 -1.468678,4.010822 -1.468678,4.010826 v 0.294051 0.294051 h 1.804723 1.80472 z m 1.525386,0.31482 -0.4,-0.161405 -0.4,0.161405 -0.4,0.161404 h 0.8 0.8 z m 22.353376,-0.668071 0.337532,-0.88 -0.201817,-1.28 -0.201815,-1.28 -1.146502,-3.452045 -1.146502,-3.452041 -0.886957,-0.949495 -0.88696,-0.949494 -0.430179,0.152058 -0.430176,0.152054 -2.835799,0.809482 -2.835795,0.809481 h -2.054483 -2.05448 l -1.127709,-0.471187 -1.127709,-0.471187 -2.684025,-1.937626 -2.684026,-1.937625 -1.161475,-0.485296 -1.161479,-0.485296 -0.616508,0.195673 -0.616512,0.195674 0.0038,1.658435 0.0038,1.658435 0.439417,1.650352 0.439415,1.650349 1.161865,1.750426 1.161866,1.750425 2.707805,2.5996 2.707808,2.599603 1.047113,0.638426 1.047114,0.638426 7.44792,0.0013 7.44792,0.0013 0.337536,-0.88 z m 19.166621,0.234083 v -0.645913 l -1.11097,-3.436586 -1.11097,-3.436582 -1.453,-2.847546 -1.452993,-2.847549 -1.7948,-2.669753 -1.794804,-2.669754 -2.697692,-2.865747 -2.697693,-2.865747 -2.093091,-1.66552 -2.093088,-1.665523 -0.28312,0.451068 -0.28312,0.451069 -0.535248,2.4 -0.535248,2.4 -0.548109,1.28 -0.548109,1.28 -1.163971,1.390275 -1.163971,1.390279 v 0.239625 0.239629 l 0.599462,1.730096 0.599459,1.730096 0.970243,1.92 0.970244,1.92 0.870713,2.72 0.870717,2.72 -2.98e-4,2 -2.97e-4,2 h 9.239878 9.239876 z m -29.56922,-11.235212 1.434179,-0.361133 -0.652476,-0.457015 -0.65248,-0.457014 v -0.870653 -0.870653 l -0.489197,-0.698425 -0.489197,-0.698429 -1.073955,-0.201475 -1.073955,-0.201475 -1.364861,0.9887 -1.364861,0.988701 h -0.894141 -0.894144 l -0.821955,-0.72 -0.821955,-0.72 -0.419671,-1.44 -0.41967,-1.44 -0.695024,1.12 -0.695021,1.12 0.0041,0.32 0.0041,0.32 2.881869,2.029597 2.881866,2.029594 0.872816,0.262899 0.872816,0.262899 1.218297,0.02752 1.218298,0.02749 1.434182,-0.36113 z m 2.895674,-1.958871 0.972,-1.04 0.753709,-1.097779 0.753705,-1.097782 -0.462931,0.2748 -0.462934,0.2748 -2,1.251667 -2,1.251664 v 0.108457 0.108458 l 0.502857,0.502858 0.502858,0.502857 h 0.234368 0.234371 z m 1.088217,0.372592 0.357184,-0.667405 -0.142579,-0.142579 -0.142579,-0.142582 -0.530723,0.809987 -0.530727,0.809987 h 0.316119 0.316118 z m 2.520986,-0.440659 -0.02435,-0.331933 -0.381725,-1.053235 -0.381725,-1.053235 -0.540102,1.457264 -0.540099,1.457264 0.946173,-0.0721 0.946169,-0.0721 -0.02435,-0.331933 z m -2.046838,-3.248144 2.429027,-1.474694 0.766982,-1.164548 0.766986,-1.164547 0.496477,-1.28 0.496473,-1.28 -0.562381,0.791696 -0.56238,0.791696 -0.970644,1.288304 -0.970643,1.288304 -1.531481,1.030621 -1.531479,1.030624 -1.708595,0.538586 -1.708595,0.538588 0.343187,0.753213 0.343187,0.753216 0.737427,-0.483181 0.737428,-0.48318 z m -9.362964,1.157363 0.812164,-0.638845 0.743961,-0.275209 0.743965,-0.275213 1.090474,0.301094 1.09047,0.301095 1.949686,-0.710893 1.949687,-0.71089 1.214573,-0.803766 1.214576,-0.803766 1.072864,-1.472381 1.072867,-1.472378 0.858934,-1.707853 0.858938,-1.707852 1.267545,-3.538429 1.267546,-3.538429 -0.106026,-0.106029 -0.106028,-0.106025 -1.741024,1.156995 -1.741024,1.156998 -3.2,1.980496 -3.2,1.980496 -3.636317,1.882435 -3.63632,1.882436 -2.084627,1.936518 -2.084624,1.936518 0.23479,1.389709 0.234787,1.389706 0.606157,0.606157 0.606154,0.606153 h 0.916844 0.916845 z m 4.056922,-10.120963 4.337226,-2.090362 4.487225,-2.989302 4.487229,-2.989302 0.585613,-0.647095 0.585609,-0.647094 -0.112838,-0.314247 -0.112838,-0.314246 -6.4,3.843792 -6.4,3.843789 -1.6,0.827251 -1.6,0.827248 -2.72,0.855936 -2.72,0.855936 -0.546938,0.935952 -0.546938,0.935952 -0.825587,2.193382 -0.825587,2.193383 2.795299,-2.615306 2.795303,-2.615305 z m -14.159008,2.880963 0.896234,-0.668051 0.6075,-1.037446 0.607498,-1.037444 -0.37488,-3.089104 -0.374883,-3.089107 -0.800039,-1.647059 -0.800035,-1.647059 -1.164083,-0.552394 -1.164083,-0.552393 -1.757111,0.181347 -1.75711,0.18135 -2.831462,0.868567 -2.83146,0.868566 -2.815379,-0.690464 -2.815382,-0.690461 h -0.919347 -0.919351 l -0.585197,0.529597 -0.585196,0.529597 v 1.10464 1.10464 l 0.56,-0.239495 0.56,-0.239494 0.885011,-0.151798 0.885008,-0.151796 2.474992,1.62384 2.474989,1.623837 1.44,0.529479 1.44,0.529475 3.2,0.158496 3.2,0.158493 1.894182,-0.353908 1.894182,-0.353907 0.159149,0.159152 0.159152,0.159152 -0.149907,0.149907 -0.149907,0.149911 -3.057786,0.375779 -3.057785,0.375779 -2.515248,-0.374096 -2.515245,-0.374096 -1.737645,-0.79552 -1.737645,-0.79552 -1.540845,-1.106989 -1.540844,-1.106985 -0.752138,-0.188775 -0.752138,-0.188774 -0.757699,0.613549 -0.757702,0.613549 0.406496,0.981369 0.406496,0.98137 1.140217,1.140217 1.140218,1.140218 2.911744,1.425856 2.911744,1.425856 2.879475,1.143357 2.879479,1.143353 2.303766,-0.09006 2.303763,-0.09005 z m 6.862627,-4.887635 0.273971,-2.686483 0.348836,-1.313517 0.348832,-1.313517 0.791065,-1.6 0.791063,-1.6 1.801622,-1.831632 1.801622,-1.831632 -0.141702,-0.1348 -0.141702,-0.1348 -2.878852,-0.488051 -2.878851,-0.488048 -0.104477,0.104474 -0.104473,0.104476 0.341542,1.230007 0.341543,1.230006 0.0019,1.834951 0.0019,1.834953 -0.91457,1.023581 -0.914573,1.023584 -1.965427,-0.05417 -1.96543,-0.05417 0.0057,0.235632 0.0057,0.235635 0.457974,3.008864 0.457971,3.008861 -0.0507,0.191139 -0.0507,0.191136 1.426992,1.44 1.426992,1.44 0.606211,-0.96 0.606212,-0.96 0.273971,-2.686483 z m 4.88913,0.81871 2.535523,-0.98655 4.984477,-3.014954 4.984477,-3.014956 2.589488,-1.546759 2.589484,-1.546758 1.010516,-1.895917 1.010512,-1.895917 v -0.139785 -0.139786 l -0.937584,0.137606 -0.937584,0.13761 -2.822416,-0.371398 -2.822416,-0.371395 -0.663847,-0.162231 -0.663846,-0.16223 -0.826285,1.248604 -0.826288,1.248605 -1.549869,1.588963 -1.549865,1.588967 -3.74337,2.795981 -3.743366,2.795977 -0.932788,1.187047 -0.932787,1.187049 -0.523846,1.024109 -0.523843,1.024109 v 0.341987 0.341987 l 0.88,-0.206707 0.88,-0.20671 z m -3.975523,-2.612227 v -0.16 h -0.16 -0.16 v 0.16 0.16 h 0.16 0.16 z m 3.566064,-5.904867 1.609516,-1.58433 3.252212,-1.656288 3.252208,-1.656284 1.04,-0.775402 1.04,-0.775399 V 32.14689 31.893827 l -1.287668,-0.385794 -1.287664,-0.385794 -1.352336,1.080889 -1.352332,1.08089 -2.313274,1.514355 -2.31327,1.514355 -0.977642,1.179898 -0.977642,1.179897 -0.760054,1.6 -0.760051,1.6 -0.208192,1.28 -0.208192,1.28 0.99743,-2.000269 0.997431,-2.000268 z m 2.513936,1.26297 2.4,-1.675847 0.909702,-0.841126 0.909702,-0.84113 0.994391,-1.246973 0.99439,-1.246976 -3.236864,1.662666 -3.236867,1.662666 -1.472285,1.295955 -1.472285,1.295958 -0.761712,1.328352 -0.761715,1.328352 -0.228496,0.8 -0.228496,0.8 1.395267,-1.323027 1.395268,-1.323024 z m -7.590477,-0.02918 0.610211,-0.753575 -0.109869,-2.636368 -0.109865,-2.636368 -0.572989,-0.571296 -0.572986,-0.571299 -6.147014,0.0096 -6.147011,0.0096 -2.403098,0.555091 -2.403098,0.555088 -1.052054,0.639792 -1.052054,0.639795 0.09515,1.995488 0.09515,1.995488 0.873209,0.100599 0.873207,0.100601 3.254124,-0.820601 3.254122,-0.820599 h 1.584307 1.584307 l 1.093152,0.518733 1.093149,0.518736 0.535744,0.906941 0.535744,0.906944 0.659469,0.14712 0.659466,0.147123 1.579657,-0.09156 1.579658,-0.09155 0.610208,-0.753578 z m -15.609523,-8.15438 0.96,-0.822439 -1.44,0.222298 -1.44,0.222297 -1.1893,0.602698 -1.189302,0.602697 -0.330698,0.617917 -0.3307,0.61792 v 0.464115 0.464118 l 2,-1.084592 2,-1.084591 z m 26.775859,-0.378389 0.855856,-0.78963 -0.164135,-0.42773 -0.164134,-0.42773 1.228275,0.165431 1.228279,0.165431 -1.12,-1.001757 -1.12,-1.001757 -1.950752,-1.099204 -1.950752,-1.099204 h -0.177332 -0.177331 l -0.384848,1.604229 -0.384848,1.604229 0.225607,2.548662 0.225609,2.548663 1.487322,-1.000004 1.487325,-1 z m 13.037475,1.07206 -0.133334,-0.131789 -1.76,-0.668049 -1.76,-0.668049 -1.6,0.03174 -1.6,0.03174 -0.8,0.234265 -0.8,0.234264 2.4,0.391118 2.4,0.391118 0.48,0.105599 0.48,0.1056 1.413334,0.03712 1.413331,0.03712 z M 72.881603,30.720535 v -1.071987 l -0.907556,-1.248013 -0.907558,-1.248012 -1.373274,-1.236055 -1.373273,-1.236055 -1.479171,-0.669731 -1.479168,-0.669731 -3.36,-0.01421 -3.36,-0.01421 -2.56,0.724652 -2.56,0.724652 -1.261146,0.909681 -1.261146,0.909681 -0.866748,1.565667 -0.866749,1.565667 -0.19952,0.675423 -0.199523,0.675422 1.583286,-0.313055 1.583286,-0.313054 6.344128,0.384803 6.344132,0.384804 3.52,0.233514 3.52,0.233514 0.56,0.05931 0.56,0.05931 z m 10.26686,-1.409944 0.212308,-1.038068 h -0.220317 -0.220317 l -0.545885,1.144739 -0.545888,1.144738 0.553895,-0.10667 0.553897,-0.106671 z m -1.30686,-0.09568 v -0.657609 l -1.68,-0.73905 -1.68,-0.73905 -0.8,-0.238358 -0.8,-0.238358 1.961369,1.283071 1.961373,1.283072 0.217514,0.351946 0.217513,0.351945 h 0.301117 0.301114 z"
         style="fill:#1d6f9d;stroke-width:0.32" />
      <path
         id="path979"
         d="m 71.601603,104.52653 -0.48,-0.17547 -0.750404,-0.67927 -0.750406,-0.67927 -0.447578,-0.8602 -0.447577,-0.86021 -1.172215,0.19022 -1.172211,0.19022 -7.88295,-0.4128 -7.882954,-0.4128 -1.078739,0.55784 -1.078742,0.55783 -1.794845,0.16275 -1.794845,0.16276 -3.542755,-0.67781 -3.542755,-0.6778 H 17.732115 -2.3183974 v -13.119997 -13.12 H 3.435506 9.1894093 l 0.1939091,-0.88 0.1939088,-0.88 0.9340308,-3.095949 0.93403,-3.095948 1.139507,-2.664052 1.139507,-2.664051 1.631069,-2.72 1.631069,-2.72 1.826178,-2.406717 1.826177,-2.40672 2.041404,-2.092092 2.041404,-2.092093 2.08,-1.717511 2.08,-1.717507 2.582336,-1.686256 2.582339,-1.686256 2.986003,-1.453318 2.986003,-1.453319 2.671658,-0.870064 2.671661,-0.870064 v -0.589932 -0.589933 l 0.485417,-0.938691 0.485415,-0.938694 0.926828,-0.479281 0.926829,-0.479282 0.525799,-1.58303 0.525798,-1.583032 0.928464,-1.281708 0.928464,-1.281708 1.373494,-0.798917 1.373492,-0.798916 2.72,-0.692514 2.72,-0.692513 3.36,0.114561 3.36,0.114562 2.08,1.138346 2.08,1.138348 1.44,1.797346 1.44,1.797347 0.377408,-1.461629 0.377408,-1.461629 0.314294,-0.314295 0.314294,-0.314295 2.668298,0.885111 2.668298,0.885111 1.36,0.57922 1.36,0.57922 v -0.480551 -0.480552 l 1.950339,1.371924 1.950336,1.371923 1.048915,0.64 1.048915,0.64 1.880749,0.62037 1.880746,0.620369 0.08342,0.04971 0.08342,0.04971 -0.478506,1.356233 -0.478509,1.356237 -0.964909,1.429725 -0.964908,1.429721 -0.01,0.383959 -0.01,0.383958 -0.788375,1.28 -0.788371,1.28 0.0066,0.48 0.0066,0.48 1.67175,1.116589 1.671748,1.116586 3.856656,3.843414 3.856659,3.843411 2.313142,3.471754 2.31313,3.471757 1.4282,2.975699 1.4282,2.975702 1.10688,3.312544 1.10688,3.312544 0.21602,1.36 0.21603,1.36 h 5.0791 5.0791 v 13.12 13.119995 h -17.5466 -17.546597 l -2.373402,1.24613 -2.373398,1.24613 -2.193709,0.67387 -2.193706,0.67387 -1.486294,-0.0253 -1.486291,-0.0252 -0.48,-0.17547 z m 4.402579,-0.57562 2.002576,-0.47216 2.157424,-1.10738 2.157421,-1.10737 -6.488218,-0.0157 -6.488218,-0.0157 0.467117,0.90331 0.46712,0.90331 0.48064,0.39889 0.48064,0.3989 0.900461,0.27029 0.900458,0.27029 0.48,0.0228 0.48,0.0228 2.002579,-0.47216 z m -28.562579,-2.39839 0.96,-0.24428 -3.04,0.008 -3.04,0.008 1.28,0.22918 1.28,0.22918 0.8,0.008 0.8,0.008 0.96,-0.24427 z m -1.324656,-6.870352 1.164656,-0.790358 v 0.630358 0.630355 h 1.76 1.76 v -4.96 -4.96 h -1.92 -1.92 v 2.901037 2.901037 l -0.331258,0.618963 -0.331261,0.618963 H 45.521603 44.744121 L 44.41286,91.65356 44.081603,91.034597 V 88.13356 85.232523 h -1.945431 -1.94543 l 0.10543,4.187043 0.105431,4.187044 1.045049,0.932956 1.045047,0.932957 h 1.230297 1.230298 z m 28.733148,0.462227 1.168496,-0.324557 1.151504,-1.274579 1.151508,-1.274579 0.048,-0.479078 0.048,-0.479079 0.032,-0.364678 0.032,-0.364682 -1.44,-0.430461 -1.44,-0.430464 -0.361178,-0.0049 -0.361178,-0.0049 -0.386275,0.932548 -0.386272,0.93255 -0.93255,0.386272 -0.932547,0.386275 -0.946096,-0.391885 -0.946093,-0.391884 -0.371034,-1.124244 -0.371033,-1.124243 0.151158,-1.573136 0.151158,-1.573139 0.741751,-0.789555 0.74175,-0.789559 h 0.935831 0.935833 l 0.866906,0.928026 0.866905,0.928026 1.741482,-0.40513 1.741482,-0.40513 L 78.376415,85.195406 78.271231,84.75251 77.606966,83.674725 76.9427,82.596939 75.63215,82.001752 74.321603,81.406565 h -2.08 -2.08 l -1.28,0.587779 -1.28,0.587779 -0.547796,0.616906 -0.547795,0.616905 -0.531629,1.268288 -0.531628,1.268288 -0.01584,1.92 -0.01584,1.92 0.380268,1.139933 0.380269,1.13993 1.195008,1.141296 1.195008,1.141296 0.96,0.33351 0.96,0.333511 1.6,0.02349 1.6,0.02349 1.168493,-0.32456 z m 31.183165,-0.281609 1.31166,-0.595684 0.66706,-0.936809 0.66707,-0.936807 0.21476,-0.85567 0.21476,-0.855674 -0.79932,-0.3039 -0.79932,-0.303901 -1.15416,-0.216522 -1.15417,-0.216521 v 0.480163 0.48016 l -0.56,0.674486 -0.56,0.67449 -1.01878,0.19672 -1.01879,0.19672 -0.76976,-0.76976 -0.76976,-0.76976 -0.21842,-1.365923 -0.21842,-1.365927 0.33614,-1.248355 0.33615,-1.248358 0.70202,-0.491716 0.70203,-0.491715 h 0.86035 0.86035 l 0.78664,0.934867 0.78664,0.934871 1.6957,-0.376557 1.6957,-0.376557 0.1134,-0.340176 0.11339,-0.340173 -0.72729,-1.068713 -0.72729,-1.068714 -0.89623,-0.664025 -0.89624,-0.664026 -2.35706,-0.119027 -2.35707,-0.119024 -1.116172,0.368368 -1.116166,0.368368 -1.062739,1.086912 -1.062736,1.086909 -0.383447,1.058348 -0.383446,1.058349 -0.02256,1.76 -0.02256,1.76 0.3416,1.230215 0.3416,1.230217 1.016617,1.103143 1.016615,1.103142 1.28,0.452595 1.280004,0.452595 1.76,0.007 1.76,0.007 1.31165,-0.595683 z M 19.761603,93.392523 v -1.76 h -3.191875 -3.191874 l -0.08813,-5.04 -0.08812,-5.04 h -2.08 -2.0800004 l -0.086364,6.8 -0.086364,6.8 h 5.4463634 5.446365 z m 5.688336,-3.12 -0.08834,-4.88 h -1.92 -1.92 l -0.08833,4.88 -0.08834,4.88 h 2.09667 2.096668 z m 6.151664,1.862858 v -3.017143 l 0.502857,-0.502857 0.502858,-0.502858 h 0.270969 0.270973 l 0.50617,0.194237 0.506173,0.194237 v 3.325763 3.325763 h 2.08 2.08 v -3.530278 -3.530279 l -0.468484,-1.121238 -0.468483,-1.121238 -1.164665,-0.486628 -1.164666,-0.48663 -1.006851,0.217933 -1.006851,0.217933 -0.88,0.622003 -0.88,0.622003 v -0.661792 -0.661789 h -1.76 -1.76 v 4.96 4.96 h 1.92 1.92 z m 25.628128,1.536259 1.018873,-1.48088 0.836499,1.479578 0.8365,1.47958 2.319174,0.0013 2.319174,0.0013 -1.621862,-2.272953 -1.621866,-2.272957 -0.143638,-0.37432 -0.143642,-0.37432 1.384548,-1.912726 1.384544,-1.912724 0.240668,-0.4 0.240669,-0.4 -2.178883,0.0022 -2.178886,0.0022 -0.844887,1.322106 -0.844886,1.322106 -0.755114,-1.321943 -0.755113,-1.321945 -2.341789,-0.0026 -2.341792,-0.0026 0.720214,1.04 0.720215,1.04 0.901577,1.166048 0.901575,1.166051 v 0.352793 0.352794 l -1.6,2.242314 -1.6,2.242313 v 0.158845 0.158842 h 2.064627 2.064627 l 1.018874,-1.480884 z m 27.491872,-2.116979 v -3.597859 l 2.404163,3.597859 2.404166,3.597862 h 2.075834 2.075837 v -6.89527 -6.895267 l -2,0.09527 -2,0.09527 -0.16,3.480109 -0.16,3.480109 -2.398349,-3.573344 -2.398349,-3.573344 -1.921651,0.09324 -1.921651,0.09323 -0.08637,6.8 -0.08637,6.8 h 2.086365 2.086365 z m -59.36,-8.722138 v -1.28 h -1.92 -1.92 l -0.103864,0.907031 -0.103863,0.907033 0.179992,0.469053 0.179993,0.469053 1.843871,-0.09609 1.843871,-0.09608 z m 5.806406,-12.08 -3.963008,-3.92 -0.832403,-1.76 -0.832403,-1.76 -0.546148,-3.327017 -0.54615,-3.327015 0.732304,-0.592985 0.732304,-0.592983 h 1.125597 1.125597 l 1.686102,0.964691 1.686102,0.964688 2.352848,0.601018 2.352852,0.601021 2.487814,0.114291 2.487811,0.114291 1.911101,-4.8 1.911101,-4.8 -0.0052,-0.32 -0.0053,-0.32 -1.641971,-0.96 -1.641972,-0.96 -0.893833,-1.394509 -0.893831,-1.394508 -0.203273,-0.925492 -0.203271,-0.925491 h -0.145212 -0.145213 l -1.50936,0.767475 -1.509363,0.767479 -3.00296,1.974835 -3.00296,1.974838 -3.352538,3.257687 -3.352537,3.257686 -2.020978,2.688547 -2.020977,2.688548 -1.756235,3.391452 -1.756234,3.391453 -1.106406,3.2 -1.106406,3.2 -0.22631,1.04 -0.226311,1.04 h 10.910134 10.910132 z m 7.902963,0 0.208135,-3.92 0.607401,-2.88 0.607402,-2.88 0.228537,-0.88 0.228538,-0.88 H 39.142803 37.33462 l -2.3936,-0.494413 -2.3936,-0.494409 -1.352909,-0.621923 -1.352908,-0.62192 -1.115008,-0.643668 -1.115008,-0.643667 h -0.493789 -0.493792 l -0.7112,0.498144 -0.711203,0.498147 v 0.955344 0.955348 l 0.507024,2.454656 0.507024,2.454659 0.490704,0.971853 0.490707,0.971849 1.312083,1.720051 1.312086,1.720052 3.192541,2.839948 3.192538,2.839949 h 1.328262 1.328266 z m 4.776352,1.713943 0.529453,-2.206058 1.321024,-2.993942 1.321021,-2.993943 1.117085,-3.04 1.117081,-3.04 0.278304,-3.669337 0.278304,-3.669338 -0.064,-0.04317 -0.064,-0.04317 -1.896045,-0.855443 -1.896045,-0.855446 -0.229565,0.247955 -0.229565,0.247955 -1.353043,3.36 -1.353043,3.36 -0.9192,2.693677 -0.9192,2.693674 -0.494141,2.586326 -0.494144,2.586323 -0.278009,3.679091 -0.27801,3.679092 0.14889,0.240908 0.148889,0.240909 h 1.839248 1.839248 z m 14.95361,-2.302506 1.668976,-4.508563 -0.490314,-1.811437 -0.490313,-1.811437 -0.208352,-1.940473 -0.208352,-1.940477 0.500105,-0.41505 0.500103,-0.415049 1.044409,0.16216 1.044407,0.162156 0.64,0.208301 0.64,0.208301 1.012041,-3.1248 1.012042,-3.124797 -0.603763,-0.84791 -0.603764,-0.847907 -0.812374,-0.532288 -0.812374,-0.532288 -0.281952,0.73006 -0.281952,0.730061 -0.753952,0.680013 -0.753952,0.68001 -0.79544,0.411622 -0.795444,0.411622 -2.244556,-0.01542 -2.24456,-0.01542 -1.977824,-0.80478 -1.977824,-0.804781 -0.207175,0.528569 -0.207174,0.528573 -0.268759,3.36 -0.268758,3.36 -0.79401,2.24 -0.794012,2.24 -1.42664,3.2 -1.426644,3.2 -0.49719,1.6 -0.497194,1.6 -0.194496,0.88 -0.194492,0.88 h 6.691273 6.691274 z m 3.035283,3.981814 0.385168,-0.526752 2.240374,0.549034 2.240372,0.54903 1.19398,-0.102281 1.193978,-0.102282 -2.296624,-1.885597 -2.296627,-1.885593 -1.858941,-2.33928 -1.858938,-2.33928 -1.468678,4.010822 -1.468678,4.010826 v 0.294051 0.294051 h 1.804723 1.80472 z m 1.525386,0.31482 -0.4,-0.161405 -0.4,0.161405 -0.4,0.161404 h 0.8 0.8 z m 22.353376,-0.668071 0.337532,-0.88 -0.201817,-1.28 -0.201815,-1.28 -1.146502,-3.452045 -1.146502,-3.452041 -0.886957,-0.949495 -0.88696,-0.949494 -0.430179,0.152058 -0.430176,0.152054 -2.835799,0.809482 -2.835795,0.809481 h -2.054483 -2.05448 l -1.127709,-0.471187 -1.127709,-0.471187 -2.684025,-1.937626 -2.684026,-1.937625 -1.161475,-0.485296 -1.161479,-0.485296 -0.616508,0.195673 -0.616512,0.195674 0.0038,1.658435 0.0038,1.658435 0.439417,1.650352 0.439415,1.650349 1.161865,1.750426 1.161866,1.750425 2.707805,2.5996 2.707808,2.599603 1.047113,0.638426 1.047114,0.638426 7.44792,0.0013 7.44792,0.0013 0.337536,-0.88 z m 19.166621,0.234083 v -0.645913 l -1.11097,-3.436586 -1.11097,-3.436582 -1.453,-2.847546 -1.452993,-2.847549 -1.7948,-2.669753 -1.794804,-2.669754 -2.697692,-2.865747 -2.697693,-2.865747 -2.093091,-1.66552 -2.093088,-1.665523 -0.28312,0.451068 -0.28312,0.451069 -0.535248,2.4 -0.535248,2.4 -0.548109,1.28 -0.548109,1.28 -1.163971,1.390275 -1.163971,1.390279 v 0.239625 0.239629 l 0.599462,1.730096 0.599459,1.730096 0.970243,1.92 0.970244,1.92 0.870713,2.72 0.870717,2.72 -2.98e-4,2 -2.97e-4,2 h 9.239878 9.239876 z m -29.56922,-11.235212 1.434179,-0.361133 -0.652476,-0.457015 -0.65248,-0.457014 v -0.870653 -0.870653 l -0.489197,-0.698425 -0.489197,-0.698429 -1.073955,-0.201475 -1.073955,-0.201475 -1.364861,0.9887 -1.364861,0.988701 h -0.894141 -0.894144 l -0.821955,-0.72 -0.821955,-0.72 -0.419671,-1.44 -0.41967,-1.44 -0.695024,1.12 -0.695021,1.12 0.0041,0.32 0.0041,0.32 2.881869,2.029597 2.881866,2.029594 0.872816,0.262899 0.872816,0.262899 1.218297,0.02752 1.218298,0.02749 1.434182,-0.36113 z m 2.895674,-1.958871 0.972,-1.04 0.753709,-1.097779 0.753705,-1.097782 -0.462931,0.2748 -0.462934,0.2748 -2,1.251667 -2,1.251664 v 0.108457 0.108458 l 0.502857,0.502858 0.502858,0.502857 h 0.234368 0.234371 z m 1.088217,0.372592 0.357184,-0.667405 -0.142579,-0.142579 -0.142579,-0.142582 -0.530723,0.809987 -0.530727,0.809987 h 0.316119 0.316118 z m 2.520986,-0.440659 -0.02435,-0.331933 -0.381725,-1.053235 -0.381725,-1.053235 -0.540102,1.457264 -0.540099,1.457264 0.946173,-0.0721 0.946169,-0.0721 -0.02435,-0.331933 z m -2.046838,-3.248144 2.429027,-1.474694 0.766982,-1.164548 0.766986,-1.164547 0.496477,-1.28 0.496473,-1.28 -0.562381,0.791696 -0.56238,0.791696 -0.970644,1.288304 -0.970643,1.288304 -1.531481,1.030621 -1.531479,1.030624 -1.708595,0.538586 -1.708595,0.538588 0.343187,0.753213 0.343187,0.753216 0.737427,-0.483181 0.737428,-0.48318 z m -9.362964,1.157363 0.812164,-0.638845 0.743961,-0.275209 0.743965,-0.275213 1.090474,0.301094 1.09047,0.301095 1.949686,-0.710893 1.949687,-0.71089 1.214573,-0.803766 1.214576,-0.803766 1.072864,-1.472381 1.072867,-1.472378 0.858934,-1.707853 0.858938,-1.707852 1.267545,-3.538429 1.267546,-3.538429 -0.106026,-0.106029 -0.106028,-0.106025 -1.741024,1.156995 -1.741024,1.156998 -3.2,1.980496 -3.2,1.980496 -3.636317,1.882435 -3.63632,1.882436 -2.084627,1.936518 -2.084624,1.936518 0.23479,1.389709 0.234787,1.389706 0.606157,0.606157 0.606154,0.606153 h 0.916844 0.916845 z m 4.056922,-10.120963 4.337226,-2.090362 4.487225,-2.989302 4.487229,-2.989302 0.585613,-0.647095 0.585609,-0.647094 -0.112838,-0.314247 -0.112838,-0.314246 -6.4,3.843792 -6.4,3.843789 -1.6,0.827251 -1.6,0.827248 -2.72,0.855936 -2.72,0.855936 -0.546938,0.935952 -0.546938,0.935952 -0.825587,2.193382 -0.825587,2.193383 2.795299,-2.615306 2.795303,-2.615305 z m -14.159008,2.880963 0.896234,-0.668051 0.6075,-1.037446 0.607498,-1.037444 -0.37488,-3.089104 -0.374883,-3.089107 -0.800039,-1.647059 -0.800035,-1.647059 -1.164083,-0.552394 -1.164083,-0.552393 -1.757111,0.181347 -1.75711,0.18135 -2.831462,0.868567 -2.83146,0.868566 -2.815379,-0.690464 -2.815382,-0.690461 h -0.919347 -0.919351 l -0.585197,0.529597 -0.585196,0.529597 v 1.10464 1.10464 l 0.56,-0.239495 0.56,-0.239494 0.885011,-0.151798 0.885008,-0.151796 2.474992,1.62384 2.474989,1.623837 1.44,0.529479 1.44,0.529475 3.2,0.158496 3.2,0.158493 1.894182,-0.353908 1.894182,-0.353907 0.159149,0.159152 0.159152,0.159152 -0.149907,0.149907 -0.149907,0.149911 -3.057786,0.375779 -3.057785,0.375779 -2.515248,-0.374096 -2.515245,-0.374096 -1.737645,-0.79552 -1.737645,-0.79552 -1.540845,-1.106989 -1.540844,-1.106985 -0.752138,-0.188775 -0.752138,-0.188774 -0.757699,0.613549 -0.757702,0.613549 0.406496,0.981369 0.406496,0.98137 1.140217,1.140217 1.140218,1.140218 2.911744,1.425856 2.911744,1.425856 2.879475,1.143357 2.879479,1.143353 2.303766,-0.09006 2.303763,-0.09005 z m 6.862627,-4.887635 0.273971,-2.686483 0.348836,-1.313517 0.348832,-1.313517 0.791065,-1.6 0.791063,-1.6 1.801622,-1.831632 1.801622,-1.831632 -0.141702,-0.1348 -0.141702,-0.1348 -2.878852,-0.488051 -2.878851,-0.488048 -0.104477,0.104474 -0.104473,0.104476 0.341542,1.230007 0.341543,1.230006 0.0019,1.834951 0.0019,1.834953 -0.91457,1.023581 -0.914573,1.023584 -1.965427,-0.05417 -1.96543,-0.05417 0.0057,0.235632 0.0057,0.235635 0.457974,3.008864 0.457971,3.008861 -0.0507,0.191139 -0.0507,0.191136 1.426992,1.44 1.426992,1.44 0.606211,-0.96 0.606212,-0.96 0.273971,-2.686483 z m 4.88913,0.81871 2.535523,-0.98655 4.984477,-3.014954 4.984477,-3.014956 2.589488,-1.546759 2.589484,-1.546758 1.010516,-1.895917 1.010512,-1.895917 v -0.139785 -0.139786 l -0.937584,0.137606 -0.937584,0.13761 -2.822416,-0.371398 -2.822416,-0.371395 -0.663847,-0.162231 -0.663846,-0.16223 -0.826285,1.248604 -0.826288,1.248605 -1.549869,1.588963 -1.549865,1.588967 -3.74337,2.795981 -3.743366,2.795977 -0.932788,1.187047 -0.932787,1.187049 -0.523846,1.024109 -0.523843,1.024109 v 0.341987 0.341987 l 0.88,-0.206707 0.88,-0.20671 z m -3.975523,-2.612227 v -0.16 h -0.16 -0.16 v 0.16 0.16 h 0.16 0.16 z m 3.566064,-5.904867 1.609516,-1.58433 3.252212,-1.656288 3.252208,-1.656284 1.04,-0.775402 1.04,-0.775399 V 32.14689 31.893827 l -1.287668,-0.385794 -1.287664,-0.385794 -1.352336,1.080889 -1.352332,1.08089 -2.313274,1.514355 -2.31327,1.514355 -0.977642,1.179898 -0.977642,1.179897 -0.760054,1.6 -0.760051,1.6 -0.208192,1.28 -0.208192,1.28 0.99743,-2.000269 0.997431,-2.000268 z m 2.513936,1.26297 2.4,-1.675847 0.909702,-0.841126 0.909702,-0.84113 0.994391,-1.246973 0.99439,-1.246976 -3.236864,1.662666 -3.236867,1.662666 -1.472285,1.295955 -1.472285,1.295958 -0.761712,1.328352 -0.761715,1.328352 -0.228496,0.8 -0.228496,0.8 1.395267,-1.323027 1.395268,-1.323024 z m -7.590477,-0.02918 0.610211,-0.753575 -0.109869,-2.636368 -0.109865,-2.636368 -0.572989,-0.571296 -0.572986,-0.571299 -6.147014,0.0096 -6.147011,0.0096 -2.403098,0.555091 -2.403098,0.555088 -1.052054,0.639792 -1.052054,0.639795 0.09515,1.995488 0.09515,1.995488 0.873209,0.100599 0.873207,0.100601 3.254124,-0.820601 3.254122,-0.820599 h 1.584307 1.584307 l 1.093152,0.518733 1.093149,0.518736 0.535744,0.906941 0.535744,0.906944 0.659469,0.14712 0.659466,0.147123 1.579657,-0.09156 1.579658,-0.09155 0.610208,-0.753578 z m -15.609523,-8.15438 0.96,-0.822439 -1.44,0.222298 -1.44,0.222297 -1.1893,0.602698 -1.189302,0.602697 -0.330698,0.617917 -0.3307,0.61792 v 0.464115 0.464118 l 2,-1.084592 2,-1.084591 z m 26.775859,-0.378389 0.855856,-0.78963 -0.164135,-0.42773 -0.164134,-0.42773 1.228275,0.165431 1.228279,0.165431 -1.12,-1.001757 -1.12,-1.001757 -1.950752,-1.099204 -1.950752,-1.099204 h -0.177332 -0.177331 l -0.384848,1.604229 -0.384848,1.604229 0.225607,2.548662 0.225609,2.548663 1.487322,-1.000004 1.487325,-1 z m 13.037475,1.07206 -0.133334,-0.131789 -1.76,-0.668049 -1.76,-0.668049 -1.6,0.03174 -1.6,0.03174 -0.8,0.234265 -0.8,0.234264 2.4,0.391118 2.4,0.391118 0.48,0.105599 0.48,0.1056 1.413334,0.03712 1.413331,0.03712 z M 72.881603,30.720535 v -1.071987 l -0.907556,-1.248013 -0.907558,-1.248012 -1.373274,-1.236055 -1.373273,-1.236055 -1.479171,-0.669731 -1.479168,-0.669731 -3.36,-0.01421 -3.36,-0.01421 -2.56,0.724652 -2.56,0.724652 -1.261146,0.909681 -1.261146,0.909681 -0.866748,1.565667 -0.866749,1.565667 -0.19952,0.675423 -0.199523,0.675422 1.583286,-0.313055 1.583286,-0.313054 6.344128,0.384803 6.344132,0.384804 3.52,0.233514 3.52,0.233514 0.56,0.05931 0.56,0.05931 z m 10.26686,-1.409944 0.212308,-1.038068 h -0.220317 -0.220317 l -0.545885,1.144739 -0.545888,1.144738 0.553895,-0.10667 0.553897,-0.106671 z m -1.30686,-0.09568 v -0.657609 l -1.68,-0.73905 -1.68,-0.73905 -0.8,-0.238358 -0.8,-0.238358 1.961369,1.283071 1.961373,1.283072 0.217514,0.351946 0.217513,0.351945 h 0.301117 0.301114 z"
         style="fill:#020202;stroke-width:0.32" />
    </g>
  </g>
</svg>
