<?xml version="1.0" encoding="UTF-8" standalone="no"?>
<svg
   xmlns:dc="http://purl.org/dc/elements/1.1/"
   xmlns:cc="http://creativecommons.org/ns#"
   xmlns:rdf="http://www.w3.org/1999/02/22-rdf-syntax-ns#"
   xmlns:svg="http://www.w3.org/2000/svg"
   xmlns="http://www.w3.org/2000/svg"
   version="1.1"
   id="svg2"
   width="128"
   height="128"
   viewBox="0 0 128 128">
  <metadata
     id="metadata8">
    <rdf:RDF>
      <cc:Work
         rdf:about="">
        <dc:format>image/svg+xml</dc:format>
        <dc:type
           rdf:resource="http://purl.org/dc/dcmitype/StillImage" />
        <dc:title></dc:title>
      </cc:Work>
    </rdf:RDF>
  </metadata>
  <defs
     id="defs6" />
  <g
     transform="matrix(1.0497759,0,0,1.5522212,-5.1955616,-33.831623)"
     id="g837">
    <path
       id="path851"
       d="m 94.08,72.035798 c 0,-2.066028 -1.333885,-6.589683 -2.885456,-9.785574 -0.686301,-1.413622 -1.424208,-3.241174 -1.639795,-4.061222 -0.385767,-1.467386 -0.375111,-1.510208 0.672829,-2.703744 1.232438,-1.403671 2.057318,-3.140436 2.567238,-5.405258 0.580525,-2.578406 1.049574,-4 1.319789,-4 0.463801,0 4.260531,3.301133 6.503225,5.654339 5.37097,5.635642 9.875,13.845827 11.51253,20.985661 l 0.20183,0.88 H 103.2061 94.08 Z M 50.737405,45.948477 C 47.6436,43.748864 47.03695,41.28 49.590266,41.28 c 0.317856,0 1.333228,0.519562 2.256384,1.154582 0.923158,0.635018 2.405078,1.519536 3.293161,1.965597 l 1.614698,0.811015 -1.737255,0.899305 c -0.955491,0.494621 -1.963907,0.906099 -2.240928,0.914403 -0.27702,0.0083 -1.194534,-0.476086 -2.038921,-1.076425 z m 4.58112,-2.521763 c -1.121187,-0.579306 -2.797363,-1.538596 -3.724832,-2.131754 -1.52704,-0.976608 -1.790458,-1.046502 -2.789015,-0.740038 -0.9643,0.295952 -1.12639,0.263801 -1.291417,-0.25616 -0.268618,-0.84633 0.366694,-1.856439 1.317744,-2.095136 0.474909,-0.119197 1.767485,0.0791 3.110761,0.477235 2.967152,0.879424 4.394016,0.857229 7.769197,-0.120861 1.518346,-0.44 3.478304,-0.8 4.355459,-0.8 1.608461,0 3.286426,0.702845 3.594474,1.505606 0.107856,0.281069 -1.418448,1.2105 -4.625965,2.816935 C 60.402118,43.401142 58.047536,44.48 57.802525,44.48 c -0.245008,0 -1.36281,-0.473978 -2.484,-1.053286 z"
       style="fill:#fddd0a;stroke-width:0.32" />
    <path
       id="path849"
       d="m 80.72609,104.09824 c 0.31135,-0.0811 0.74335,-0.0758 0.96,0.0119 0.216649,0.0877 -0.03809,0.15403 -0.56609,0.14751 -0.528,-0.007 -0.705261,-0.0782 -0.39391,-0.15937 z M 52.56,101.53941 c 0.308,-0.0805 0.812,-0.0805 1.12,0 0.308,0.0805 0.056,0.14635 -0.56,0.14635 -0.616,0 -0.868,-0.0659 -0.56,-0.14635 z m 18.408458,-0.65413 c 0.752652,-0.0676 1.904652,-0.0666 2.56,0.002 0.655347,0.0688 0.03954,0.12407 -1.368458,0.12291 -1.408,-10e-4 -1.944195,-0.0574 -1.191542,-0.12503 z m -4.642368,-0.30704 c 0.31135,-0.0811 0.74335,-0.0758 0.96,0.0119 0.216649,0.0876 -0.03809,0.15403 -0.56609,0.14751 -0.528,-0.007 -0.705261,-0.0782 -0.39391,-0.15937 z M 4.9546051,87.2 4.96,73.76 l 5.76,-0.01082 5.76,-0.01082 -5.676495,0.09803 -5.6764948,0.09803 -0.0889,13.352797 -0.0889,13.352793 0.0054,-13.44 z M 54.817392,73.681037 c 1.901565,-0.05667 4.925565,-0.05646 6.72,3.2e-4 1.794435,0.05693 0.238608,0.103302 -3.457392,0.10304 -3.696,-2.63e-4 -5.164173,-0.04684 -3.262608,-0.103514 z m 10.708339,0.03841 c -0.129744,-0.225482 2.441834,-7.713684 2.757376,-8.029223 0.04882,-0.04882 0.909421,0.958963 1.912439,2.239527 1.003017,1.280563 2.098467,2.49991 2.434329,2.70966 0.565581,0.35321 0.575104,0.45264 0.128989,1.3469 -0.264918,0.531043 -0.400301,1.097196 -0.300845,1.258118 0.09945,0.160922 -0.464301,0.09843 -1.252793,-0.13887 -1.238989,-0.37288 -1.498372,-0.366701 -1.910596,0.04552 -0.542934,0.542934 -3.52478,0.992608 -3.768899,0.568365 z m 8.100935,0.07037 C 73.880125,73.542358 76.126464,73.459798 76.35617,73.689504 76.482944,73.816275 75.890666,73.92 75.04,73.92 c -0.850666,0 -1.486666,-0.05858 -1.413334,-0.130179 z m 43.066664,-0.08316 c -0.11733,-0.117332 -0.21113,-0.369332 -0.20843,-0.56 0.003,-0.211946 0.10152,-0.194599 0.25351,0.04464 0.17376,0.273484 1.73801,0.420716 5.1951,0.488982 l 4.94649,0.09767 -4.98667,0.07102 c -2.74266,0.03906 -5.08266,-0.02499 -5.2,-0.142313 z M 47.164547,70.177408 c 0.384192,-6.008822 1.705747,-11.137984 4.805923,-18.652509 0.616074,-1.493305 1.234749,-2.749312 1.374832,-2.791126 0.140084,-0.04181 0.775191,0.171984 1.411348,0.475101 L 55.913302,49.76 54.249046,58.4 c -0.91534,4.752 -2.040467,9.792 -2.500281,11.2 -0.459815,1.408 -0.880794,2.848 -0.935507,3.2 -0.08437,0.5428 -0.385786,0.654794 -1.984624,0.737408 l -1.885146,0.09741 z M 71.332656,68.08 c -2.509667,-3.039654 -3.173008,-4.23655 -3.670602,-6.62303 -0.2716,-1.302596 -0.450668,-2.739293 -0.397936,-3.192663 0.08354,-0.718224 0.240016,-0.819968 1.215882,-0.790589 0.619376,0.01866 1.799418,0.446711 2.64,0.957668 l 1.52,0.923955 v 5.042329 c 0,2.77328 -0.04151,5.04233 -0.09224,5.04233 -0.05073,0 -0.597529,-0.612 -1.215107,-1.36 z M 35.70536,65.954547 c -1.546486,-2.106736 -2.007696,-3.308323 -2.610419,-6.800928 -0.484048,-2.804902 -0.480976,-2.983168 0.05818,-3.377408 0.755523,-0.552454 1.866368,-0.52599 3.022768,0.07201 L 37.12,56.336435 v 5.591783 c 0,3.075481 -0.05973,5.591782 -0.132746,5.591782 -0.07301,0 -0.649862,-0.704454 -1.281894,-1.565453 z m 47.100544,-4.248451 c 0.185952,-0.185952 0.526982,-0.275133 0.757843,-0.198179 0.239664,0.07989 0.09461,0.224941 -0.338096,0.338096 -0.532272,0.13919 -0.657209,0.09755 -0.419747,-0.139917 z M 74.08,59.531594 c -2.663923,-1.960224 -2.900947,-2.426797 -1.837168,-3.616407 0.472298,-0.528163 0.537907,-0.465869 1.01112,0.96 0.61544,1.854435 2.231011,2.885623 3.666099,2.34 C 77.382022,59.039549 77.76,58.968902 77.76,59.058198 c 0,0.259492 -0.917437,2.383069 -1.02367,2.369476 -0.05298,-0.0068 -1.24833,-0.860016 -2.65633,-1.89608 z m 11.68,1.467587 c 0,-0.06645 0.252,-0.318448 0.56,-0.56 0.507539,-0.398039 0.518858,-0.38672 0.120819,0.120819 C 86.022781,61.09304 85.76,61.262554 85.76,60.999181 Z M 83.733334,60.586666 C 83.616,60.469334 83.52,60.257757 83.52,60.116499 c 0,-0.306057 3.53288,-2.610288 3.718118,-2.425046 0.07052,0.07052 -0.383804,0.79879 -1.009609,1.618381 -1.040339,1.362489 -1.946048,1.825961 -2.495175,1.276832 z m -1.14807,-0.613332 c 0.01536,-0.372784 0.09118,-0.448608 0.193331,-0.193334 0.09244,0.230998 0.08107,0.506998 -0.02525,0.613334 -0.106333,0.106333 -0.181965,-0.08267 -0.16807,-0.42 z m 1.23407,-1.694716 c 0.199751,-0.373242 0.250116,-0.686122 0.111924,-0.695293 -0.138192,-0.0092 0.540742,-0.319795 1.508742,-0.690279 1.259968,-0.482227 2.367654,-1.280297 3.8988,-2.809024 1.882,-1.87902 2.06824,-1.997852 1.551142,-0.989718 -0.740224,1.443133 -1.527728,2.1576 -4.329942,3.928355 -3.37119,2.130295 -3.155763,2.031571 -2.740666,1.255959 z M 79.94,57.381405 c 0.230998,-0.09244 0.506998,-0.08107 0.613334,0.02525 0.106333,0.106333 -0.08267,0.181965 -0.42,0.16807 C 79.76055,57.559363 79.684726,57.483542 79.94,57.381392 Z m 3.097523,-0.992231 c 0.119728,-0.302044 1.010349,-2.731468 1.979155,-5.398716 l 1.761466,-4.849543 4.10641,-2.735478 4.106409,-2.735479 -1.264368,3.585021 c -2.636915,7.476778 -5.019488,10.697277 -8.876678,11.998515 -1.83321,0.618442 -2.008973,0.6316 -1.812394,0.13568 z M 67.76,56.42807 c 0.22,-0.08877 0.58,-0.08877 0.8,0 0.22,0.08877 0.04,0.161405 -0.4,0.161405 -0.44,0 -0.62,-0.07263 -0.4,-0.161405 z M 72.478557,54.08 c 0.135219,-0.44 0.675622,-1.766365 1.200893,-2.947475 1.019452,-2.29232 0.999411,-2.278007 4.40055,-3.14257 0.792,-0.201325 2.334656,-0.837974 3.428125,-1.414774 1.61111,-0.849856 1.926889,-0.934307 1.665203,-0.445344 -0.17761,0.331865 -0.233562,0.747981 -0.124339,0.924704 0.109219,0.176723 0.07988,0.291984 -0.0652,0.256131 -0.145082,-0.03585 -1.409626,0.489984 -2.8101,1.168528 -1.880976,0.91135 -3.251107,1.908774 -5.243651,3.817254 -1.996009,1.911805 -2.633411,2.37554 -2.451478,1.783546 z M 102.54797,47.6 100.96,45.92 l 1.68,1.587971 c 0.924,0.873383 1.68,1.629383 1.68,1.68 0,0.238781 -0.29646,-0.02688 -1.77203,-1.587971 z M 77.149875,42.001418 C 77.712141,40.52255 80.531478,37.227267 80.911216,37.605107 81.03543,37.728698 77.170483,42.88 76.953539,42.88 c -0.07573,0 0.01261,-0.39536 0.196336,-0.878582 z M 86.88,42.286003 c 0.352,-0.355885 3.016,-2.670131 5.92,-5.142768 4.631699,-3.943705 6.08,-4.975763 6.08,-4.332598 0,0.395456 -1.586352,3.25967 -1.991693,3.596073 C 95.867414,37.253978 86.295594,42.876861 86.88,42.286003 Z m -11.034202,0.046 c -0.0032,-0.213398 0.289943,-1.178432 0.651402,-2.144521 0.876291,-2.3421 3.056256,-4.695642 6.269107,-6.768279 1.448243,-0.934275 2.927706,-1.993216 3.287693,-2.353204 0.518832,-0.518829 0.817069,-0.592723 1.438566,-0.356429 0.708845,0.269503 0.750887,0.385946 0.438311,1.214055 -0.271792,0.720055 -1.037335,1.267585 -3.579287,2.559978 -3.777376,1.920509 -6.21934,4.015501 -7.549024,6.476397 -0.523036,0.968 -0.95358,1.585402 -0.956768,1.372003 z M 91.499299,41.454851 C 91.82152,40.792912 92.705251,40.00808 93.978474,39.253126 95.066634,38.607907 96.043699,38.08 96.149731,38.08 c 0.618976,0 -0.731913,1.341018 -2.782054,2.761725 l -2.369079,1.641721 z M 69.947933,39.69831 c 1.412838,-0.33776 1.741261,-0.602153 2.244717,-1.807097 0.6048,-1.447488 0.552918,-2.587626 -0.19249,-4.230103 l -0.625782,-1.378886 1.166201,0.09889 c 1.007338,0.08542 1.221005,0.251463 1.568467,1.21889 0.795335,2.21441 0.463584,5.420253 -0.63695,6.155101 C 73.278442,39.884406 72.184,39.977664 71.04,39.962346 69.426611,39.940746 69.181626,39.881507 69.947933,39.69831 Z M 54.4,37.146173 c 0,-0.865607 -0.08367,-1.791872 -0.185936,-2.058371 -0.123594,-0.32208 0.144634,-0.655488 0.8,-0.994391 L 56,33.583565 v 2.088217 c 0,2.195338 0.130627,2.38097 1.138838,1.618394 C 57.938227,36.685552 58.24,36.682762 58.24,37.28 c 0,0.264 0.18,0.48632 0.4,0.494045 0.859939,0.03021 -2.221984,0.936605 -3.2,0.941136 -1.033014,0.0048 -1.04,-0.0058 -1.04,-1.569008 z m 15.36,1.133008 c 0,-0.06645 0.252,-0.318448 0.56,-0.56 0.507539,-0.398039 0.518858,-0.38672 0.120819,0.120819 C 70.022781,38.37304 69.76,38.542554 69.76,38.279181 Z M 59.077894,37.263363 C 58.471898,35.684157 58.999757,34.24 60.182979,34.24 c 1.009747,0 1.577021,0.732877 1.577021,2.037398 0,0.778493 -0.08978,0.840605 -1.962106,1.35753 -0.287846,0.07947 -0.610892,-0.08724 -0.72,-0.371565 z m 1.754532,-2.158937 c -0.564928,-0.564928 -0.723988,-0.04817 -0.284407,0.923996 0.40105,0.886951 0.414823,0.891316 0.519072,0.164445 0.0589,-0.410675 -0.0467,-0.900473 -0.234665,-1.088441 z m 6.375632,1.162486 c 0.328604,-2.16527 1.48967,-2.890557 2.85607,-1.784109 0.84103,0.681021 0.593702,1.675117 -0.418365,1.681565 C 68.324992,36.172784 67.52,36.5488 67.52,37.157322 67.52,37.488794 67.398829,37.76 67.250733,37.76 c -0.148099,0 -0.167303,-0.671891 -0.04268,-1.493088 z m 2.593276,-1.473578 c -0.532758,-0.532758 -0.834492,-0.0035 -0.33863,0.594023 0.299898,0.361353 0.473341,0.404509 0.5616,0.139731 0.07023,-0.210698 -0.03011,-0.54089 -0.22297,-0.733754 z m -6.813091,0.863085 c 0.09924,-1.206909 0.228931,-1.374966 1.560119,-2.021709 1.213984,-0.589798 1.419088,-0.619926 1.25176,-0.183872 -0.110068,0.286829 -0.20058,1.193728 -0.201143,2.015335 l -9.6e-4,1.493827 -1.358982,0.0064 -1.358979,0.0064 0.108243,-1.31633 z M 70.770525,36.48 c 0,-0.44 0.07263,-0.62 0.161405,-0.4 0.08877,0.22 0.08877,0.58 0,0.8 -0.08877,0.22 -0.161405,0.04 -0.161405,-0.4 z M 53.76,33.036486 c 0,-0.364921 0.873862,-1.146946 1.84,-1.646625 1.085354,-0.561337 0.868621,-0.201348 -0.56,0.930139 -0.704,0.557578 -1.28,0.879997 -1.28,0.716486 z M 65.04,32.0908 c 0.484,-0.07332 1.276,-0.07332 1.76,0 0.484,0.07332 0.088,0.133309 -0.88,0.133309 -0.968,0 -1.364,-0.05999 -0.88,-0.133309 z m 3.52,0 c 0.484,-0.07332 1.276,-0.07332 1.76,0 0.484,0.07332 0.088,0.133309 -0.88,0.133309 -0.968,0 -1.364,-0.05999 -0.88,-0.133309 z m 27.76,-0.216564 c 0,-0.310717 0.901552,-0.427476 1.309018,-0.16953 0.328214,0.207776 0.211427,0.286828 -0.429018,0.290394 -0.484,0.0027 -0.88,-0.05169 -0.88,-0.120864 z M 56.643002,29.64955 c 0.0095,-1.1744 2.948131,-5.00955 3.838444,-5.00955 0.265328,0 -0.588953,4.530287 -0.912604,4.83957 -0.4232,0.404413 -2.928928,0.549986 -2.92584,0.16998 z M 89.611341,29.52 c 0.0062,-0.132 0.217133,-0.6 0.468659,-1.04 0.326621,-0.571365 0.460563,-0.647436 0.468659,-0.266172 0.01597,0.751616 -0.324688,1.546172 -0.662896,1.546172 -0.157168,0 -0.280659,-0.108 -0.274422,-0.24 z M 87.83519,28.23062 c -0.530646,-0.478841 -1.322646,-1.121371 -1.76,-1.427844 -0.564566,-0.395616 -0.284748,-0.342726 0.96481,0.182364 1.33576,0.561314 1.768752,0.907751 1.796307,1.437224 0.01997,0.3837 0.01997,0.693415 0,0.688256 -0.01997,-0.0052 -0.47047,-0.40116 -1.001117,-0.88 z m -6.45918,-0.989367 c 0.20663,-1.666001 0.519843,-2.054301 1.232243,-1.527648 0.478694,0.353885 0.437533,0.50947 -0.438739,1.658458 L 81.202525,28.64 Z M 66.5,21.861404 c 0.230998,-0.09244 0.506998,-0.08107 0.613334,0.02526 0.106333,0.106333 -0.08267,0.181965 -0.42,0.16807 C 66.32055,22.039384 66.244726,21.963557 66.5,21.861404 Z m 4.46,0.0067 c 0.22,-0.08877 0.58,-0.08877 0.8,0 0.22,0.08877 0.04,0.161404 -0.4,0.161404 -0.44,0 -0.62,-0.07263 -0.4,-0.161404 z"
       style="fill:#939393;stroke-width:0.32" />
    <path
       id="path847"
       d="m 78.469373,102.86058 c -0.392163,-0.27469 -0.931904,-0.92269 -1.199418,-1.44 l -0.48639,-0.94058 6.488217,0.0149 6.488218,0.0149 -1.464355,0.76296 c -3.757642,1.9578 -8.259479,2.68525 -9.826272,1.58782 z M 51.44,100.56569 c 0.748,-0.0674 1.972,-0.0674 2.72,0 0.748,0.0674 0.136,0.1225 -1.36,0.1225 -1.496,0 -2.108,-0.0551 -1.36,-0.1225 z M 20.999268,73.04 c 1.258977,-5.239254 4.400025,-12.03343 7.693565,-16.641402 3.835593,-5.366352 10.300073,-10.990425 16.235708,-14.125001 l 1.888544,-0.997328 0.542537,1.602611 c 0.65816,1.94415 1.256477,2.649837 3.440378,4.057738 0.924,0.595676 1.68,1.139788 1.68,1.209139 0,0.06935 -0.854141,2.260925 -1.898086,4.870166 L 48.683824,57.76 46.984688,57.8594 c -3.144173,0.183938 -7.699885,-0.91509 -9.850221,-2.37628 -1.332477,-0.90544 -3.353897,-1.01399 -4.459661,-0.239482 -0.69177,0.484535 -0.731541,0.669732 -0.532579,2.48 0.310771,2.827524 1.068765,5.570154 2.028887,7.341053 0.488406,0.900845 2.417753,3.068266 4.628822,5.2 L 42.59128,73.92 H 31.689543 20.787807 Z m 72.974066,0.666666 c -0.117334,-0.117332 -0.211129,-0.369332 -0.208435,-0.56 0.0029,-0.209322 0.104279,-0.190208 0.255738,0.04824 0.187062,0.294499 2.565613,0.417859 9.355103,0.485187 l 9.10426,0.09028 -9.14667,0.07481 c -5.030664,0.04115 -9.242664,-0.02118 -9.359996,-0.138521 z M 89.92,55.52 c 0.41336,-0.44 0.823562,-0.8 0.911562,-0.8 0.088,0 -0.178202,0.36 -0.591562,0.8 -0.41336,0.44 -0.823562,0.8 -0.911562,0.8 -0.088,0 0.178202,-0.36 0.591562,-0.8 z m 11.17578,-3.28 -0.77578,-0.88 0.88,0.775779 c 0.82249,0.725085 1.02675,0.984221 0.77578,0.984221 -0.0573,0 -0.45332,-0.396 -0.88,-0.88 z M 61.28,51.061821 c -1.117994,-0.362797 -5.318077,-2.159882 -7.911632,-3.385143 l -0.871629,-0.411782 2.062259,-0.958166 c 1.1632,-0.540448 1.973706,-1.10145 1.859136,-1.286829 -0.128851,-0.208487 0.02058,-0.242823 0.408656,-0.0939 2.271437,0.871632 7.515968,1.023354 10.77321,0.311664 1.250464,-0.273219 1.121286,-0.88592 -0.133856,-0.634893 -2.171232,0.434247 -5.397549,0.590487 -7.502787,0.363335 L 57.76,44.728368 62.813494,42.195462 c 3.351495,-1.67983 4.987072,-2.664688 4.856272,-2.924182 -0.108476,-0.215203 0.03078,-0.109933 0.309469,0.233939 0.658323,0.812307 1.054311,2.284067 1.487552,5.528736 0.314122,2.352535 0.288743,2.762813 -0.237545,3.84 -1.1197,2.29177 -4.641789,3.261152 -7.949242,2.187866 z M 97.895779,49.04 97.12,48.16 98,48.935779 c 0.822493,0.725085 1.026749,0.984221 0.775779,0.984221 -0.05732,0 -0.453318,-0.396 -0.88,-0.88 z M 49.879181,45.52 C 49.481142,45.012461 49.492461,45.001142 50,45.399181 50.53304,45.817219 50.702554,46.08 50.439181,46.08 c -0.06645,0 -0.318448,-0.252 -0.56,-0.56 z M 49.2,40.42807 c 0.22,-0.08877 0.58,-0.08877 0.8,0 0.22,0.08877 0.04,0.161405 -0.4,0.161405 -0.44,0 -0.62,-0.07263 -0.4,-0.161405 z m 14.56609,-2.889827 c 0.31135,-0.08113 0.74335,-0.0758 0.96,0.01184 0.216649,0.08766 -0.03809,0.154039 -0.56609,0.147517 -0.528,-0.0065 -0.705261,-0.07824 -0.39391,-0.159373 z"
       style="fill:#fdb301;stroke-width:0.32" />
    <path
       id="path845"
       d="m 78.156531,94.373693 c -3.195977,-0.426451 -4.860403,-2.393952 -5.122355,-6.055088 -0.196861,-2.751379 0.440573,-4.66137 2.01785,-6.046237 3.061836,-2.688326 8.571744,-1.955162 10.290912,1.369341 0.564377,1.091382 0.351731,1.304601 -1.614682,1.619043 -1.075693,0.17201 -1.389536,0.09691 -1.795872,-0.429725 -0.770886,-0.99912 -1.958685,-1.312713 -3.121014,-0.82399 -1.354052,0.569334 -1.69137,1.33247 -1.69137,3.82647 0,1.819507 0.109923,2.225507 0.785456,2.901037 C 78.40057,91.229661 79.056522,91.52 79.68,91.52 c 1.067821,0 2.56,-1.203917 2.56,-2.065456 0,-0.614413 0.04613,-0.613578 2.114093,0.03829 l 1.690345,0.532832 -0.474422,1.135456 c -1.162883,2.783168 -3.392058,3.749162 -7.413485,3.212571 z M 108.8,94.406714 c -3.93306,-0.507856 -6.07877,-4.188343 -5.12375,-8.788644 0.76566,-3.688192 3.66774,-5.412684 8.08995,-4.807273 1.39043,0.190355 1.90405,0.459043 3.0338,1.587069 1.69259,1.690003 1.7269,2.27016 0.16,2.705308 -1.70065,0.472295 -1.94446,0.432576 -2.73535,-0.445596 -1.22167,-1.356506 -3.40477,-1.123044 -4.21883,0.451168 -0.98123,1.897491 -0.38979,5.691244 0.96852,6.212476 1.53028,0.587226 3.66566,-0.346387 3.66566,-1.602675 0,-0.690016 0.46792,-0.738902 2.20328,-0.230195 1.24707,0.365568 1.63451,0.61585 1.49919,0.968477 -0.10036,0.261533 -0.18247,0.596688 -0.18247,0.74479 0,0.484391 -1.65691,2.251626 -2.51812,2.685792 -1.08438,0.546675 -3.02118,0.754403 -4.84188,0.519303 z M 16.64,87.68 v -6.72 h 1.911874 1.911874 l 0.08813,5.04 0.08813,5.04 3.28,0.09119 3.28,0.0912 V 92.811194 94.4 h -5.28 -5.28 z m 12.48,1.92 v -4.8 h 1.76 1.76 v 4.8 4.8 h -1.76 -1.76 z m 6.08,0 v -4.8 h 1.76 c 1.571632,0 1.76,0.07154 1.76,0.668445 0,0.643261 0.0371,0.637232 0.984554,-0.16 1.440198,-1.211847 3.527785,-1.165338 4.80006,0.106941 0.934682,0.934681 0.935386,0.938406 0.935386,4.96 V 94.4 H 43.68 41.92 V 91.498963 C 41.92,88.28223 41.610896,87.36 40.532742,87.36 39.259738,87.36 39.04,87.934685 39.04,91.264 V 94.4 H 37.12 35.2 Z m 13.585456,4.014544 C 48.034992,92.864083 48,92.650237 48,88.814544 V 84.8 h 1.76 1.76 v 3.017142 C 51.52,90.87257 51.859866,91.84 52.933261,91.84 53.997866,91.84 54.4,90.714483 54.4,87.734803 V 84.8 h 1.92 1.92 v 4.8 4.8 h -1.76 c -1.546666,0 -1.76,-0.07757 -1.76,-0.64 0,-0.352 -0.08529,-0.64 -0.189526,-0.64 -0.10424,0 -0.555661,0.288 -1.003156,0.64 -1.222896,0.96193 -3.710796,0.885613 -4.741862,-0.145456 z M 61.281789,91.837462 63.087658,89.274925 61.460266,87.037462 59.83287,84.8 h 2.18464 2.18464 l 0.739546,1.315843 0.739542,1.315843 0.839383,-1.313539 c 0.837773,-1.311027 0.843257,-1.313545 2.867469,-1.315843 l 2.028089,-0.0022 -1.468089,2.057341 C 69.14064,87.98888 68.48,89.086595 68.48,89.296704 c 0,0.210112 0.623149,1.264307 1.384774,2.342659 C 70.6264,92.717712 71.354896,93.78 71.483658,94 71.66105,94.303088 71.210816,94.4 69.62536,94.4 H 67.532947 L 66.595885,92.759267 65.658826,91.118538 64.589411,92.75352 63.52,94.388502 l -2.022042,0.0058 -2.022038,0.0058 1.805869,-2.562537 z M 88.32,87.68 v -6.72 h 1.859738 1.859737 L 94.579738,84.680582 97.12,88.401165 97.210157,84.680582 97.30031,80.96 H 99.210157 101.12 v 6.72 6.72 l -2,-0.01315 -2,-0.01315 -2.56,-3.746851 -2.56,-3.746855 -0.09016,3.76 -0.09015,3.76 H 90.069843 88.32 v -6.72 z m -59.2,-5.6 v -1.12 h 1.76 1.76 v 1.12 1.12 h -1.76 -1.76 z"
       style="fill:#2895d4;stroke-width:0.32" />
    <path
       id="path843"
       d="m 80.72609,103.45824 c 0.31135,-0.0811 0.74335,-0.0758 0.96,0.0119 0.216649,0.0877 -0.03809,0.15403 -0.56609,0.14751 -0.528,-0.007 -0.705261,-0.0782 -0.39391,-0.15937 z M 77.399181,102.8 c -0.398039,-0.50754 -0.38672,-0.51886 0.120819,-0.12082 0.53304,0.41804 0.702554,0.68082 0.439181,0.68082 -0.06645,0 -0.318448,-0.252 -0.56,-0.56 z M 52.56,100.89941 c 0.308,-0.0805 0.812,-0.0805 1.12,0 0.308,0.0805 0.056,0.14635 -0.56,0.14635 -0.616,0 -0.868,-0.0659 -0.56,-0.14635 z m 15.22,-0.31801 c 0.230998,-0.0924 0.506998,-0.0811 0.613334,0.0252 0.106333,0.10634 -0.08267,0.18197 -0.42,0.16807 -0.372784,-0.0154 -0.448608,-0.0912 -0.193334,-0.19333 z m -52.5,-0.34124 c 5.676,-0.049 14.964,-0.049 20.64,0 5.676,0.049 1.032,0.089 -10.32,0.089 -11.352,0 -15.996,-0.0401 -10.32,-0.089 z m 43.689654,0.004 c 0.841312,-0.0661 2.137312,-0.0653 2.88,0.002 0.742692,0.0671 0.05435,0.12122 -1.529654,0.12025 -1.584,-9.6e-4 -2.191654,-0.0559 -1.350346,-0.12202 z m 41.270346,-0.004 c 4.884,-0.0497 12.876,-0.0497 17.76,0 4.884,0.0497 0.888,0.0903 -8.88,0.0903 -9.768,0 -13.764,-0.0406 -8.88,-0.0903 z M 40.049318,70.707827 c -3.175945,-2.85816 -4.248953,-3.965635 -3.235148,-3.339069 0.228764,0.141383 0.304467,-1.593801 0.24,-5.501116 L 36.96,56.16 38.4,56.852192 C 40.213702,57.724016 44.218451,58.56 46.5812,58.56 h 1.808182 l -0.228537,0.88 C 47.287197,62.804064 46.688016,66.635386 46.50937,70 l -0.208135,3.92 h -1.341299 c -1.248931,0 -1.587098,-0.221206 -4.910618,-3.212173 z m 6.790455,2.74273 c -0.09908,-0.258195 -0.10593,-0.654195 -0.01523,-0.88 0.09071,-0.225805 0.176291,-0.07377 0.190185,0.337865 0.024,0.711216 0.120749,0.743034 1.945847,0.64 1.05632,-0.05963 1.92032,-3.2e-4 1.92,0.131578 -3.2e-4,0.132 -0.869101,0.24 -1.930624,0.24 -1.401111,0 -1.979415,-0.128653 -2.110186,-0.469443 z M 68.08,73.70807 c 0.22,-0.08877 0.58,-0.08877 0.8,0 0.22,0.08877 0.04,0.161405 -0.4,0.161405 -0.44,0 -0.62,-0.07263 -0.4,-0.161405 z m 1.92,0 c 0.22,-0.08877 0.58,-0.08877 0.8,0 0.22,0.08877 0.04,0.161405 -0.4,0.161405 -0.44,0 -0.62,-0.07263 -0.4,-0.161405 z m 6.96,-0.381318 c -0.528,-0.324973 -1.716,-1.273776 -2.64,-2.108458 l -1.68,-1.517603 v -5.090345 c 0,-2.79969 0.08871,-5.090346 0.197126,-5.090346 0.108423,0 0.884874,0.504851 1.725453,1.121894 2.179792,1.600116 3.530279,2.078106 5.871344,2.078106 1.701114,0 5.44697,-0.81336 8.156253,-1.771018 0.886362,-0.313305 2.19343,1.714813 3.350598,5.198973 1.383392,4.165309 1.65857,5.729338 1.212602,6.892045 L 92.81584,73.92 85.36792,73.9187 C 78.687722,73.917731 77.821043,73.8567 76.96,73.326752 Z M 50.905264,72.133334 c 0.01536,-0.372784 0.09118,-0.448608 0.193331,-0.193334 0.09244,0.230998 0.08107,0.506998 -0.02525,0.613334 -0.106336,0.106333 -0.181965,-0.08267 -0.16807,-0.42 z M 47.11424,68.48 c 0,-0.616 0.06586,-0.868 0.146346,-0.56 0.08049,0.308 0.08049,0.812 0,1.12 -0.08049,0.308 -0.146346,0.056 -0.146346,-0.56 z M 70.695779,67.6 69.92,66.72 70.8,67.495779 c 0.822493,0.725085 1.026749,0.984221 0.775779,0.984221 -0.05732,0 -0.453318,-0.396 -0.88,-0.88 z M 52.670941,66.72 c 1.767849,-9.638672 3.2744,-16.940694 3.510592,-17.015309 0.925552,-0.292387 1.064291,0.424967 0.786061,4.064378 -0.209732,2.743363 -0.524548,4.358217 -1.245924,6.390931 -1.192262,3.35959 -3.291763,7.87416 -3.050729,6.56 z M 35.479181,66 C 35.081142,65.492461 35.092461,65.481142 35.6,65.879181 c 0.308,0.241552 0.56,0.493552 0.56,0.56 0,0.263373 -0.262781,0.09386 -0.680819,-0.439181 z m 34.049824,0.16 c -0.479738,-0.620301 -0.781517,-1.2 -0.624695,-1.2 0.07815,0 0.377965,0.36 0.666263,0.8 0.539469,0.823331 0.509424,1.112432 -0.04157,0.4 z M 47.385264,65.733334 c 0.01536,-0.372784 0.09118,-0.448608 0.193331,-0.193334 0.09244,0.230998 0.08107,0.506998 -0.02525,0.613334 -0.106336,0.106333 -0.181965,-0.08267 -0.16807,-0.42 z m 0.32,-1.92 c 0.01536,-0.372784 0.09118,-0.448608 0.193331,-0.193334 0.09244,0.230998 0.08107,0.506998 -0.02525,0.613334 -0.106336,0.106333 -0.181965,-0.08267 -0.16807,-0.42 z m 0.32,-1.6 c 0.01536,-0.372784 0.09118,-0.448608 0.193331,-0.193334 0.09244,0.230998 0.08107,0.506998 -0.02525,0.613334 -0.106336,0.106333 -0.181965,-0.08267 -0.16807,-0.42 z M 79.44,62.1708 c 0.484,-0.07332 1.276,-0.07332 1.76,0 0.484,0.07332 0.088,0.133309 -0.88,0.133309 -0.968,0 -1.364,-0.05999 -0.88,-0.133309 z M 48.345264,60.933334 c 0.01536,-0.372784 0.09118,-0.448608 0.193331,-0.193334 0.09244,0.230998 0.08107,0.506998 -0.02525,0.613334 -0.106336,0.106333 -0.181965,-0.08267 -0.16807,-0.42 z M 67.250525,60.48 c 0,-0.44 0.07263,-0.62 0.161405,-0.4 0.08877,0.22 0.08877,0.58 0,0.8 -0.08877,0.22 -0.161405,0.04 -0.161405,-0.4 z M 32.985264,59.973334 c 0.01536,-0.372784 0.09118,-0.448608 0.193331,-0.193334 0.09244,0.230998 0.08107,0.506998 -0.02525,0.613334 -0.106336,0.106333 -0.181965,-0.08267 -0.16807,-0.42 z M 66.610525,59.84 c 0,-0.44 0.07263,-0.62 0.161405,-0.4 0.08877,0.22 0.08877,0.58 0,0.8 -0.08877,0.22 -0.161405,0.04 -0.161405,-0.4 z m 21.317232,-0.809206 0.540102,-1.457264 0.381725,1.053235 c 0.564432,1.557344 0.520355,1.710249 -0.515754,1.789197 l -0.946172,0.0721 z M 86.56,59.84 c 0.108774,-0.176 0.261274,-0.32 0.338886,-0.32 0.07761,0 0.141114,0.144 0.141114,0.32 0,0.176 -0.152499,0.32 -0.338886,0.32 -0.186388,0 -0.249888,-0.144 -0.141114,-0.32 z M 73.879181,58.32 C 73.481142,57.812461 73.492461,57.801142 74,58.199181 c 0.308,0.241552 0.56,0.493552 0.56,0.56 0,0.263373 -0.262781,0.09386 -0.680819,-0.439181 z m -41.188656,-0.4 c 0,-0.44 0.07263,-0.62 0.161405,-0.4 0.08877,0.22 0.08877,0.58 0,0.8 -0.08877,0.22 -0.161405,0.04 -0.161405,-0.4 z m 37.850637,0.142346 c -0.596487,-0.477885 -0.592564,-0.483792 0.09884,-0.14874 0.396,0.191901 0.72,0.415844 0.72,0.497652 0,0.24487 -0.165955,0.174156 -0.818838,-0.348912 z m 4.052684,-0.1085 c -0.333385,-0.333385 -0.711811,-1.231523 -0.840944,-1.995862 l -0.23479,-1.389709 2.092701,-1.944019 C 77.049994,51.287325 78.886525,50.064362 81.491757,48.70808 83.57529,47.623392 85.928,46.36601 86.72,45.913894 c 0.792,-0.452115 1.131677,-0.59254 0.754838,-0.31206 -0.453404,0.337468 -1.371968,2.40606 -2.715603,6.115497 l -2.030441,5.60553 -1.124397,-0.227456 c -1.690727,-0.342019 -2.210682,-0.245811 -3.499859,0.64759 -1.398932,0.969459 -2.675418,1.046125 -3.510692,0.210851 z M 46.72,58.115011 c 0,-0.06874 0.493898,-0.182653 1.097552,-0.253123 0.603654,-0.07047 1.027158,-0.01424 0.941117,0.124989 C 48.603814,58.237434 46.72,58.355837 46.72,58.115011 Z m 40.32,-0.640774 c 0,-0.06917 0.223478,-0.21152 0.496621,-0.316336 0.284774,-0.109277 0.413222,-0.05563 0.301113,0.125763 C 87.649811,57.587731 87.04,57.733408 87.04,57.474237 Z M 68.1,57.061405 c 0.230998,-0.09244 0.506998,-0.08107 0.613334,0.02525 0.106333,0.106333 -0.08267,0.181965 -0.42,0.16807 C 67.92055,57.239363 67.844726,57.163542 68.1,57.061392 Z M 35.84,55.68 C 35.551587,55.493613 35.512118,55.367843 35.741114,55.364899 35.950726,55.362339 36.211226,55.504 36.32,55.68 c 0.245536,0.39729 0.134758,0.39729 -0.48,0 z m 21.539158,-1.44 c 0.0019,-1.056 0.06154,-1.449421 0.132756,-0.874269 0.07122,0.575152 0.06975,1.439152 -0.0033,1.92 -0.07302,0.480848 -0.131287,0.01027 -0.129492,-1.045731 z M 72,55.879181 c 0,-0.06645 0.252,-0.318448 0.56,-0.56 0.507539,-0.398039 0.518858,-0.38672 0.120819,0.120819 C 72.262781,55.97304 72,56.142554 72,55.879181 Z M 89.44,55.04 c 0.318557,-0.352 0.651194,-0.64 0.739194,-0.64 0.088,0 -0.100637,0.288 -0.419194,0.64 -0.318557,0.352 -0.651194,0.64 -0.739194,0.64 -0.088,0 0.100637,-0.288 0.419194,-0.64 z m -55.28,0.10807 c 0.22,-0.08877 0.58,-0.08877 0.8,0 0.22,0.08877 0.04,0.161405 -0.4,0.161405 -0.44,0 -0.62,-0.07263 -0.4,-0.161405 z M 88.48,54.08 c 0.318557,-0.352 0.651194,-0.64 0.739194,-0.64 0.088,0 -0.100637,0.288 -0.419194,0.64 -0.318557,0.352 -0.651194,0.64 -0.739194,0.64 -0.088,0 0.100637,-0.288 0.419194,-0.64 z m 1.956189,-1.338554 c 0.09242,-0.149536 0.302083,-0.18904 0.465923,-0.08778 0.418682,0.258759 0.371539,0.359667 -0.168035,0.359667 -0.256259,0 -0.390307,-0.122348 -0.297888,-0.271887 z m 0.647725,-0.510393 c -0.08462,-0.136922 0.117126,-0.604922 0.448332,-1.04 0.584621,-0.767971 0.596807,-0.770045 0.417652,-0.07105 -0.101498,0.396 -0.320247,0.72 -0.486106,0.72 -0.165859,0 -0.212566,0.144 -0.103792,0.32 0.108774,0.176 0.12577,0.32 0.03777,0.32 -0.088,0 -0.229236,-0.112026 -0.313856,-0.248947 z M 62.64,51.94807 c 0.22,-0.08877 0.58,-0.08877 0.8,0 0.22,0.08877 0.04,0.161405 -0.4,0.161405 -0.44,0 -0.62,-0.07263 -0.4,-0.161405 z m 2.58,-0.0067 c 0.230998,-0.09244 0.506998,-0.08107 0.613334,0.02525 0.106333,0.106333 -0.08267,0.181965 -0.42,0.168071 C 65.04055,52.119373 64.964726,52.043552 65.22,51.941402 Z m 10.94,-0.862233 c 0,-0.06645 0.252,-0.318448 0.56,-0.56 0.507539,-0.398039 0.518858,-0.38672 0.120819,0.120819 C 76.422781,51.17304 76.16,51.342554 76.16,51.079181 Z m -7.68,-0.32 c 0,-0.06645 0.252,-0.318448 0.56,-0.56 0.507539,-0.398039 0.518858,-0.38672 0.120819,0.120819 C 68.742781,50.85304 68.48,51.022554 68.48,50.759181 Z M 71.693008,48.96 c -0.784848,-0.792 -1.404176,-1.526013 -1.376288,-1.631136 0.0279,-0.105126 -0.155382,-1.545126 -0.407267,-3.2 -0.251885,-1.654877 -0.460557,-3.114899 -0.463712,-3.244499 -0.0032,-0.129597 0.878701,-0.211258 1.959689,-0.181466 1.837565,0.05065 2.024928,-0.01242 2.88,-0.969414 0.781447,-0.874589 0.914311,-1.290675 0.912784,-2.858535 -9.6e-4,-1.009222 -0.155478,-2.388454 -0.343324,-3.064956 -0.18785,-0.676506 -0.294528,-1.277021 -0.237069,-1.334484 0.130304,-0.1303 5.809737,0.821738 6.003881,1.006426 0.07794,0.07414 -0.669027,0.959034 -1.65992,1.966432 C 76.176074,38.28048 75.115738,40.79905 74.606394,45.793517 74.434845,47.47569 74.105798,48.838883 73.726211,49.44 L 73.12,50.4 Z M 71.489597,49.52 70.88,48.8 71.6,49.409597 c 0.676621,0.57287 0.865677,0.830403 0.609597,0.830403 -0.06072,0 -0.384723,-0.324 -0.72,-0.72 z M 28.48,49.799181 c 0,-0.06645 0.252,-0.318448 0.56,-0.56 0.507538,-0.398039 0.518856,-0.38672 0.120818,0.120819 C 28.74278,49.89304 28.48,50.062554 28.48,49.799181 Z m 24.625488,-1.272339 c 0.150685,-0.150868 0.531626,-0.128333 0.85088,0.05033 0.49721,0.278253 0.459053,0.316455 -0.272832,0.273162 -0.469699,-0.02778 -0.728656,-0.172704 -0.578048,-0.323491 z M 75.2,47.670205 c 0,-0.54224 0.964429,-2.28425 1.980477,-3.577255 0.51303,-0.652873 2.617302,-2.445238 4.676153,-3.983024 3.954692,-2.953817 6.313226,-5.173209 7.6596,-7.207721 0.730631,-1.104056 0.922272,-1.213966 1.822292,-1.045122 0.553184,0.103779 2.26311,0.358389 3.79983,0.565803 L 97.932394,32.8 92.166195,37.704621 C 88.994787,40.40216 86.4,42.750659 86.4,42.923507 c 0,0.172845 -0.144,0.225267 -0.32,0.116493 -0.176,-0.108774 -0.32,-0.05767 -0.32,0.113574 0,0.434039 -3.618621,2.412458 -6.442349,3.52224 C 76.361485,47.837651 75.2,48.118144 75.2,47.670205 Z M 31.68,46.599181 c 0,-0.06645 0.252,-0.318448 0.56,-0.56 0.507539,-0.398039 0.518858,-0.38672 0.120819,0.120819 C 31.94278,46.69304 31.68,46.862554 31.68,46.599181 Z m 28.1,-1.057776 c 0.230998,-0.09244 0.506998,-0.08107 0.613334,0.02525 0.106333,0.106333 -0.08267,0.181965 -0.42,0.16807 C 59.60055,45.719363 59.524726,45.643542 59.78,45.541392 Z m 16.7,-2.274778 c 0,-0.212646 0.139482,-0.386627 0.309958,-0.386627 0.170474,0 0.22889,-0.252 0.129812,-0.56 -0.131079,-0.407482 -0.09867,-0.446618 0.119004,-0.143699 0.221415,0.308128 0.754208,-0.190762 2.050464,-1.92 0.963226,-1.284967 1.838183,-2.568778 1.944349,-2.852912 0.106167,-0.284138 1.673882,-1.277277 3.483815,-2.206976 l 3.290784,-1.690362 -0.994391,1.246976 C 85.430499,36.487693 84.372589,37.42209 81.6,39.358102 c -1.32,0.921716 -3.012,2.265191 -3.76,2.985498 -0.748,0.72031 -1.36,1.13567 -1.36,0.923027 z m -0.96,-0.725513 c 0,-0.186388 0.144,-0.249888 0.32,-0.141114 0.176,0.108774 0.32,0.261274 0.32,0.338886 0,0.07761 -0.144,0.141114 -0.32,0.141114 -0.176,0 -0.32,-0.152499 -0.32,-0.338886 z m -26.3,-1.479709 c 0.230998,-0.09244 0.506998,-0.08107 0.613334,0.02525 0.106333,0.106333 -0.08267,0.181965 -0.42,0.16807 C 49.04055,41.239363 48.964726,41.163542 49.22,41.061392 Z m 21.42,-0.967239 c 0.396,-0.07628 1.044,-0.07628 1.44,0 0.396,0.07627 0.072,0.138679 -0.72,0.138679 -0.792,0 -1.116,-0.06241 -0.72,-0.138679 z m 7.44,-0.214985 c 0,-0.06645 0.252,-0.318448 0.56,-0.56 0.507539,-0.398039 0.518858,-0.38672 0.120819,0.120819 C 78.342781,39.97304 78.08,40.142554 78.08,39.879181 Z M 79.84,38.08 c 0.318557,-0.352 0.651194,-0.64 0.739194,-0.64 0.088,0 -0.100637,0.288 -0.419194,0.64 -0.318557,0.352 -0.651194,0.64 -0.739194,0.64 -0.088,0 0.100637,-0.288 0.419194,-0.64 z M 54.175891,36.8 c 0,-0.968 0.05999,-1.364 0.133309,-0.88 0.07332,0.484 0.07332,1.276 0,1.76 -0.07332,0.484 -0.133309,0.088 -0.133309,-0.88 z m 13.470618,1.403574 c -0.194419,-0.08025 -0.288128,-0.48782 -0.208243,-0.905721 0.144726,-0.757075 0.86366,-1.124967 2.215068,-1.133485 0.381332,-0.0026 0.765965,-0.184368 0.854736,-0.404368 0.08877,-0.22 0.172772,0.04568 0.186666,0.590403 0.03959,1.55216 -1.503952,2.490557 -3.048227,1.853171 z M 61.38,37.221405 c 0.230998,-0.09244 0.506998,-0.08107 0.613334,0.02525 0.106333,0.106336 -0.08267,0.181965 -0.42,0.16807 C 61.20055,37.399363 61.124726,37.323542 61.38,37.221392 Z m 2.38,-0.321991 c 0.308,-0.08049 0.812,-0.08049 1.12,0 0.308,0.08049 0.056,0.146346 -0.56,0.146346 -0.616,0 -0.868,-0.06586 -0.56,-0.146346 z m 14.32,0.120455 c 0,-0.05507 0.468,-0.523072 1.04,-1.04 L 80.16,35.04 79.220131,36.08 C 78.344042,37.049427 78.08,37.267088 78.08,37.019869 Z M 53.44,33.544195 c 0,-0.34208 0.124134,-0.545248 0.275853,-0.451478 0.151718,0.09377 0.884265,-0.391197 1.627878,-1.077699 0.938951,-0.866833 1.759024,-1.31154 2.684147,-1.455551 L 59.36,30.3521 58.4,31.174539 c -0.528,0.452341 -1.86,1.310504 -2.96,1.907029 -1.82199,0.988058 -2,1.029235 -2,0.462627 z M 81.164026,31.61814 c -0.227188,-2.173632 -0.213223,-4.581013 0.02131,-3.673466 0.123692,0.47863 0.324518,0.348854 1.10727,-0.715519 l 0.956173,-1.300193 1.250931,0.715519 c 0.688016,0.393535 1.79304,1.193431 2.455613,1.777546 l 1.204678,1.062027 -1.228278,-0.166497 c -0.940391,-0.127473 -1.189805,-0.06625 -1.064141,0.261233 0.188605,0.491493 -0.901078,1.572392 -3.023555,2.999181 L 81.368058,33.570163 81.164029,31.61814 Z M 53.76,32.519181 c 0,-0.06645 0.252,-0.318448 0.56,-0.559999 0.507539,-0.398038 0.518858,-0.38672 0.120819,0.120818 C 54.022781,32.61304 53.76,32.782554 53.76,32.519181 Z m 9.36609,-0.420938 c 0.31135,-0.08113 0.74335,-0.0758 0.96,0.01184 0.216649,0.08766 -0.03809,0.154039 -0.56609,0.147517 -0.528,-0.0065 -0.705261,-0.07824 -0.39391,-0.159373 z m 8.32,0 c 0.31135,-0.08113 0.74335,-0.0758 0.96,0.01184 C 72.622739,32.197743 72.368,32.264122 71.84,32.2576 71.312,32.2511 71.134739,32.17936 71.44609,32.098227 Z M 95.62,31.781404 c 0.230998,-0.09244 0.507002,-0.08107 0.613334,0.02526 0.106333,0.106333 -0.08267,0.181965 -0.42,0.16807 C 95.44055,31.959384 95.364726,31.883557 95.62,31.781404 Z M 75.68,30.689692 C 73.744,30.562269 70.072,30.310174 67.52,30.129481 64.968,29.948789 62.147171,29.791736 61.251494,29.780475 L 59.622989,29.76 60.183658,27.176446 c 0.478707,-2.205896 0.49214,-2.557258 0.09188,-2.403665 -0.259324,0.09951 -0.382608,0.04046 -0.27592,-0.132169 0.106074,-0.171632 1.229552,-0.609015 2.496621,-0.971964 1.267066,-0.362949 2.835811,-0.8173 3.486103,-1.00967 1.756275,-0.519543 6.54119,-0.161996 8.31142,0.621062 2.853028,1.262029 6.026234,4.783685 6.026234,6.687972 0,0.830204 -0.126307,1.05861 -0.56,1.012673 -0.308,-0.03262 -2.144,-0.163569 -4.08,-0.290993 z M 91.44,30.50807 c 0.22,-0.08877 0.58,-0.08877 0.8,0 0.22,0.08877 0.04,0.161404 -0.4,0.161404 -0.44,0 -0.62,-0.07263 -0.4,-0.161404 z m -33.9,-0.646666 c 0.230998,-0.09244 0.506998,-0.08107 0.613334,0.02526 0.106333,0.106333 -0.08267,0.181965 -0.42,0.16807 -0.372784,-0.01535 -0.448608,-0.09118 -0.193334,-0.19333 z m 31.36384,-1.485667 c -0.119056,-0.583943 -0.07446,-0.794354 0.125907,-0.59399 0.17065,0.170649 0.253616,0.577568 0.184368,0.904263 -0.09325,0.439941 -0.173721,0.359474 -0.310275,-0.310273 z M 84.8,26.24 c -0.288413,-0.186387 -0.327882,-0.312156 -0.09889,-0.3151 0.209612,-0.0027 0.470112,0.1391 0.578886,0.3151 0.245536,0.397288 0.134758,0.397288 -0.48,0 z M 58.24,26.119182 c 0,-0.06645 0.252,-0.31845 0.56,-0.56 0.507539,-0.398038 0.518858,-0.38672 0.120819,0.120818 C 58.502781,26.213039 58.24,26.382553 58.24,26.119182 Z m 9.845731,-4.271096 c 0.575152,-0.07122 1.439152,-0.06975 1.92,0.0033 0.480848,0.07302 0.01027,0.131286 -1.045731,0.12949 -1.056,-0.0018 -1.449421,-0.06154 -0.874269,-0.132756 z"
       style="fill:#6a6a6a;stroke-width:0.32" />
    <path
       id="path841"
       d="m 50.48,94.494166 c 0.396,-0.07628 1.044,-0.07628 1.44,0 0.396,0.07627 0.072,0.138679 -0.72,0.138679 -0.792,0 -1.116,-0.06241 -0.72,-0.138679 z m 27.68,0.0052 c 0.308,-0.08049 0.812,-0.08049 1.12,0 0.308,0.08049 0.056,0.146346 -0.56,0.146346 -0.616,0 -0.868,-0.06586 -0.56,-0.146346 z m 2.4,0.0086 c 0.22,-0.08877 0.58,-0.08877 0.8,0 0.22,0.08877 0.04,0.161405 -0.4,0.161405 -0.44,0 -0.62,-0.07263 -0.4,-0.161405 z m 28.32609,-0.0098 c 0.31135,-0.08113 0.74335,-0.0758 0.96,0.01187 0.21665,0.08766 -0.0381,0.154039 -0.56609,0.147517 -0.528,-0.0065 -0.70526,-0.07824 -0.39391,-0.159373 z m 2.24,0 c 0.31135,-0.08113 0.74335,-0.0758 0.96,0.01187 0.21665,0.08766 -0.0381,0.154039 -0.56609,0.147517 -0.528,-0.0065 -0.70526,-0.07824 -0.39391,-0.159373 z M 16.470221,87.600205 16.48,80.8 h 2.08 2.08 l 0.08807,5.028896 0.08807,5.028893 3.11193,0.107888 3.111931,0.107885 -3.2,-0.01677 -3.2,-0.01677 -0.08813,-5.04 -0.08813,-5.04 h -1.90551 -1.90551 l -0.09614,6.720204 -0.09614,6.720205 0.0098,-6.800205 z M 28.947068,89.520362 28.96,84.64 h 1.92 1.92 l 0.01293,4.880362 0.01293,4.880361 L 32.724589,89.600362 32.623331,84.8 H 30.88 29.136669 l -0.101267,4.800362 -0.101267,4.800361 0.01293,-4.880361 z M 41.716874,91.36 c 9.6e-4,-1.76 0.05457,-2.439174 0.119414,-1.509274 0.06485,0.929901 0.06417,2.369901 -0.0016,3.2 -0.06568,0.8301 -0.118733,0.06927 -0.117901,-1.690726 z m 3.845289,-0.64 c 6.4e-4,-2.112 0.05242,-2.934358 0.115088,-1.827459 0.06267,1.106896 0.06215,2.834896 -0.0013,3.84 C 45.612672,93.737642 45.561402,92.832 45.562032,90.72 Z M 88.150221,87.600205 88.16,80.8 90.08,80.77715 92,80.7543 l -1.83368,0.117946 -1.83368,0.117948 -0.0961,6.705098 -0.0961,6.705101 0.0098,-6.800205 z M 91.962163,90.72 c 6.4e-4,-2.112 0.05242,-2.934358 0.115088,-1.827459 0.06267,1.106896 0.06215,2.834896 -0.0013,3.84 C 92.012672,93.737642 91.961402,92.832 91.962032,90.72 Z M 53.44,93.959181 c 0,-0.06645 0.252,-0.318448 0.56,-0.56 0.507539,-0.398039 0.518858,-0.38672 0.120819,0.120819 C 53.702781,94.05304 53.44,94.222554 53.44,93.959181 Z M 114.72,93.12 c 0.31856,-0.352 0.65119,-0.64 0.73919,-0.64 0.088,0 -0.10063,0.288 -0.41919,0.64 -0.31856,0.352 -0.65119,0.64 -0.73919,0.64 -0.088,0 0.10063,-0.288 0.41919,-0.64 z m -10.12082,-0.88 c -0.39804,-0.507539 -0.38672,-0.518858 0.12082,-0.120819 0.53304,0.418038 0.70255,0.680819 0.43918,0.680819 -0.0665,0 -0.31845,-0.252 -0.56,-0.56 z M 47.74881,88.4 47.68,84.48 l 2,0.06051 2,0.06051 -1.829981,0.115162 -1.829981,0.115165 L 47.918829,88.57567 47.817622,92.32 Z M 64.96,92.039181 c 0,-0.06645 0.252,-0.318448 0.56,-0.56 C 66.027539,91.081142 66.038858,91.092461 65.640819,91.6 65.222781,92.13304 64.96,92.302554 64.96,92.039181 Z M 52.74,91.621405 c 0.230998,-0.09244 0.506998,-0.08107 0.613334,0.02525 0.106333,0.106333 -0.08267,0.181965 -0.42,0.16807 C 52.56055,91.799363 52.484726,91.723542 52.74,91.621392 Z M 107.57052,88.96 c 0,-0.44 0.0726,-0.62 0.16141,-0.4 0.0888,0.22 0.0888,0.58 0,0.8 -0.0888,0.22 -0.16141,0.04 -0.16141,-0.4 z M 72.690525,87.68 c 0,-0.44 0.07263,-0.62 0.161405,-0.4 0.08877,0.22 0.08877,0.58 0,0.8 -0.08877,0.22 -0.161405,0.04 -0.161405,-0.4 z M 96.96,88.215738 c -0.088,-0.08778 -0.088,-1.792237 0,-3.787674 L 97.12,80.8 l 1.92,-0.02285 1.92,-0.02285 -1.829974,0.11785 -1.829975,0.117852 -0.09002,3.692663 C 97.160512,86.713645 97.048,88.30352 96.96,88.215738 Z m 10.58526,-2.002404 c 0.0154,-0.372784 0.0912,-0.448608 0.19334,-0.193334 0.0924,0.230998 0.0811,0.507002 -0.0252,0.613334 -0.10634,0.106333 -0.18197,-0.08267 -0.16807,-0.42 z m -4.16,-0.32 c 0.0154,-0.372784 0.0912,-0.448608 0.19334,-0.193334 0.0924,0.230998 0.0811,0.507002 -0.0252,0.613334 -0.10634,0.106333 -0.18197,-0.08267 -0.16807,-0.42 z M 38.72,85.959181 c 0,-0.06645 0.252,-0.318448 0.56,-0.56 0.507539,-0.398039 0.518858,-0.38672 0.120819,0.120819 C 38.982781,86.05304 38.72,86.222554 38.72,85.959181 Z M 44.439181,85.2 C 44.041142,84.692461 44.052461,84.681142 44.56,85.079181 45.09304,85.497219 45.262554,85.76 44.999181,85.76 c -0.06645,0 -0.318448,-0.252 -0.56,-0.56 z m 37.643085,0.243664 c -0.112109,-0.181395 0.01635,-0.23504 0.301113,-0.125763 0.554375,0.212733 0.655805,0.442099 0.195507,0.442099 -0.165612,0 -0.389094,-0.142352 -0.49662,-0.316336 z M 77.44,84.999181 c 0,-0.06645 0.252,-0.318448 0.56,-0.56 0.507539,-0.398039 0.518858,-0.38672 0.120819,0.120819 C 77.702781,85.09304 77.44,85.262554 77.44,84.999181 Z m 7.68,-0.0049 c 0,-0.06917 0.223478,-0.21152 0.496621,-0.316336 0.284774,-0.109277 0.413222,-0.05563 0.301113,0.125763 C 85.729811,85.107731 85.12,85.253408 85.12,84.994237 Z M 111.8096,84.4 111.2,83.68 l 0.72,0.609597 c 0.67662,0.57287 0.86568,0.830403 0.6096,0.830403 -0.0607,0 -0.38473,-0.324 -0.72,-0.72 z m 4.09778,0.272275 c 0.22694,-0.246249 0.46304,-0.39983 0.52466,-0.341289 0.18981,0.180307 -0.29124,0.789014 -0.62354,0.789014 -0.17255,0 -0.12806,-0.201475 0.0989,-0.447725 z M 36.085731,84.568086 c 0.575152,-0.07122 1.439152,-0.06975 1.92,0.0033 0.480848,0.07302 0.01027,0.131287 -1.045731,0.129492 -1.056,-0.0019 -1.449421,-0.06154 -0.874269,-0.132756 z M 55.28,84.568406 c 0.572,-0.07098 1.508,-0.07098 2.08,0 0.572,0.07099 0.104,0.129066 -1.04,0.129066 -1.144,0 -1.612,-0.05808 -1.04,-0.129066 z m 5.448458,-0.0032 c 0.752652,-0.0676 1.904652,-0.06665 2.56,0.0022 0.655347,0.06876 0.03954,0.124068 -1.368458,0.122906 -1.408,-0.0013 -1.944195,-0.05742 -1.191542,-0.125021 z m 7.511542,0.0016 c 0.66,-0.06904 1.74,-0.06904 2.4,0 0.66,0.06904 0.12,0.125524 -1.2,0.125524 -1.32,0 -1.86,-0.05648 -1.2,-0.125524 z m -26.4,-0.298819 c 0.22,-0.08877 0.58,-0.08877 0.8,0 0.22,0.08877 0.04,0.161405 -0.4,0.161405 -0.44,0 -0.62,-0.07263 -0.4,-0.161405 z M 28.932266,83.083002 c -0.099,-0.257981 -0.133254,-0.87722 -0.07613,-1.376087 C 28.957331,80.823312 29.009345,80.8 30.88,80.8 h 1.92 v 1.28 1.28 l -1.843871,0.09608 C 29.566383,83.5285 29.067928,83.43666 28.932266,83.083114 Z M 32.64,82.08 v -1.12 h -1.76 -1.76 v 1.12 1.12 h 1.76 1.76 z m 41.92,0.32 c 0.41336,-0.44 0.823562,-0.8 0.911562,-0.8 0.088,0 -0.178202,0.36 -0.591562,0.8 -0.41336,0.44 -0.823562,0.8 -0.911562,0.8 -0.088,0 0.178202,-0.36 0.591562,-0.8 z m 40.13987,-0.24 -0.93987,-1.04 1.04,0.939869 c 0.96943,0.876089 1.18709,1.140131 0.93987,1.140131 -0.0551,0 -0.52307,-0.468 -1.04,-1.04 z M 84.119181,82 C 83.721142,81.492461 83.732461,81.481142 84.24,81.879181 84.77304,82.297219 84.942554,82.56 84.679181,82.56 c -0.06645,0 -0.318448,-0.252 -0.56,-0.56 z M 108.1,80.741405 c 0.231,-0.09244 0.507,-0.08107 0.61333,0.02525 0.10634,0.106333 -0.0827,0.181965 -0.42,0.16807 -0.37278,-0.01536 -0.4486,-0.09118 -0.19333,-0.193331 z m 3.84,0 c 0.231,-0.09244 0.507,-0.08107 0.61333,0.02525 0.10634,0.106333 -0.0827,0.181965 -0.42,0.16807 -0.37278,-0.01536 -0.4486,-0.09118 -0.19333,-0.193331 z"
       style="fill:#1d6f9d;stroke-width:0.32" />
    <path
       id="path839"
       d="m 79.04,103.77401 c -0.745152,-0.2724 -1.934502,-1.44501 -2.428387,-2.39422 -0.396829,-0.76267 -0.580496,-0.83864 -1.619792,-0.66999 -0.644714,0.10463 -4.719539,0.004 -9.055162,-0.22257 -7.348179,-0.3848 -7.956134,-0.37496 -8.961693,0.14503 -1.732246,0.89578 -4.271228,0.95933 -8.211187,0.20554 C 45.389882,100.1923 44.26537,100.16 25.170513,100.16 H 5.12 V 87.04 73.92 h 5.753903 5.753904 l 0.193909,-0.88 c 0.486438,-2.207558 2.165812,-7.314672 3.201476,-9.735949 C 25.443109,50.632838 37.187018,39.832666 50.128339,35.618147 52.196451,34.944637 52.8,34.614813 52.8,34.15815 c 0,-1.005184 0.927062,-2.444681 1.897661,-2.946598 0.663859,-0.343294 1.076016,-0.928439 1.452627,-2.062313 C 57.334074,25.585197 59.413302,23.88022 64,22.712445 c 2.162403,-0.550549 3.408797,-0.669028 6.08,-0.577952 3.142374,0.107141 3.49472,0.188292 5.44,1.252908 1.408755,0.770987 2.544707,1.718376 3.52,2.935694 l 1.44,1.797347 0.377408,-1.461629 c 0.207574,-0.803896 0.518842,-1.603062 0.691702,-1.775924 0.312685,-0.312683 4.035888,0.768102 7.01089,2.035147 1.165779,0.496503 1.36,0.510593 1.36,0.09867 0,-0.329902 0.611421,-0.05046 1.950339,0.891371 2.986864,2.101046 3.891104,2.600117 5.928915,3.272294 1.03441,0.341203 1.918282,0.64274 1.964164,0.670083 0.234057,0.139491 -0.995316,2.942533 -1.838509,4.191909 -0.530701,0.786345 -0.969402,1.602502 -0.974896,1.81368 -0.0055,0.211177 -0.364755,0.959958 -0.798362,1.663958 -0.433603,0.704 -0.785398,1.496 -0.78176,1.76 0.0036,0.264 0.758899,0.982464 1.678362,1.596589 0.919459,0.614121 3.407237,2.846121 5.528407,4.96 4.28546,4.270745 7.49354,8.725491 9.91113,13.762621 1.55907,3.248384 3.51609,8.808403 3.85798,10.96079 l 0.21603,1.36 h 5.0791 5.0791 v 13.12 V 100.16 H 109.1734 91.6268 l -2.373402,1.24612 c -3.969616,2.08421 -8.265136,3.08008 -10.213398,2.36789 z m 4.402579,-0.57563 c 1.101418,-0.25968 2.973418,-0.97047 4.16,-1.57953 l 2.157421,-1.10737 -6.488218,-0.0157 -6.488217,-0.0157 0.467117,0.90331 c 0.580832,1.1232 1.172924,1.62441 2.32886,1.97139 1.28384,0.38537 1.62392,0.37161 3.863037,-0.15632 z M 54.88,100.8 c 0.634784,-0.16153 -0.06985,-0.24172 -2.08,-0.23673 -2.220099,0.005 -2.694778,0.0694 -1.76,0.23673 1.671267,0.29924 2.664019,0.29924 3.84,0 z M 53.555344,93.929645 C 54.65991,93.180064 54.72,93.171811 54.72,93.769645 54.72,94.320378 54.942307,94.4 56.48,94.4 h 1.76 V 89.44 84.48 H 56.32 54.4 v 2.901037 C 54.4,90.64289 54.094842,91.52 52.96,91.52 c -1.134842,0 -1.44,-0.87711 -1.44,-4.138963 V 84.48 h -1.94543 -1.945431 l 0.105431,4.187043 0.10543,4.187043 1.04505,0.932957 c 1.351513,1.206551 3.027084,1.257712 4.670294,0.142602 z m 28.733149,0.462227 c 1.19575,-0.332128 3.430121,-2.460662 3.519507,-3.352794 0.0264,-0.263494 0.0624,-0.643184 0.08,-0.843756 0.02867,-0.326605 -2.296694,-1.218192 -3.209178,-1.230464 -0.198646,-0.0026 -0.535001,0.41479 -0.747452,0.927689 -0.876618,2.116349 -3.79242,1.985293 -4.514592,-0.202915 -1.318224,-3.994253 1.689878,-7.558765 4.153353,-4.921606 0.861517,0.922259 0.877725,0.925507 2.608387,0.522896 1.906359,-0.443485 1.961143,-0.593184 0.866845,-2.368708 -0.91224,-1.480128 -2.776339,-2.26816 -5.365363,-2.26816 -2.216374,0 -4.206822,0.687732 -5.187795,1.792464 -1.48785,1.675552 -2.100378,5.621687 -1.26249,8.133415 0.449098,1.346256 2.374611,3.285062 3.730285,3.756032 1.256787,0.436614 3.859526,0.463923 5.328493,0.05591 z m 31.183167,-0.28161 c 1.39798,-0.634886 2.50971,-1.92711 2.86055,-3.324969 0.23603,-0.940423 -0.22601,-1.246256 -2.53805,-1.679997 -0.90896,-0.170522 -1.15416,-0.114512 -1.15416,0.263642 0,0.809321 -1.06556,1.818624 -2.13879,2.025856 -2.01917,0.389888 -3.43443,-2.443287 -2.659,-5.323005 0.6203,-2.303623 2.83217,-2.978983 4.24754,-1.296922 0.77764,0.924179 0.80603,0.930563 2.48234,0.558314 0.93264,-0.207107 1.74673,-0.529635 1.80909,-0.716733 0.16028,-0.480832 -1.17309,-2.353066 -2.23741,-3.141626 -1.07951,-0.799814 -4.98202,-1.109452 -6.72654,-0.533708 -1.37078,0.452396 -3.11057,2.180403 -3.62509,3.600537 -0.48686,1.343776 -0.52983,4.213671 -0.087,5.808563 0.44777,1.61257 2.05583,3.323709 3.65483,3.889098 1.81269,0.64095 4.54311,0.583296 6.11166,-0.12905 z M 27.2,92.64 V 90.88 H 24.008126 20.816252 L 20.728126,85.84 20.64,80.8 h -2.08 -2.08 l -0.08636,6.8 -0.08636,6.8 H 21.753636 27.2 Z M 32.888336,89.52 32.8,84.64 h -1.92 -1.92 l -0.08834,4.88 -0.08833,4.88 H 30.88 32.976669 Z M 39.04,91.382858 c 0,-2.316192 0.116826,-3.133968 0.502858,-3.52 0.551494,-0.551495 0.79288,-0.599527 1.550969,-0.308621 0.416637,0.159878 0.506173,0.782534 0.506173,3.52 V 94.4 h 2.08 2.08 v -3.530278 c 0,-4.310736 -0.41809,-5.555956 -2.101632,-6.259383 C 42.31472,84.048925 40.925888,84.244413 39.6,85.181578 38.723168,85.801341 38.72,85.801197 38.72,85.141789 38.72,84.552954 38.525984,84.48 36.96,84.48 H 35.2 v 4.96 4.96 h 1.92 1.92 z m 25.628128,1.536259 1.018874,-1.48088 0.836499,1.479577 0.836499,1.479581 2.319174,0.0013 2.319175,0.0013 -1.621863,-2.272953 c -0.892025,-1.250125 -1.686502,-2.441402 -1.765504,-2.647277 -0.079,-0.205875 0.479405,-1.235047 1.240906,-2.287047 0.761498,-1.051996 1.492845,-2.092723 1.625213,-2.312723 0.183197,-0.30448 -0.279648,-0.399449 -1.938215,-0.397696 L 67.36,84.484499 66.515114,85.806605 65.670227,87.12871 64.915114,85.806768 64.16,84.484822 l -2.341789,-0.0026 -2.341792,-0.0026 0.720215,1.04 c 0.396118,0.572 1.125923,1.564724 1.621792,2.206048 0.495865,0.641328 0.901574,1.324807 0.901574,1.518845 0,0.194035 -0.72,1.361834 -1.6,2.595107 -0.88,1.233274 -1.6,2.313796 -1.6,2.401159 0,0.08736 0.929082,0.158841 2.064627,0.158841 h 2.064627 l 1.018874,-1.480883 z M 92.16,90.802138 v -3.59786 l 2.404163,3.59786 L 96.96833,94.4 H 99.044163 101.12 v -6.89527 -6.895268 l -2,0.09527 -2,0.09527 -0.16,3.480109 -0.16,3.480109 -2.398349,-3.573344 -2.398349,-3.573344 -1.921651,0.09324 L 88.16,80.8 88.07363,87.6 87.98726,94.4 H 90.073635 92.16 Z M 32.8,82.08 V 80.8 h -1.92 c -1.870655,0 -1.922669,0.0233 -2.023864,0.90703 -0.187102,1.633949 0.07763,1.854442 2.099993,1.749053 L 32.8,83.36 Z M 38.606406,70 C 33.946678,65.390842 33.241382,64.160845 32.432445,59.232982 l -0.546151,-3.327014 0.732304,-0.592986 c 1.076186,-0.871443 2.726391,-0.740083 4.6696,0.371709 2.137821,1.223136 5.684573,2.134234 8.879616,2.281018 l 2.487812,0.114291 1.9111,-4.8 c 1.051108,-2.64 1.908733,-4.944 1.905837,-5.12 -0.0029,-0.176 -0.74415,-0.752 -1.647235,-1.28 C 49.112656,45.878666 47.560544,43.881539 47.192419,42.205491 47.080621,41.69647 46.923802,41.28 46.843936,41.28 c -0.412845,0 -3.51183,1.763738 -6.166896,3.509789 C 37.097094,47.14407 31.751898,52.238502 28.948028,55.968547 25.699127,60.290624 22.013957,68.107626 20.975459,72.88 l -0.226311,1.04 h 10.910134 10.910132 z m 7.902964,0 c 0.178646,-3.364614 0.777827,-7.195936 1.651475,-10.56 l 0.228537,-0.88 H 46.5812 c -3.441962,0 -7.259949,-1.054301 -10.416208,-2.876333 C 34.824064,54.909581 34.288173,54.881866 33.351203,55.538144 32.88632,55.863763 32.64,56.367168 32.64,56.991635 c 0,1.432087 0.945949,5.729789 1.504752,6.836515 0.979254,1.939424 3.180643,4.470455 6.307418,7.251901 2.927724,2.604381 3.302713,2.839949 4.5208,2.839949 h 1.328265 z m 4.776352,1.713942 c 0.291196,-1.213331 1.123913,-3.553331 1.850476,-5.2 2.783725,-6.308988 3.534858,-8.805897 3.833492,-12.74328 0.153065,-2.018134 0.249504,-3.688764 0.214307,-3.712508 -0.788864,-0.532183 -3.919037,-1.686071 -4.085651,-1.506109 -0.325021,0.351056 -2.761805,6.458509 -3.854852,9.661632 -0.505558,1.48152 -1.141564,3.85752 -1.41334,5.28 C 47.302538,66.2552 46.681098,73.27817 46.92888,73.679091 47.010771,73.81159 47.905434,73.92 48.917018,73.92 h 1.839248 z m 14.953609,-2.302505 1.668976,-4.508563 -0.490313,-1.811437 C 66.598106,60.062397 66.425389,57.47008 67.011082,56.984 67.491414,56.58536 68.80039,56.633021 70.24,57.101568 c 0.571178,0.185901 0.748832,-0.127728 1.652042,-2.916499 1.004784,-3.102381 1.007712,-3.13088 0.408278,-3.972707 -0.33207,-0.466349 -0.969331,-1.087437 -1.416138,-1.380196 -0.781846,-0.512284 -0.822969,-0.504851 -1.094326,0.197773 -0.322435,0.83488 -1.423856,1.900688 -2.585296,2.501706 -1.357414,0.702429 -5.019514,0.488621 -7.262384,-0.424007 -2.388106,-0.971724 -2.282829,-1.114646 -2.660931,3.612362 -0.291818,3.648282 -0.90064,5.695354 -3.283421,11.04 -1.362675,3.056515 -2.192621,5.366573 -2.615523,7.28 l -0.194493,0.88 h 6.691274 6.691273 z m 3.035283,3.981814 c 0.35721,-0.488518 0.547783,-0.486899 2.625543,0.02227 1.232205,0.301968 2.777664,0.503005 3.434352,0.446749 l 1.193977,-0.10228 -2.296624,-1.885596 C 72.968717,70.837318 71.098714,68.936122 70.076294,67.64952 l -1.858937,-2.33928 -1.468679,4.010822 C 65.940906,71.527027 65.28,73.464221 65.28,73.625949 c 0,0.161728 0.812125,0.294051 1.804723,0.294051 1.306058,0 1.911149,-0.145546 2.189891,-0.526749 z M 70.8,73.70807 c -0.22,-0.08877 -0.58,-0.08877 -0.8,0 -0.22,0.08877 -0.04,0.161405 0.4,0.161405 0.44,0 0.62,-0.07263 0.4,-0.161405 z M 93.153376,73.04 c 0.445968,-1.162707 0.17079,-2.726736 -1.212602,-6.892045 -1.157168,-3.48416 -2.464236,-5.512278 -3.350598,-5.198973 C 85.880893,61.90664 82.135037,62.72 80.433923,62.72 c -2.550685,0 -3.607101,-0.435018 -6.993923,-2.88 -3.023162,-2.182451 -4.717952,-2.999952 -5.623488,-2.712544 -0.504925,0.160256 -0.615824,0.495843 -0.612714,1.854109 0.0091,3.972893 1.566932,6.886067 5.914167,11.059587 4.272198,4.101482 3.560688,3.876256 12.249955,3.877651 l 7.44792,0.0013 0.337536,-0.88 z M 112.32,73.274083 c 0,-1.240947 -2.23385,-7.542416 -3.67494,-10.366627 C 105.62685,56.992435 100.93967,51.163299 96.113984,47.323386 93.686925,45.392115 93.718755,45.375808 92.919408,48.96 92.223965,52.078301 91.55216,53.604413 90.123971,55.310275 89.483786,56.074928 88.96,56.808384 88.96,56.940179 c 0,0.551255 1.268259,3.837031 2.169165,5.619821 1.541091,3.049645 2.711712,7.090771 2.711376,9.36 l -2.98e-4,2 h 9.239877 c 9.05476,0 9.23988,-0.01294 9.23988,-0.645917 z M 82.750778,62.03887 c 1.362918,-0.343187 1.40176,-0.38384 0.781702,-0.818147 C 83.147696,60.95121 82.88,60.406502 82.88,59.893056 c 0,-1.255181 -0.816205,-2.237078 -2.052349,-2.468982 -0.87904,-0.164909 -1.321667,-0.02202 -2.438816,0.787225 C 77.638163,58.755085 76.62161,59.2 76.129834,59.2 c -1.249312,0 -2.462727,-1.181526 -2.957725,-2.88 L 72.752438,54.88 72.057414,56 c -0.382262,0.616 -0.693168,1.264 -0.690902,1.44 0.0056,0.436218 5.554054,4.314794 6.640672,4.64209 1.276755,0.384569 3.111056,0.367856 4.743594,-0.04322 z M 85.646451,60.08 c 1.285152,-1.375059 2.601731,-3.308166 2.016483,-2.960762 C 85.965971,58.126563 83.2,59.915571 83.2,60.005827 83.2,60.21447 84.207862,61.12 84.440083,61.12 c 0.128903,0 0.67177,-0.468 1.206368,-1.04 z m 1.088218,0.372592 C 87.257715,59.475274 86.896483,59.362989 86.275971,60.310013 85.98407,60.755507 85.887501,61.12 86.061363,61.12 c 0.173866,0 0.476851,-0.300333 0.673306,-0.667408 z m 2.520985,-0.440659 c -0.01338,-0.182563 -0.196121,-0.805888 -0.40607,-1.385168 l -0.381725,-1.053235 -0.540102,1.457264 -0.540099,1.457264 0.946172,-0.0721 c 0.520394,-0.03965 0.935213,-0.221466 0.921824,-0.404029 z m -2.046838,-3.248144 c 2.492726,-1.513367 3.535846,-2.702522 4.459472,-5.083789 0.482346,-1.243568 0.480467,-1.257466 -0.06591,-0.488304 -2.576192,3.626656 -4.279255,5.023741 -7.275223,5.968134 -1.620041,0.510672 -1.690809,0.577626 -1.365408,1.291802 0.320484,0.703386 0.391975,0.721248 1.080615,0.270035 0.405584,-0.26575 1.830489,-1.146793 3.166451,-1.957878 z m -9.362963,1.157363 c 1.241161,-0.976298 2.180361,-1.222326 3.390563,-0.888173 0.864803,0.238784 1.493949,0.153981 3.040157,-0.409798 3.606877,-1.315133 5.381731,-2.990839 7.383501,-6.971034 0.917168,-1.823635 3.465209,-8.713529 3.288003,-8.890739 -0.05832,-0.05831 -0.889488,0.414624 -1.847053,1.05097 -3.787834,2.517203 -8.313882,5.207475 -11.777341,7.000425 -2.474649,1.281066 -4.302281,2.501082 -5.720947,3.818954 l -2.084624,1.936518 0.23479,1.389709 c 0.129133,0.764339 0.507559,1.662477 0.840944,1.995862 0.787181,0.787181 2.228122,0.772695 3.252007,-0.03269 z m 4.056921,-10.120963 c 4.122448,-1.986845 12.644375,-7.331603 13.897293,-8.716061 1.518762,-1.678214 -0.153753,-0.967069 -6.040067,2.568205 -7.97761,4.791286 -8.95464,5.295206 -12.32,6.354224 -3.05479,0.961289 -3.211526,1.127542 -4.639462,4.921222 l -0.825588,2.193383 2.7953,-2.615306 c 2.443523,-2.286179 3.341126,-2.878371 7.132524,-4.705667 z m -14.159008,2.880963 c 0.492928,-0.367427 1.16961,-1.134902 1.503735,-1.705498 0.560633,-0.957411 0.578579,-1.275747 0.232617,-4.126547 -0.885833,-7.299433 -3.0687,-8.581987 -10.648806,-6.256749 l -2.831459,0.868567 -2.815379,-0.690464 C 51.636013,38.390707 49.955386,38.08 49.449744,38.08 48.165622,38.08 47.36,38.914182 47.36,40.243834 c 0,0.929939 0.08856,1.066761 0.56,0.865145 1.645619,-0.703779 2.314358,-0.553363 4.805011,1.080752 1.361245,0.893111 3.122989,1.862103 3.914989,2.153315 1.843002,0.677655 7.272934,0.952416 9.734182,0.492557 1.723844,-0.32208 2.458263,-0.281382 2.062576,0.114304 -0.08245,0.08245 -1.52591,0.319011 -3.207692,0.52569 -5.18178,0.636803 -9.281159,-0.323706 -13.104413,-3.070442 -2.02297,-1.45336 -2.849763,-1.642726 -3.802819,-0.870985 -0.693472,0.561539 -0.723245,0.696739 -0.351207,1.594918 0.958813,2.314781 4.292186,4.438582 11.389895,7.256874 2.515216,0.998716 3.170912,1.131961 5.183244,1.053296 1.73776,-0.06793 2.523956,-0.254186 3.2,-0.758106 z m 6.862628,-4.887635 c 0.509344,-4.994467 1.56968,-7.513037 4.355388,-10.345149 0.990893,-1.007398 1.737856,-1.892291 1.65992,-1.966432 -0.194144,-0.184688 -5.873577,-1.136726 -6.003881,-1.006426 -0.05746,0.05746 0.04922,0.657978 0.237069,1.334484 0.187846,0.676502 0.342345,2.055734 0.343324,3.064956 0.0016,1.56786 -0.131337,1.983946 -0.912784,2.858535 -0.855072,0.956992 -1.042435,1.020061 -2.88,0.969414 -1.080988,-0.02979 -1.962848,0.05187 -1.959689,0.181466 0.0032,0.1296 0.211827,1.589622 0.463712,3.244499 0.251885,1.654874 0.435155,3.094874 0.407267,3.2 C 70.28885,47.433987 70.90816,48.168 71.693008,48.96 L 73.12,50.4 73.726211,49.44 c 0.379587,-0.601117 0.708634,-1.96431 0.880183,-3.646483 z m 4.889129,0.81871 c 1.394538,-0.542601 4.778538,-2.34328 7.52,-4.001504 2.741463,-1.658227 6.149747,-3.710998 7.573965,-4.561715 2.290054,-1.367901 2.706336,-1.76599 3.6,-3.442675 C 98.74527,33.563578 99.2,32.64751 99.2,32.57063 c 0,-0.07688 -0.421914,-0.07786 -0.937584,-0.0022 -0.85991,0.126208 -5.677197,-0.383964 -7.246262,-0.767414 -0.506196,-0.123704 -0.860074,0.13429 -1.490132,1.086374 -1.356134,2.049255 -3.705987,4.262186 -7.669392,7.222516 -3.691571,2.757289 -5.104992,4.18486 -6.132787,6.194182 -1.024627,2.003136 -0.661017,2.032838 3.77168,0.308118 z m -0.409459,-8.517094 c 1.027274,-1.0112 2.786006,-2.183491 4.861728,-3.240618 C 87.244435,33.1756 89.28,31.854692 89.28,31.394367 c 0,-0.139185 -0.57945,-0.42667 -1.287667,-0.638857 -1.238112,-0.370948 -1.339706,-0.344199 -2.64,0.695095 -0.743783,0.594489 -2.393306,1.762349 -3.665607,2.595245 -1.272297,0.832896 -2.753209,2.045308 -3.290912,2.694252 -1.236003,1.491712 -2.436352,4.002432 -2.705939,5.659898 -0.199654,1.22752 -0.167296,1.19799 0.789239,-0.720269 0.548588,-1.100147 1.721715,-2.713216 2.60695,-3.584598 z M 81.6,39.358102 c 2.772589,-1.936012 3.830499,-2.870409 5.213795,-4.605075 l 0.994391,-1.246976 -3.236864,1.662666 c -4.628925,2.377715 -7.094487,4.774259 -7.93336,7.711283 -0.20346,0.712336 -0.0756,0.655024 1.166771,-0.523027 C 78.572128,41.629309 80.28,40.279818 81.6,39.358102 Z m -7.590477,-0.02918 c 0.514221,-0.635033 0.592928,-1.168288 0.500343,-3.389942 -0.162538,-3.900256 0.0716,-3.781043 -7.402855,-3.769334 -6.610109,0.01037 -9.928678,0.496755 -12.005261,1.7596 -1.029529,0.626096 -1.050019,0.682518 -0.956902,2.635283 0.09097,1.90784 0.133507,1.999907 0.968362,2.096086 0.480262,0.05533 2.337561,-0.268669 4.127331,-0.72 5.160675,-1.301379 7.911907,-0.963277 9.144781,1.123811 0.614524,1.040311 1.22534,1.237661 3.434336,1.109629 1.204707,-0.06982 1.724499,-0.270425 2.189865,-0.845133 z M 58.4,31.174539 59.36,30.3521 57.92,30.574397 c -2.6032,0.401865 -4.48,1.712125 -4.48,3.127645 0,0.544892 3.390294,-1.182727 4.96,-2.527503 z m 26.775859,-0.37839 c 0.47072,-0.434296 0.781997,-0.982108 0.691722,-1.217359 -0.125623,-0.327368 0.124067,-0.388914 1.064141,-0.262299 L 88.16,29.481922 87.04,28.480165 C 86.04,27.58574 82.294208,25.28 81.841165,25.28 c -0.502343,0 -0.929376,3.407856 -0.721421,5.75712 l 0.22561,2.548662 1.487321,-1.000003 c 0.818029,-0.55 1.872461,-1.355333 2.343184,-1.78963 z M 98.213334,31.86821 C 98.14,31.795726 97.288,31.435798 96.32,31.068372 94.559453,30.400115 92.114294,30.242915 90.56,30.69806 c -0.632675,0.185266 -0.298026,0.316069 1.6,0.625382 1.32,0.215115 2.616,0.438638 2.88,0.496718 0.724838,0.159464 3.325898,0.198848 3.173334,0.04805 z M 80.32,29.968012 c 0,-1.901326 -3.151168,-5.401486 -6.040832,-6.709853 -3.323459,-1.50478 -11.479658,-0.575718 -14.580314,1.660826 -1.17271,0.845891 -2.730108,3.145516 -3.194163,4.716437 -0.192217,0.650694 -0.141555,0.663961 1.383763,0.362368 1.069994,-0.211564 3.640013,-0.188304 7.927415,0.07175 7.182272,0.435641 13.114393,0.823262 13.944131,0.911146 0.433693,0.04594 0.56,-0.182469 0.56,-1.012673 z m 10.266861,-1.409944 c 0.280457,-1.371291 -0.09403,-1.319695 -0.774211,0.106671 -0.516295,1.082679 -0.515863,1.138955 0.008,1.038067 0.329708,-0.0635 0.639827,-0.526825 0.766204,-1.144738 z M 89.28,28.462391 c 0,-0.486126 -0.43809,-0.850331 -1.68,-1.396659 -2.91159,-1.28084 -3.34561,-1.258687 -1.31863,0.06731 1.078755,0.705689 2.059254,1.441447 2.178886,1.635017 0.355066,0.57451 0.819744,0.401243 0.819744,-0.305663 z"
       style="fill:#020202;stroke-width:0.32" />
  </g>
</svg>
